<?xml version="1.0" encoding="utf-8"?>
<!-- Generator: Adobe Illustrator 27.6.1, SVG Export Plug-In . SVG Version: 6.00 Build 0)  -->
<svg version="1.1" id="Layer_1" xmlns="http://www.w3.org/2000/svg" xmlns:xlink="http://www.w3.org/1999/xlink" x="0px" y="0px"
	 viewBox="0 0 240 240" style="enable-background:new 0 0 240 240;" xml:space="preserve">
<style type="text/css">
	.st0{fill:#49021F;}
	.st1{fill:#FF3366;}
</style>
<g>
	<g id="Surfaces">
		<g id="Publishing_Surface">
			<g id="Outline_no_shadow">
				<path class="st0" d="M61.9,32.2h116.2c17.6,0,31.9,14.2,31.9,31.9v111.8c0,17.6-14.2,31.9-31.9,31.9H61.9
					c-17.6,0-31.9-14.2-31.9-31.9V64.1C30,46.5,44.2,32.2,61.9,32.2z"/>
			</g>
		</g>
	</g>
	<g id="Outlined_Mnemonics_Logos">
		<g id="Id">
			<path class="st1" d="M95.4,78.1v76.9c0,0.8-0.4,1.2-1,1.2H79.6c-0.7,0-1-0.4-1-1.2V78.1c0-0.7,0.4-1,1.1-1h14.6
				c0.4-0.1,0.9,0.2,1,0.8C95.4,78,95.4,78.1,95.4,78.1z"/>
			<path class="st1" d="M138.6,157.5c-5.6,0.1-11.1-1-16.1-3.4c-4.7-2.2-8.6-5.8-11.3-10.2c-2.8-4.6-4.1-10.3-4.1-17.1
				c-0.1-5.6,1.4-11,4.1-15.8c2.9-4.9,7-8.9,11.9-11.6c5.3-2.9,11.5-4.3,19-4.3c0.4,0,0.9,0,1.6,0.1c0.7,0.1,1.4,0.1,2.3,0.1V71.6
				c0-0.5,0.2-0.8,0.8-0.8h15.2c0.4-0.1,0.7,0.2,0.8,0.5c0,0.1,0,0.2,0,0.2v71.4c0,1.4,0.1,2.9,0.1,4.5c0.1,1.6,0.2,3.1,0.3,4.4
				c0,0.5-0.2,1-0.8,1.2c-3.9,1.6-8,2.9-12.2,3.6C146.4,157.1,142.5,157.5,138.6,157.5z M146,142.5v-33c-0.7-0.1-1.4-0.3-2-0.4
				c-0.8-0.1-1.6-0.1-2.5-0.1c-2.9,0-5.9,0.6-8.5,1.9c-2.6,1.3-4.7,3.1-6.4,5.6c-1.7,2.4-2.5,5.6-2.5,9.5c-0.1,2.6,0.4,5.2,1.3,7.7
				c0.8,2,1.9,3.8,3.4,5.3c1.4,1.4,3.1,2.4,5.1,3c2,0.7,4.1,1,6.2,1c1.1,0,2.2-0.1,3.1-0.1C144.2,143,145.1,142.8,146,142.5z"/>
		</g>
	</g>
</g>
</svg>
