<?xml version="1.0" encoding="utf-8"?>
<!-- Generator: Adobe Illustrator 27.6.1, SVG Export Plug-In . SVG Version: 6.00 Build 0)  -->
<svg version="1.1" id="Layer_1" xmlns="http://www.w3.org/2000/svg" xmlns:xlink="http://www.w3.org/1999/xlink" x="0px" y="0px"
	 viewBox="0 0 240 240" style="enable-background:new 0 0 240 240;" xml:space="preserve">
<style type="text/css">
	.st0{fill:#390000;}
	.st1{fill:#FF9A00;}
	.st2{fill:#FDFCFC;}
	.st3{fill:#FCFBFB;}
	.st4{fill:#D67A00;}
	.st5{fill:#FD9800;}
</style>
<g>
	<path class="st0" d="M30.2,181.8c0-41.1,0-82.2,0-123.4c0.1-0.1,0.3-0.2,0.3-0.4c0.6-5.2,2.4-10,5.4-14.2c3-4.2,6.7-7.5,11.2-10.1
		c5.5-3.2,11.6-3.7,17.7-3.7c36.4,0,72.7,0,109.1,0c3.1,0,6.1,0.2,9.2,0.6c4.5,0.6,8.7,2.2,12.5,4.9c0.1,0.1,0.2,0.2,0.3,0.3
		c0.5,0.4,1,0.7,1.5,1.1c3.6,2.9,6.7,6.3,8.7,10.5c0.1,0.1,0.2,0.3,0.3,0.4c3.2,6.7,3.6,13.8,3.5,21.1c-0.1,35.5,0,71-0.1,106.4
		c0,3.2,0,6.4-1,9.6c-1.9,6.2-4.7,11.8-9.5,16.1c-0.1,0.1-0.3,0.2-0.4,0.3c-2.8,1.9-5.6,3.9-8.5,5.6c-4.3,2.4-9.1,2.7-13.9,2.7
		c-37.6,0-75.3,0-112.9,0c-0.5,0-0.9,0.1-1.4,0c-3.1-0.4-6.3-0.5-9.3-1.3c-5.3-1.4-9.7-4.7-13.6-8.5c-4.4-4.2-6.9-9.6-8.4-15.6
		C30.7,183.6,30.4,182.7,30.2,181.8z M92.7,76.4c-0.2,1.9-0.2,3.9-0.7,5.7c-1.7,5.8-3.6,11.5-5.6,17.2c-3.1,9.1-6.3,18.3-9.4,27.4
		c-2.9,8.5-5.7,17.1-8.6,25.7c-0.5,1.4-0.8,2.9-1.3,4.5c5.3,0,10.1,0,14.9,0c1.3,0,1.6-0.9,1.9-1.8c1.5-5,3-10.1,4.6-15.1
		c0.4-1.4,1-2.2,2.9-2.2c8,0.2,16,0.1,24,0c1.4,0,2,0.5,2.4,1.8c1.7,5.2,3.6,10.4,5.3,15.7c0.3,1,0.8,1.6,1.9,1.6
		c4.9,0,9.8,0,14.7,0c1.2,0,1.5-0.5,1.1-1.7c-2.6-7.4-5.2-14.9-7.8-22.3c-2.5-7.2-4.9-14.3-7.4-21.5c-1.5-4.4-3.2-8.8-4.7-13.3
		c-2.4-7-4.7-14-7.2-20.9c-0.2-0.5-0.9-1.1-1.4-1.1c-6.4,0-12.9,0-19.3,0C92.9,76.3,92.8,76.3,92.7,76.4z M148.8,126.1
		C148.8,126.1,148.8,126.1,148.8,126.1c0.1,9.5,0.1,19,0.1,28.5c0,1.5,0.2,2.5,2.2,2.4c4.1-0.2,8.2,0,12.3-0.1c2.3,0,2.3,0,2.3-2.4
		c0-12.8,0-25.5,0-38.3c0-6.3,0-12.6,0-19c0-1-0.2-1.7-1.4-1.7c-4.7,0-9.4,0-14,0c-1,0-1.4,0.5-1.4,1.5
		C148.8,106.8,148.8,116.5,148.8,126.1z M157.4,70.4c-5.9,0.2-9.7,3.2-9.3,11.2c0.2,3.6,4,7.9,9.1,7.8c5.8-0.2,9.4-3.7,9.5-10.1
		C166.7,74.8,163.3,70.1,157.4,70.4z"/>
	<path class="st1" d="M93,76.2c6.4,0,12.9-0.1,19.3,0c0.5,0,1.2,0.6,1.4,1.1c2.4,7,4.8,13.9,7.2,20.9c1.5,4.4,3.2,8.8,4.7,13.3
		c2.5,7.2,4.9,14.3,7.4,21.5c2.6,7.4,5.2,14.9,7.8,22.3c0.4,1.1,0.2,1.7-1.1,1.7c-4.9,0-9.8,0-14.7,0c-1.2,0-1.6-0.6-1.9-1.6
		c-1.7-5.2-3.6-10.4-5.3-15.7c-0.4-1.3-1-1.8-2.4-1.8c-8,0.1-16,0.1-24,0c-1.8,0-2.5,0.8-2.9,2.2c-1.6,5-3.1,10-4.6,15.1
		c-0.3,1-0.6,1.8-1.9,1.8c-4.8,0-9.6,0-14.9,0c0.5-1.7,0.9-3.1,1.3-4.5c2.9-8.6,5.7-17.1,8.6-25.7c3.1-9.1,6.3-18.3,9.4-27.4
		c1.9-5.7,3.8-11.4,5.6-17.2c0.5-1.8,0.5-3.8,0.7-5.7C92.9,76.4,92.9,76.3,93,76.2z M97.9,108.8c-0.4,0.9-0.8,1.8-1.1,2.7
		c-0.6,2-1.2,3.9-1.7,5.9c-0.4,1.6-0.8,3.1-1.3,4.8c6.4,0,12.6,0,18.8,0c-0.5-1.6-0.9-3-1.4-4.5c-1.1-3.5-2.1-7-3.2-10.4
		c-0.1-0.2-0.2-0.5-0.3-0.7c-1.5-5.1-2.9-10.3-4.4-15.4c-0.2,0-0.4,0-0.6,0c-1.2,4.1-2.3,8.2-3.5,12.3c0,0.2,0,0.5,0,0.7
		c0,0.1,0,0.2,0,0.3c-0.1,0.2-0.2,0.5-0.4,0.7c-0.2,0.9-0.5,1.9-0.7,2.8C98.1,108.3,98,108.5,97.9,108.8z"/>
	<path class="st1" d="M148.8,126.1c0-9.7,0-19.3,0-29c0-1,0.4-1.5,1.4-1.5c4.7,0,9.4,0,14,0c1.2,0,1.4,0.7,1.4,1.7
		c0,6.3,0,12.6,0,19c0,12.8,0,25.5,0,38.3c0,2.4,0,2.4-2.3,2.4c-4.1,0-8.2-0.1-12.3,0.1c-2,0.1-2.2-0.9-2.2-2.4
		C148.9,145.1,148.8,135.6,148.8,126.1C148.8,126.1,148.8,126.1,148.8,126.1z"/>
	<path class="st1" d="M157.4,70.4c6-0.3,9.4,4.3,9.3,8.9c-0.1,6.3-3.7,9.9-9.5,10.1c-5.1,0.1-8.9-4.2-9.1-7.8
		C147.6,73.6,151.4,70.6,157.4,70.4z"/>
	<path class="st2" d="M195.5,35.6c0.1,0.1,0.2,0.2,0.3,0.3C195.7,35.9,195.6,35.8,195.5,35.6z"/>
	<path class="st3" d="M206,47.6c0.1,0.1,0.2,0.3,0.3,0.4C206.2,47.9,206.1,47.7,206,47.6z"/>
	<path class="st4" d="M93,76.2c0,0.1-0.1,0.2-0.2,0.2C92.8,76.3,92.9,76.3,93,76.2z"/>
	<path class="st2" d="M199.3,201.2c-0.1,0.1-0.3,0.2-0.4,0.3C199,201.4,199.1,201.3,199.3,201.2z"/>
	<path class="st0" d="M99.3,103.5c1.2-4.1,2.3-8.2,3.5-12.3c0.2,0,0.4,0,0.6,0c1.5,5.1,2.9,10.3,4.4,15.4c0.1,0.2,0.2,0.5,0.3,0.7
		c1.1,3.5,2.1,7,3.2,10.4c0.4,1.5,0.9,2.9,1.4,4.5c-6.3,0-12.4,0-18.8,0c0.5-1.7,0.9-3.3,1.3-4.8c0.6-2,1.1-4,1.7-5.9
		c0.3-0.9,0.7-1.8,1.1-2.7c0.1-0.2,0.2-0.5,0.4-0.7c0.2-0.9,0.5-1.9,0.7-2.8c0.1-0.2,0.2-0.5,0.4-0.7c0-0.1,0-0.2,0-0.3
		C99.3,103.9,99.3,103.7,99.3,103.5z"/>
	<path class="st5" d="M99.3,104.5c-0.1,0.2-0.2,0.5-0.4,0.7C99.1,105,99.2,104.8,99.3,104.5z"/>
	<path class="st5" d="M98.3,108c-0.1,0.2-0.2,0.5-0.4,0.7C98,108.5,98.1,108.3,98.3,108z"/>
	<path class="st5" d="M99.3,103.5c0,0.2,0,0.5,0,0.7C99.3,103.9,99.3,103.7,99.3,103.5z"/>
	<path class="st0" d="M108,107.3c-0.1-0.2-0.2-0.5-0.3-0.7C107.8,106.9,107.9,107.1,108,107.3z"/>
</g>
</svg>
