<?xml version="1.0" encoding="utf-8"?>
<!-- Generator: Adobe Illustrator 27.6.1, SVG Export Plug-In . SVG Version: 6.00 Build 0)  -->
<svg version="1.1" id="Layer_1" xmlns="http://www.w3.org/2000/svg" xmlns:xlink="http://www.w3.org/1999/xlink" x="0px" y="0px"
	 viewBox="0 0 240 240" style="enable-background:new 0 0 240 240;" xml:space="preserve">
<style type="text/css">
	.st0{fill:#00005B;}
	.st1{fill:#01015C;}
	.st2{fill:#9999FF;}
	.st3{fill:#0A0A66;}
	.st4{fill:#080863;}
	.st5{fill:#9191F7;}
	.st6{fill:#04045F;}
	.st7{fill:#060662;}
	.st8{fill:#9595FB;}
	.st9{fill:#050560;}
	.st10{fill:#02025D;}
	.st11{fill:#5252B2;}
</style>
<g>
	<path class="st0" d="M210,64.5c0,37.2,0,74.4,0,111.6c0,0.1,0,0.3,0,0.4c0,0.6,0,1.3,0,1.9c-0.1,0.2-0.3,0.5-0.3,0.7
		c-0.1,1-0.1,2-0.4,3c-0.5,2-1.1,4.1-1.9,6c-1.5,3.7-3.6,7-6.5,9.7c-1.4,1.3-2.7,2.6-4.2,3.7c-1.1,0.9-2.3,1.6-3.5,2.2
		c-1.2,0.6-2.4,1.1-3.6,1.6c-2.5,1.1-5.1,1.6-7.7,2c-0.5,0.1-1,0.1-1.5,0.2c-39.4,0-78.9,0-118.3,0c-0.2-0.6-0.4-0.6-0.9,0
		c-0.7,0-1.3,0-2,0c-0.5-0.1-0.9-0.2-1.4-0.3c-0.1-0.2-0.2-0.3-0.3-0.5c-0.1,0.1-0.2,0.2-0.2,0.4c-0.4,0-0.8-0.1-1.2-0.1
		c-0.1-0.2-0.2-0.4-0.2-0.5c-0.2,0.1-0.3,0.2-0.5,0.3c-0.2,0-0.4,0-0.6-0.1c-0.2-0.2-0.3-0.6-0.5-0.6c-0.2-0.1-0.6,0.1-0.8,0.2
		c0,0-0.1,0-0.1-0.1c-0.2-0.2-0.4-0.8-0.7-0.2c-0.4-0.1-0.9-0.3-1.3-0.4c0-0.3-0.1-0.6-0.5-0.2c-0.7-0.3-1.4-0.5-2.1-0.8
		c-0.1,0-0.1-0.1-0.2-0.1c0,0,0,0,0,0c-0.1-0.3-0.2-0.6-0.4-0.8c-0.2-0.1-0.5,0.1-0.7,0.1c-0.5-0.2-0.9-0.5-1.4-0.7
		c-0.2-0.1-0.3-0.2-0.5-0.3c-0.1-0.1-0.2-0.1-0.2-0.2c-0.1-0.8-0.2-0.9-0.9-0.6c0,0-0.1,0-0.1-0.1c0.1-0.8-0.4-0.7-1-0.7
		c-0.3-0.2-0.6-0.4-0.8-0.6c0.1-0.7-0.4-0.8-0.9-0.7l0,0c0.1-0.7-0.3-0.8-0.9-0.8c-0.8-0.8-1.5-1.5-2.3-2.3c0-0.2,0-0.4,0-0.6
		c-0.1-0.3-0.3-0.4-0.5,0c-0.1-0.1-0.2-0.2-0.2-0.3c0-0.5,0-1-0.7-0.9c-0.2-0.3-0.4-0.6-0.6-0.8c0-0.5,0.1-1-0.7-1
		c0,0,0-0.1-0.1-0.1c0.4-0.7,0-0.8-0.6-0.9c-0.1-0.1-0.1-0.2-0.2-0.3c0.4-0.6,0.1-0.7-0.4-0.8c-0.1-0.3-0.3-0.5-0.4-0.8
		c0.5-0.6,0.1-1.3-0.8-1.5c-0.5-1.3-1-2.6-1.5-3.9c0.3-0.4,0.1-0.7-0.3-0.9c0-0.1-0.1-0.1-0.1-0.2c0.1-0.2,0.4-0.5,0.3-0.7
		c0-0.3,0-0.8-0.6-0.7c0-0.2-0.1-0.4-0.1-0.6c0.1-0.2,0.2-0.4,0.3-0.5c-0.2-0.1-0.4-0.1-0.5-0.2c0-0.4-0.1-0.7-0.1-1.1
		c0.1-0.1,0.3-0.2,0.4-0.4c-0.2-0.1-0.3-0.2-0.5-0.4c-0.1-0.6-0.2-1.1-0.3-1.7c0-0.4,0-0.8,0-1.2c0.1-0.3,0.3-0.6,0.4-0.9
		c0-0.2-0.2-0.4-0.4-0.6c0-37.1,0-74.1,0-111.2c0.9-0.3,0.2-0.6,0-0.9c0-0.7,0-1.3,0-2c0.1-0.5,0.2-1,0.3-1.5
		c0.1-0.1,0.2-0.1,0.3-0.2c-0.1-0.1-0.1-0.1-0.2-0.2c0.1-0.5,0.1-0.9,0.2-1.4c0.1,0,0.2,0,0.3,0c0.1-0.1,0.2-0.1,0.3-0.2
		c-0.1-0.1-0.2-0.2-0.3-0.3c-0.1,0-0.2,0-0.2,0c0-0.2,0.1-0.4,0.1-0.6c0.1-0.1,0.3-0.2,0.4-0.3c0,0,0-0.1,0-0.1
		c0.4-0.4,0.4-0.6-0.1-0.9c0-0.1,0.1-0.3,0.1-0.4c0.2-0.1,0.4-0.2,0.5-0.3c-0.1-0.1-0.3-0.2-0.4-0.4c0.6-1.4,1.2-2.9,1.7-4.3
		c0,0.1,0,0.1,0,0.2c0,0.1,0.1,0.1,0.1,0.2c0-0.1,0.1-0.1,0.1-0.2c0.2-0.4,0.7-0.8,0.3-1.3c0.2-0.3,0.3-0.6,0.5-0.9
		c0.3,0,0.6,0,0.6-0.5c0.1-0.1,0.1-0.2,0.2-0.3c0.1-0.2,0.3-0.4,0.5-0.6c0.1-0.1,0.1-0.1,0.2-0.2c-0.1-0.1-0.2-0.1-0.3-0.2
		c0-0.1,0.1-0.2,0.1-0.2c0.2-0.1,0.4-0.1,0.6-0.2c0-0.1,0-0.2,0-0.3c0.1,0,0.1-0.1,0.2-0.1c-0.1,0-0.1-0.1-0.2-0.1l0,0
		c0.1-0.1,0.2-0.3,0.3-0.4c0.1,0,0.2-0.1,0.3-0.1c0-0.1-0.1-0.2-0.1-0.2c0.1-0.1,0.2-0.3,0.3-0.4l0,0c0.1,0.1,0.1,0.2,0.2,0.2
		c0.1-0.1,0.2-0.2,0.2-0.3c0-0.1,0-0.2,0-0.3c0-0.1,0-0.2,0-0.4c0.1-0.1,0.1-0.2,0.2-0.2c0.1,0,0.2,0,0.4,0c0.1-0.2,0.1-0.4,0.2-0.6
		c0.9-0.9,1.8-1.7,2.7-2.6c0.4,0.3,0.4,0.2,0.5-0.4c0.1-0.1,0.2-0.2,0.3-0.3c0,0,0.1,0,0.1,0c0.1,0.1,0.1,0.1,0.2,0.2
		c0-0.1,0.1-0.1,0.1-0.2c0,0,0.1-0.1,0.2-0.1c0.1,0,0.1-0.1,0.2-0.1c-0.1,0-0.1-0.1-0.2-0.1l0,0c0.1-0.1,0.3-0.2,0.4-0.3
		c0.1,0,0.2,0.1,0.2,0.1c0-0.1,0.1-0.2,0.1-0.3c0.1-0.1,0.3-0.2,0.4-0.3l0,0c0,0.1,0.1,0.1,0.1,0.2c0-0.1,0.1-0.1,0.1-0.2
		c0.1,0,0.2,0,0.3,0c0.1-0.2,0.1-0.4,0.2-0.6c0.1,0,0.2-0.1,0.2-0.1c0.1,0.1,0.1,0.2,0.2,0.3c0.1-0.1,0.1-0.1,0.2-0.2
		c0.2-0.2,0.4-0.3,0.6-0.5c0.1-0.1,0.2-0.2,0.3-0.3c0.2-0.1,0.3-0.3,0.5-0.4c0.3-0.2,0.6-0.3,0.9-0.5c0.7,0.4,1.1,0,1.5-0.5
		c0.1-0.1,0.2-0.3,0.3-0.4c1.2-0.5,2.4-0.9,3.6-1.4c0.5,0.7,0.7,0.2,0.9-0.2c0,0,0.1,0,0.1,0c0.3,0.1,0.6,0.3,0.9,0.3
		c0.3-0.1,0.4-0.4,0.6-0.7c0.1,0,0.3,0,0.4-0.1c0.2,0.1,0.3,0.3,0.5,0.4c0.1-0.2,0.3-0.5,0.4-0.7c0.2,0,0.5,0,0.7,0
		c0.6,0.5,0.8,0.4,1-0.2c0.4-0.1,0.8-0.2,1.2-0.3c0.5,0,1,0,1.5,0c0.2,0.1,0.4,0.2,0.6,0.3c0.5,0.6,0.7,0.2,0.9-0.3
		c38.5,0,77,0,115.5,0c0.2,0.5,0.4,0.9,0.9,0.3c0.1-0.1,0.4-0.2,0.6-0.3c0.4,0,0.9,0,1.4,0c0.4,0.1,0.9,0.2,1.4,0.3
		c0.2,0.5,0.5,0.7,0.9,0.1c0.3,0.1,0.6,0.1,0.9,0.2c0.2,0.2,0.3,0.4,0.5,0.6c0.1-0.2,0.3-0.3,0.4-0.5c0.1,0,0.3,0,0.4,0.1
		c0.2,0.7,0.4,0.7,0.9,0.3c0.3,0.1,0.6,0.2,0.9,0.3c0.1,0.1,0.2,0.3,0.3,0.4c0.1-0.1,0.2-0.2,0.3-0.3c1.3,0.5,2.6,0.9,3.9,1.4
		c0.1,0.9,1,1.4,2.1,1.1c0,0,0.1,0,0.1,0c0.1,0.6,1.1,1.5,1.7,1.5c0.1,0,0.3-0.1,0.4-0.2c0,0,0.1,0.1,0.1,0.1
		c-0.1,0.8,0.4,0.7,1,0.7c0.1,0,0.1,0.1,0.2,0.1c0,0.2-0.1,0.6,0,0.6c0.5,0.3,1,0.4,1.6,0.6c0,0,0,0,0,0c0.1,0.3,0.2,0.6,0.2,0.8
		c0.2-0.1,0.4-0.1,0.6-0.2c0.8,0.9,1.7,1.8,2.5,2.6c-0.5,0.2-0.2,0.4,0,0.6c0.1,0.1,0.4,0,0.6,0.1l0,0c-0.2,0.8,0.5,1.6,1.3,1.7
		c0,0,0.1,0,0.1,0.1c-0.4,0.9,0.5,1.3,0.8,1.9c0.3,0.5,0.4,1.4,1.3,1.3c0.1,0.1,0.2,0.3,0.3,0.4c-0.1,0.1-0.3,0.1-0.3,0.2
		c-0.1,0.7,0.6,1.6,1.3,1.7c0.5,1.2,0.9,2.5,1.4,3.7c-0.1,0.1-0.2,0.3-0.3,0.4c0.1,0.1,0.3,0.1,0.4,0.2c0,0.1,0.1,0.2,0.1,0.3
		c-0.1,0.3-0.3,0.5-0.3,0.8c0,0.4,0.2,0.7,0.7,0.7c0,0.1,0,0.3,0.1,0.4c-0.2,0.1-0.3,0.3-0.5,0.4c0.2,0.2,0.4,0.3,0.6,0.5
		c0.1,0.3,0.1,0.6,0.2,0.9c-0.4,0.3-0.5,0.6,0.2,0.7c0.1,0.5,0.2,1,0.3,1.5c0,0.6,0,1.2,0,1.8c-0.2,0.2-0.4,0.4-0.5,0.7
		C209.6,64.2,209.8,64.4,210,64.5z M51.3,149.2c-0.1,0.1-0.2,0.1-0.3,0.2c0.1,0.1,0.2,0.2,0.3,0.3c0.1,0,0.2,0,0.3,0
		c0,0.7,0,1.5,0,2.2c-0.2,0.1-0.4,0.2-0.6,0.2c0.1,0.2,0.2,0.3,0.3,0.5c0.1,0,0.1,0,0.2,0c0,0.6-0.1,1.3-0.1,1.9
		c-0.2,0.2-0.4,0.4-0.6,0.5c0.2,0.1,0.4,0.2,0.5,0.4c0,0.1,0,0.3,0,0.4c0.1,0.2,0.2,0.4,0.3,0.6c0.1-0.1,0.2-0.2,0.3-0.4
		c0.9,0,1.9,0,2.8,0c3.6,0,7.2,0,10.8,0c0.2,0.1,0.5,0.3,0.6,0.3c0.3-0.2,0.5-0.4,0.6-0.7c0-0.1-0.2-0.3-0.4-0.4c0-0.5,0-0.9,0-1.4
		c0.2-0.2,0.5-0.4,0.7-0.6c-0.2-0.1-0.4-0.3-0.6-0.4c0.1-0.9,0.1-1.7,0.2-2.6c0.2-0.2,0.4-0.3,0.6-0.5c-0.2-0.1-0.4-0.3-0.5-0.4
		c0-0.9,0.1-1.8,0.1-2.7c0.2-0.2,0.4-0.3,0.6-0.5c-0.2-0.1-0.4-0.3-0.5-0.4c0-1.1,0.1-2.2,0.1-3.3c0.2-0.2,0.4-0.3,0.6-0.5
		c-0.2-0.2-0.4-0.4-0.5-0.5c0-1.4,0.1-2.9,0.1-4.3c0.2-0.2,0.4-0.4,0.6-0.7c-0.2-0.1-0.4-0.3-0.5-0.4c0-1.7,0.1-3.4,0.1-5.1
		c0.2-0.1,0.4-0.3,0.6-0.4c-0.2-0.2-0.4-0.3-0.6-0.5c0-1.6,0.1-3.3,0.1-4.9c0.2-0.2,0.4-0.4,0.6-0.7c-0.2-0.1-0.4-0.3-0.5-0.4
		c0-1.6,0.1-3.2,0.1-4.8c0.2-0.1,0.4-0.3,0.6-0.4c-0.2-0.2-0.4-0.3-0.6-0.5c0-1.5,0.1-3.1,0.1-4.6c0.2-0.1,0.4-0.3,0.6-0.4
		c-0.2-0.2-0.4-0.3-0.6-0.5c0-2.1,0.1-4.3,0.1-6.4c0.2-0.2,0.5-0.4,0.6-0.6c0.1-0.4-0.2-0.5-0.5-0.5c0-2.3,0-4.6,0-6.9
		c0-2.2,0-4.4,0.1-6.6c0.3,0.1,0.6,0.2,0.9,0.3c0.1,0.6,0.2,1.2,0.3,1.8c-0.1,0.1-0.3,0.3-0.4,0.4c0.2,0.2,0.4,0.3,0.6,0.5
		c0.2,0.9,0.4,1.7,0.6,2.6c-0.4,0.3-0.5,0.6,0.1,0.7c0,0.3,0,0.6,0.1,0.9c0.1,0.1,0.2,0.2,0.3,0.3c0.1,0.2,0.1,0.5,0.2,0.7
		c-0.1,0.1-0.3,0.3-0.4,0.4c0.2,0.1,0.4,0.3,0.7,0.4c0.1,0.2,0.1,0.3,0.2,0.5c-0.2,0.1-0.4,0.2-0.5,0.4c0.2,0.2,0.5,0.4,0.7,0.5
		c0.1,0.6,0.2,1.2,0.3,1.8c-0.1,0.1-0.3,0.3-0.4,0.4c0.2,0.2,0.4,0.3,0.6,0.5c0,0.2,0.1,0.4,0.1,0.6c-0.1,0.1-0.2,0.2-0.3,0.4
		c0.2,0.1,0.3,0.2,0.5,0.2c0,0.2,0.1,0.5,0.1,0.7c-0.1,0.1-0.2,0.3-0.3,0.4c0.2,0.1,0.3,0.2,0.5,0.3c0.1,0.4,0.1,0.7,0.2,1.1
		c-0.1,0.2-0.3,0.3-0.4,0.5c0.2,0.1,0.4,0.3,0.7,0.4c0.1,0.4,0.2,0.8,0.3,1.2c-0.1,0.2-0.3,0.4-0.3,0.6c0,0.3,0.1,0.7,0.6,0.6
		c0.1,0.4,0.2,0.8,0.3,1.2c-0.1,0.1-0.3,0.3-0.4,0.4c0.2,0.1,0.4,0.3,0.7,0.4c0.1,0.6,0.3,1.2,0.4,1.8c-0.1,0.2-0.4,0.3-0.4,0.5
		c0.1,0.6,0.1,1.1,0.3,1.7c0.1,0.3,0.5,0.6,0.7,0.8c0.2,1,0.5,2,0.7,3c-0.1,0.1-0.3,0.2-0.3,0.3c0.1,0.7,0.2,1.4,0.4,2.1
		c0,0.1,0.4,0.2,0.6,0.3c0.2,1,0.4,1.9,0.7,2.9c-0.5,0.5-0.4,0.7,0.3,1.1c0.1,0.3,0.1,0.6,0.2,0.9c-0.1,0.2-0.3,0.3-0.4,0.5
		c0.2,0.1,0.4,0.3,0.7,0.4c0.1,0.4,0.1,0.7,0.2,1.1c-0.1,0.1-0.3,0.3-0.4,0.4c0.2,0.2,0.4,0.3,0.6,0.5c0,0.2,0.1,0.4,0.1,0.6
		c-0.1,0.3-0.3,0.6-0.3,0.8c0.1,0.2,0.4,0.4,0.6,0.5c0,0.2,0.1,0.3,0.1,0.5c-0.1,0.2-0.3,0.3-0.4,0.5c0.2,0.1,0.4,0.3,0.7,0.4
		c0.1,0.4,0.1,0.7,0.2,1.1c-0.1,0.2-0.2,0.3-0.3,0.5c0.2,0.1,0.3,0.2,0.5,0.3c0,0.2,0.1,0.4,0.1,0.6c-0.1,0.1-0.3,0.3-0.4,0.4
		c0.2,0.1,0.4,0.3,0.7,0.4c0,0.2,0,0.4,0.1,0.6c-0.6,0.5-0.4,1.1,0.4,1.5c0.1,0.5,0.2,1,0.3,1.5c-0.6,0.7-0.3,1.6,0.5,1.9
		c0.1,0.4,0.2,0.8,0.3,1.2c-0.1,0.2-0.3,0.3-0.4,0.5c0.2,0.1,0.4,0.3,0.7,0.4c0.1,0.4,0.1,0.7,0.2,1.1c-0.1,0.2-0.4,0.4-0.4,0.4
		c0.2,0.3,0.1,0.9,0.7,0.9c0.1,0.6,0.3,1.2,0.4,1.8c-0.5,0.5-0.2,2.2,0.4,2.5c0.1,0,0.1,0,0.2,0c0.1,0.6,0.3,1.1,0.4,1.7
		c0.1,0.7,0.6,1.1,1.3,1.1c4.1,0,8.3,0,12.4,0c0.5,0,1.1-0.2,1.6-0.2c0.1,0.1,0.2,0.3,0.3,0.4c0.2-0.2,0.5-0.4,0.6-0.7
		c0.1-0.3,0.2-0.7-0.4-0.7c0.1-0.3,0.2-0.7,0.3-1c0.3-1.2,0.6-2.3,1-3.5c0.7,0.1,0.6-0.5,0.8-0.9c0-0.1-0.3-0.3-0.4-0.5
		c0.1-0.3,0.1-0.6,0.2-0.9c0.2-0.1,0.4-0.2,0.5-0.3c-0.1-0.2-0.2-0.3-0.3-0.5c0.1-0.2,0.1-0.5,0.2-0.7c1.2,0.1,0.2-1.1,0.8-1.4
		c0,0,0-0.3-0.1-0.4c0,0-0.1,0-0.2-0.1c0.1-0.4,0.2-0.7,0.3-1.1c0.2-0.1,0.3-0.2,0.5-0.3c-0.1-0.1-0.2-0.2-0.3-0.3
		c0-0.1,0-0.2,0.1-0.3c0.2-0.2,0.5-0.3,0.7-0.5c-0.1-0.1-0.3-0.3-0.4-0.4c0.1-0.3,0.2-0.7,0.3-1c0.2,0,0.4-0.1,0.6-0.1
		c-0.1-0.2-0.3-0.4-0.4-0.5c0.1-0.3,0.1-0.6,0.2-0.9c0.7,0.1,0.6-0.5,0.8-0.9c0-0.1-0.3-0.3-0.4-0.5c0.1-0.3,0.1-0.6,0.2-0.9
		c0.7,0.1,0.7-0.5,0.8-0.9c0.1-0.2-0.2-0.4-0.4-0.6c0.1-0.4,0.2-0.8,0.3-1.2c0.2-0.2,0.6-0.3,0.7-0.5c0-0.3-0.1-0.7-0.2-1
		c0.1-0.3,0.1-0.6,0.2-0.9c0.6,0.1,0.7-0.4,0.8-0.8c0.1-0.2-0.2-0.5-0.3-0.7c0.1-0.4,0.2-0.9,0.3-1.3c0.7,0.1,0.6-0.5,0.8-0.9
		c0-0.1-0.3-0.3-0.4-0.5c0.1-0.3,0.1-0.6,0.2-0.9c0.7,0.1,0.6-0.5,0.8-0.9c0-0.1-0.2-0.3-0.4-0.5c0.1-0.2,0.1-0.5,0.2-0.7
		c0.2-0.2,0.5-0.3,0.7-0.5c-0.1-0.1-0.3-0.3-0.4-0.4c0.1-0.2,0.1-0.5,0.2-0.7c0.2-0.1,0.5-0.3,0.7-0.4c-0.1-0.2-0.3-0.4-0.4-0.6
		c0.1-0.2,0.1-0.5,0.2-0.7c0.2-0.2,0.6-0.3,0.6-0.5c0.1-0.2-0.1-0.6-0.2-0.8c0.1-0.5,0.2-1,0.4-1.5c0.6,0.1,0.6-0.5,0.7-0.8
		c0.1-0.2-0.2-0.5-0.3-0.7c0.1-0.4,0.2-0.9,0.3-1.3c0.6,0.1,0.7-0.4,0.8-0.8c0.1-0.4,0.3-0.9-0.2-1.2c0.1-0.5,0.2-1,0.4-1.5
		c0.6,0.1,0.6-0.5,0.7-0.8c0.1-0.2-0.2-0.5-0.3-0.7c0.1-0.5,0.2-0.9,0.3-1.4c0.8,0.1,0.7-0.6,0.8-1c0.6-2.1,1.1-4.2,1.6-6.4
		c0.1-0.4,0.4-0.9-0.3-1c0.2-0.7,0.3-1.3,0.5-2c0.7-0.1,0.7-0.7,0.8-1.2c0-0.2-0.2-0.4-0.4-0.6c0-0.3,0-0.7,0.1-1
		c0.1-0.1,0.2-0.1,0.3-0.2c0.1-0.1,0.3-0.3,0.4-0.4c-0.1-0.1-0.3-0.2-0.4-0.3c0-0.2,0.1-0.4,0.1-0.6c0.2-0.2,0.5-0.3,0.7-0.5
		c-0.1-0.1-0.3-0.3-0.4-0.4c0.1-0.4,0.1-0.7,0.2-1.1c0.3-0.1,0.5-0.2,0.8-0.3c0,3.7,0,7.5,0,11.2c-0.7,0-0.7,0.6-0.6,0.9
		c0,0.4-0.1,1,0.6,1c0,3.2-0.1,6.4-0.1,9.6c-0.2,0.2-0.4,0.5-0.5,0.8c0,0.1,0.3,0.3,0.5,0.4c0,0.8,0,1.5,0,2.3c0,3.1,0,6.2,0,9.3
		c-0.2,0.1-0.4,0.3-0.6,0.4c0.2,0.3,0.4,0.5,0.6,0.8c0,4.1,0.1,8.2,0.1,12.3c-0.2,0.1-0.4,0.3-0.6,0.4c0.2,0.3,0.4,0.5,0.6,0.8
		c0,4.2,0,8.4,0.1,12.6c-0.2,0.1-0.3,0.2-0.4,0.4c0,0,0.1,0.2,0.2,0.3c0.1-0.1,0.2-0.2,0.3-0.3c1.1,0.1,2.3,0.3,3.4,0.3
		c4.2-0.1,8.3,0.4,12.5-0.2c0,0.1,0,0.2,0,0.3c0.2,0.1,0.4,0.4,0.5,0.4c0.3-0.2,0.5-0.5,0.7-0.8c-0.2-0.1-0.4-0.2-0.5-0.4
		c0-0.6,0-1.3,0-1.9c0.2-0.1,0.4-0.3,0.5-0.4c-0.2-0.2-0.4-0.3-0.6-0.5c0-1.1-0.1-2.2-0.1-3.3c0.1-0.1,0.3-0.3,0.4-0.4
		c-0.1-0.1-0.3-0.2-0.4-0.4c0-1.1-0.1-2.2-0.1-3.3c0.2-0.2,0.4-0.3,0.5-0.5c-0.2-0.1-0.4-0.3-0.6-0.4c0-1.1-0.1-2.2-0.1-3.3
		c0.2-0.2,0.4-0.3,0.5-0.5c-0.2-0.1-0.4-0.3-0.6-0.4c0-1.1-0.1-2.2-0.1-3.3c0.2-0.1,0.4-0.3,0.5-0.4c-0.2-0.2-0.4-0.3-0.6-0.5
		c0-1.1-0.1-2.2-0.1-3.3c0.2-0.1,0.4-0.3,0.5-0.4c-0.2-0.2-0.4-0.3-0.6-0.5c-0.1-0.2-0.2-0.4-0.2-0.6c0-0.9,0-1.8,0-2.7
		c0.2-0.1,0.4-0.3,0.5-0.4c-0.2-0.2-0.4-0.3-0.6-0.5c0-1-0.1-2.1-0.1-3.1c0.2-0.2,0.4-0.3,0.5-0.5c-0.2-0.1-0.4-0.3-0.6-0.4
		c0-1.1-0.1-2.2-0.1-3.3c0.2-0.2,0.4-0.3,0.5-0.5c-0.2-0.1-0.4-0.3-0.6-0.4c0-1.1-0.1-2.2-0.1-3.3c0.2-0.1,0.4-0.3,0.5-0.4
		c-0.2-0.2-0.4-0.3-0.6-0.5c-0.1-0.3-0.2-0.5-0.2-0.8c0-0.8,0-1.7,0-2.5c0.2-0.1,0.4-0.3,0.6-0.4c-0.2-0.2-0.5-0.3-0.7-0.5
		c0-1.1,0-2.1,0-3.2c0.2-0.2,0.4-0.4,0.5-0.5c-0.2-0.2-0.4-0.3-0.6-0.5c0-1-0.1-2.1-0.1-3.1c0.2-0.2,0.3-0.3,0.5-0.5
		c-0.2-0.1-0.4-0.3-0.5-0.4c0-1.1-0.1-2.2-0.1-3.3c0.2-0.2,0.4-0.3,0.5-0.5c-0.2-0.1-0.4-0.3-0.6-0.4c0-1.1-0.1-2.2-0.1-3.3
		c0.2-0.1,0.4-0.3,0.5-0.4c-0.2-0.2-0.4-0.3-0.6-0.5c-0.1-1.1-0.1-2.2-0.2-3.3c0.2-0.1,0.4-0.3,0.6-0.4c-0.2-0.2-0.5-0.3-0.7-0.5
		c0-1,0-2.1,0.1-3.1c0.2-0.2,0.4-0.4,0.5-0.5c-0.2-0.2-0.4-0.3-0.6-0.5c0-1-0.1-2.1-0.1-3.1c0.2-0.2,0.3-0.3,0.5-0.5
		c-0.2-0.1-0.4-0.3-0.5-0.4c0-1.1-0.1-2.2-0.1-3.3c0.4,0,0.7-0.2,0.5-0.6c-0.2-0.4-0.6-0.9-1-1.2c-0.5-0.3-0.9-0.2-1.1,0.4
		c-1.4,0-2.9,0-4.3,0c-5.1,0-10.2,0-15.3,0c-0.2-0.2-0.6-0.6-0.7-0.5c-0.4,0.2-0.9,0.4-1.1,0.8c-0.1,0.2,0.1,0.7,0.2,1.1
		c-0.2,0.9-0.4,1.7-0.7,2.6c-0.2,0.2-0.5,0.3-0.6,0.5c-0.1,0.3,0.1,0.6,0.2,0.9c0,0.1-0.1,0.2-0.1,0.3c-0.7,0.2-0.8,0.8-0.3,1.3
		c0,0.1,0,0.2-0.1,0.3c-0.2,0.1-0.3,0.2-0.5,0.3c0.1,0.2,0.2,0.3,0.3,0.5c0,0.1,0,0.2-0.1,0.3c-0.2,0.1-0.3,0.2-0.5,0.3
		c0.1,0.2,0.2,0.3,0.3,0.5c0,0.1-0.1,0.2-0.1,0.3c-0.2,0.1-0.3,0.2-0.5,0.3c0.1,0.2,0.2,0.3,0.3,0.5c-0.1,0.2-0.1,0.5-0.2,0.7
		c-0.2,0.2-0.5,0.3-0.7,0.5c0.1,0.1,0.3,0.3,0.4,0.4c-0.1,0.3-0.2,0.6-0.2,0.9c-0.2,0.1-0.3,0.2-0.5,0.2c0.1,0.2,0.2,0.3,0.3,0.5
		c0,0.1-0.1,0.2-0.1,0.3c-0.2,0.1-0.3,0.2-0.5,0.3c0.1,0.2,0.2,0.3,0.3,0.5c-0.1,0.2-0.1,0.5-0.2,0.7c-0.2,0.2-0.5,0.3-0.7,0.5
		c0.1,0.1,0.3,0.3,0.4,0.4c0,0.1-0.1,0.2-0.1,0.3c-0.2,0.2-0.4,0.4-0.5,0.7c0,0.1,0.2,0.3,0.3,0.5c0,0.1,0,0.2-0.1,0.3
		c-0.2,0.2-0.5,0.3-0.7,0.5c0.1,0.1,0.3,0.3,0.4,0.4c0,0.1,0,0.2-0.1,0.3c-0.4-0.1-0.6,0.2-0.6,0.5c0,0.2,0.1,0.4,0.2,0.7
		c0,0.1,0,0.2-0.1,0.3c-0.2,0.2-0.5,0.3-0.7,0.5c0.1,0.1,0.3,0.3,0.4,0.4c0,0.1-0.1,0.2-0.1,0.3c-0.1,0.1-0.3,0.2-0.4,0.3
		c0.1,0.2,0.2,0.3,0.3,0.5c-0.1,0.2-0.1,0.5-0.2,0.7c-0.4,0.1-1.1,1.4-0.9,1.8c0.1,0.1,0.2,0.1,0.4,0.2c-0.1,0.3-0.2,0.6-0.2,0.9
		c-0.9,0-0.3,1-0.9,1.2c0,0,0,0.3,0,0.4c0.1,0.1,0.2,0.1,0.3,0.2c0,0.1-0.1,0.2-0.1,0.3c-0.1,0.1-0.3,0.2-0.4,0.3
		c0.1,0.2,0.2,0.3,0.3,0.5c-0.1,0.3-0.2,0.6-0.2,0.9c-0.2,0.1-0.3,0.2-0.5,0.3c0.1,0.1,0.2,0.2,0.3,0.3c-0.4,1.4-0.8,2.7-1.1,4.1
		c-0.2,0.1-0.3,0.2-0.5,0.2c0.1,0.2,0.2,0.3,0.3,0.5c-0.2,0.7-0.4,1.3-0.5,2c-0.2,0.1-0.3,0.2-0.5,0.2c0.1,0.2,0.2,0.3,0.3,0.5
		c0,0.1,0,0.1,0,0.2c-0.5,0.1-1.1,1.4-0.9,1.8c0.1,0.1,0.2,0.1,0.3,0.1c0,0.1-0.1,0.2-0.1,0.3c-0.1,0.1-0.3,0.1-0.4,0.2
		c0.1,0.2,0.2,0.3,0.3,0.5c0,0.1-0.1,0.3-0.1,0.4c-0.2,0.1-0.3,0.2-0.5,0.2c0.1,0.2,0.2,0.3,0.3,0.5c-0.2,0.4-0.4,0.9-0.6,1.3
		c0.1,0.1,0.1,0.2,0.2,0.3c-0.1,0.1-0.1,0.3-0.2,0.4c-0.4-0.1-0.4-0.1-0.8,1.2c0,0.1,0.2,0.4,0.4,0.5c-0.2,0.9-0.5,1.7-0.7,2.6
		c-0.1,0.1-0.2,0.1-0.3,0.2c-0.1,0-0.2,0.1-0.3,0.1c0.1,0,0.1,0.1,0.2,0.1c0.1,0.1,0.2,0.2,0.3,0.2c-0.1,0.3-0.2,0.6-0.3,1
		c-0.6-0.1-0.6,0.5-0.8,0.8c-0.1,0.2,0.2,0.5,0.3,0.7c-0.1,0.3-0.1,0.5-0.2,0.8c-0.7-0.1-0.7,0.5-0.8,0.9c0,0.2,0.2,0.4,0.4,0.5
		c-0.1,0.2-0.1,0.4-0.2,0.6c-0.3,0-0.7,0-1,0c-0.1-0.7-0.2-1.4-0.3-2.1c0.1-0.2,0.4-0.4,0.4-0.6c-0.2-0.6,0-1.5-0.9-1.7
		c-0.1-0.4-0.1-0.9-0.2-1.3c0.6-0.3,0.2-0.8,0.1-1.1c0-0.1-0.4-0.3-0.5-0.4c0-0.7-0.1-1.5-0.4-2.1c0.6-0.4,0.4-1.1-0.3-1.7
		c-0.1-0.5-0.3-0.9-0.4-1.4c-0.6-2.4-1.2-4.8-1.8-7.2c-0.6-2.5-1.2-5-1.9-7.5c0.1-0.1,0.2-0.2,0.2-0.2c-0.2-0.9-0.3-1.8-0.5-2.7
		c0-0.2-0.3-0.3-0.4-0.4c-0.4-1.6-0.8-3.3-1.2-4.9c0.1-0.3,0.2-0.6,0.2-0.8c-0.2-0.9-0.4-1.7-0.7-2.6c-0.1-0.4-0.4-0.8-0.7-1.3
		c-0.1-0.1-0.2-0.2-0.2-0.4c-0.4-1.9-0.9-3.7-1.3-5.6c0.1-0.1,0.3-0.2,0.3-0.2c-0.3-0.7-0.6-1.3-0.9-2c-0.2-1-0.5-2-0.7-3
		c0.3-0.7,0-1.8-0.7-2.3c0-0.1-0.1-0.3-0.1-0.4c0.4-0.4,0.1-0.7-0.2-0.9c-0.3-0.2-0.6-0.3-0.6,0.2c-0.4,0-0.8,0-1.2,0
		c-6.5,0-13.1,0-19.6,0c-0.4,0-0.7,0-1.1,0.1c-0.2,0.2-0.5,0.3-0.6,0.5c-0.1,0.1,0.1,0.4,0.2,0.6c-0.1,0.8-0.1,1.5-0.2,2.3
		c-0.4,0.1-0.4,0.3,0,0.4c0,0.8-0.1,1.6-0.1,2.4c-0.4,0.1-0.4,0.3,0,0.4c0,0.8-0.1,1.6-0.1,2.4c-0.4,0.1-0.4,0.3,0,0.4
		c0,0.4-0.1,0.8-0.1,1.2c-0.1,1.4-0.1,2.8-0.2,4.2c-0.4,0.1-0.4,0.3,0,0.4c0,0.8-0.1,1.5-0.1,2.3c-0.1,0.1-0.3,0.2-0.4,0.4
		c0.1,0.1,0.3,0.2,0.4,0.2c0,0.7-0.1,1.5-0.1,2.2c-0.1,0.1-0.3,0.2-0.4,0.4c0.1,0.1,0.3,0.2,0.4,0.2c0,0.7-0.1,1.5-0.1,2.2
		c-0.1,0.1-0.3,0.3-0.4,0.4c0.1,0.1,0.3,0.2,0.4,0.4c0,0.7-0.1,1.4-0.1,2.1c-0.1,0.1-0.3,0.2-0.4,0.4c0.1,0.1,0.3,0.2,0.4,0.2
		c0,0.7,0,1.5,0,2.2c-0.2,0.1-0.4,0.2-0.5,0.3c0.1,0.2,0.3,0.3,0.4,0.5c-0.1,0.7-0.1,1.4-0.2,2.1c-0.4,0.2-0.4,0.4,0,0.6
		c0,0.4-0.1,0.8-0.1,1.2c-0.1,1.4-0.1,2.7-0.2,4.1c-0.1,0-0.1,0.1-0.2,0.1c0.1,0.1,0.1,0.1,0.2,0.2c0,0.9-0.1,1.7-0.1,2.6
		c-0.4,0.1-0.4,0.3,0,0.4c0,0.8-0.1,1.6-0.1,2.4c-0.4,0.1-0.4,0.3,0,0.4c0,0.8-0.1,1.6-0.1,2.4c-0.4,0.1-0.4,0.3,0,0.4
		c-0.1,1.8-0.2,3.6-0.3,5.4c-0.4,0.1-0.4,0.3,0,0.4c0,0.8-0.1,1.5-0.1,2.3c-0.4,0.2-0.4,0.4,0,0.6c0,0.8-0.1,1.5-0.1,2.3
		c-0.1,0.1-0.3,0.2-0.4,0.4c0.1,0.1,0.3,0.2,0.4,0.2c0,0.7-0.1,1.5-0.1,2.2c-0.6,0.2-0.4,0.4-0.1,0.8c0.1,0.7,0.1,1.4,0.2,2.1
		c-0.2,0.1-0.4,0.2-0.6,0.3c0.1,0.1,0.3,0.2,0.4,0.3c0,0.7,0,1.5,0,2.2c-0.2,0.1-0.4,0.2-0.6,0.3c0.1,0.1,0.3,0.2,0.4,0.3
		c0,0.7-0.1,1.4-0.1,2.1c-0.1,0.1-0.2,0.2-0.3,0.3c-0.1,0.1-0.2,0.1-0.3,0.2c0.1,0.1,0.2,0.2,0.3,0.3c0.1,0.1,0.1,0.2,0.2,0.3
		c0,0.6,0,1.2,0,1.8C51.5,149.1,51.4,149.2,51.3,149.2z M187.5,106.1c-0.1-0.3-0.3-0.6-0.4-0.8c0-0.1,0-0.1-0.1-0.2
		c0.4-0.2,0.4-0.4,0.2-0.7c-0.7-0.9-1.4-1.9-2.1-2.8c-0.1-0.2-0.6-0.1-0.8-0.1c-0.3-0.3-0.7-0.7-1-1c-0.2-0.2-0.5-0.3-0.8-0.4
		c-0.2-0.2-0.3-0.5-0.5-0.7c-0.6-0.4-1.2-0.7-1.8-1.1c-0.2-0.1-0.3-0.2-0.5-0.3c-0.1-0.1-0.1-0.2-0.2-0.2c0,0,0-0.1,0.1-0.1
		c0,0-0.1,0-0.1,0.1c-0.2-0.1-0.4-0.3-0.5-0.4c0,0-0.1-0.1-0.1-0.1c-0.1,0-0.1,0-0.2-0.1c-0.1,0-0.1-0.1-0.2-0.1
		c-0.2-0.1-0.5-0.2-0.7-0.3c0,0-0.1-0.1-0.1-0.1c-0.3-0.1-0.6-0.2-0.9-0.3c0,0-0.1-0.1-0.1-0.1c-0.4-0.1-0.8-0.3-1.2-0.4
		c-0.4-0.1-0.8-0.3-1.2-0.4c-0.9-0.2-1.9-0.4-2.8-0.7c-0.7-0.2-1.4-0.4-2.1-0.6c-0.1,0-0.2,0-0.3,0.1c-0.3,0.1-0.6,0.2-0.9,0.2
		c-1,0-1.9-0.1-2.9-0.1c-0.8,0-1.6-0.1-2.4-0.1c-0.2,0-0.3,0.1-0.5,0.1c-0.2,0.1-0.4,0.2-0.6,0.2c-0.8,0.2-1.7,0.3-2.5,0.4
		c-0.1,0-0.2,0.1-0.3,0.1c-0.2,0-0.5,0-0.7,0c-0.2,0.1-0.3,0.2-0.5,0.3c-0.4,0.1-0.8,0.3-1.2,0.4c-0.1-0.1-0.1-0.1-0.2-0.2
		c0,0.1-0.1,0.1-0.1,0.2c-0.3,0.1-0.6,0.1-0.9,0.2c-0.1,0.1-0.2,0.2-0.3,0.3c-1,0.5-2,0.9-3,1.4c0,0-0.1,0.1-0.1,0.1
		c-0.8,0.5-1.5,0.9-2.3,1.4c-0.1,0.1-0.2,0.3-0.3,0.4c-0.4,0.3-0.8,0.5-1.2,0.8c-0.1,0.1-0.2,0.1-0.2,0.2c-0.2,0.2-0.4,0.4-0.6,0.6
		c-0.2,0.2-0.4,0.4-0.6,0.6c0,0-0.1,0-0.1,0c-0.2,0-0.6-0.1-0.7,0c-0.1,0.3-0.1,0.6-0.2,0.9c0,0.1-0.1,0.1-0.1,0.2
		c-0.1,0.1-0.3,0.3-0.4,0.4c0,0-0.1,0-0.1,0c-0.4,0-1.5,0.8-1.6,1.2c0,0.1,0.1,0.3,0.2,0.5c-0.1,0.2-0.3,0.4-0.4,0.5
		c-0.2,0-0.4,0-0.6,0c0,0.3,0,0.5,0,0.8c-0.1,0.1-0.1,0.3-0.2,0.4c0,0-0.1,0-0.1,0c-1,0.1-1.7,1.3-1.4,2.3c-0.3,0.6-0.6,1.2-0.9,1.8
		c-0.8,0.1-1,0.3-0.5,1c-0.1,0.3-0.2,0.7-0.3,1c-0.1,0.3-0.2,0.7-0.4,1c-0.1,0.2-0.1,0.4-0.2,0.6c-0.1,0.1-0.1,0.3-0.2,0.4
		c-0.2,0.2-0.5,0.3-0.7,0.5c0.1,0.1,0.3,0.3,0.4,0.4c0,0.2-0.1,0.4-0.1,0.6c-0.1,0.3-0.2,0.6-0.3,0.9c-0.2,0.2-0.4,0.4-0.7,0.5
		c0.2,0.1,0.4,0.2,0.6,0.4c-0.1,0.2-0.2,0.5-0.2,0.7c0,0.3-0.1,0.6-0.1,0.9c0,0-0.1,0.1,0,0.1c-0.1,0.2-0.1,0.4-0.2,0.6
		c0,0.1,0,0.2,0,0.3c0,0.2,0,0.5-0.1,0.7c0,0.3,0,0.6-0.1,0.9c0,0.2,0,0.4-0.1,0.6c0,0.8-0.1,1.6-0.1,2.4c0,0.4,0,0.8,0,1.2
		c0,0.8,0.1,1.6,0.1,2.4c0,0.3,0,0.5,0,0.8c0.1,0.6,0.1,1.2,0.2,1.8c0.2,1.2,0.5,2.4,0.7,3.6c0.1,0.2,0.1,0.4,0.2,0.6
		c0.1,0.2,0.2,0.5,0.2,0.7c0,0.1,0,0.1,0,0.2c0.2,0.8,0.5,1.5,0.7,2.3c0.1,0.2,0.2,0.5,0.3,0.7c0.1,0.2,0.2,0.4,0.3,0.6
		c0.1,0.2,0.2,0.4,0.2,0.6c0.3,0.5,0.5,1,0.8,1.5c0.1,0.2,0.2,0.3,0.3,0.5c0.2,0.4,0.5,0.8,0.7,1.2c0.2,0.3,0.4,0.6,0.6,0.9
		c0.5,0.6,0.9,1.2,1.4,1.9l0,0c0.3,0.3,0.6,0.6,0.8,0.9c0.2,0.3,0.4,0.7,0.7,0.9c2,1.7,4.1,3.4,6.5,4.6c0,0,0.1,0.1,0.1,0.1
		c1.3,0.5,2.5,1.1,3.8,1.5c1.9,0.5,3.7,1.3,5.7,1.2c0.8,0,1.5,0.4,2.3,0.4c2.5,0.1,4.9,0,7.4,0c0.1,0.2,0.3,0.4,0.4,0.6
		c0.2-0.2,0.3-0.5,0.5-0.7c0.3,0,0.6,0.1,0.9,0.1c0.6,0.6,0.7,0.6,1.1-0.1c0.1,0,0.2,0,0.3,0c0.6,0.6,0.7,0.6,1.1-0.1
		c0.4-0.1,0.8-0.1,1.2-0.2c0.1,0.2,0.3,0.3,0.4,0.5c0.2-0.2,0.3-0.4,0.5-0.6c0.3,0,0.5-0.1,0.8-0.1c0.5,0.4,2.4,0.1,2.7-0.4
		c0-0.1,0-0.2,0-0.3c0,0,0,0,0.1,0c0.6,0.5,0.9,0.4,1.1-0.4c0.4-0.1,0.8-0.3,1.2-0.4c0.7,0.5,1.7,0.2,1.8-0.7l0,0
		c0.4,0,0.7,0.1,1.1,0c0.1,0,0.1-0.4,0.1-0.6c0.1,0,0.1-0.1,0.2-0.1c0.3-0.1,0.6-0.2,0.8-0.3c-0.1-0.2-0.3-0.3-0.4-0.5
		c0-3.9,0-7.8,0-11.7c-0.1-0.3,0.3-0.9-0.4-0.9c0,0-0.1,0-0.1,0c-0.5-0.4-1.4-0.1-1.5,0.6c-0.1,0-0.1,0.1-0.2,0.1
		c-0.4,0.1-0.8,0.3-1.2,0.4c-0.2,0.1-0.4,0.1-0.6,0.2c-0.2,0-0.4,0.1-0.6,0.1c-0.2-0.1-0.3-0.2-0.5-0.3c-0.1,0.2-0.2,0.4-0.3,0.5
		c-0.2,0-0.3,0-0.5,0c-0.5-0.4-0.6-0.4-0.9,0.3c-0.5,0.1-1,0.2-1.5,0.3c-0.1-0.2-0.3-0.4-0.4-0.5c-0.1,0.2-0.2,0.4-0.3,0.6
		c0,0,0,0.1,0,0.1c-0.5,0.1-1.1,0.1-1.6,0.2c-0.1-0.1-0.3-0.3-0.4-0.4c-0.1,0.1-0.2,0.3-0.3,0.4c-0.1,0.1-0.3,0.2-0.4,0.2
		c-1.9,0-3.7,0-5.6,0c-0.1-0.1-0.2-0.3-0.4-0.4c-0.1,0.1-0.2,0.3-0.2,0.4c-0.4,0-0.9,0-1.3,0c-0.1,0-0.2-0.1-0.3-0.1
		c-0.4-0.1-0.8-0.1-1.2-0.2c-0.1-0.2-0.2-0.4-0.4-0.5c-0.1,0.1-0.2,0.3-0.2,0.4c-0.2-0.1-0.4-0.1-0.6-0.2c-0.1-0.8-1.6-1.2-2.4-0.8
		c-0.6-0.3-1.3-0.6-1.9-0.9c0-0.9-0.2-1-1.4-0.9c-0.2-0.2-0.4-0.3-0.6-0.5c0.2-0.8,0-1.1-1.1-1.1c0-0.1-0.1-0.1-0.1-0.2
		c-0.2-0.5-0.4-1.1-0.7-1.6c-0.2-0.3-0.3-0.8-0.8-0.7c-0.1-0.3-0.3-0.6-0.4-0.9c0.3-0.8,0-1.7-0.7-1.8c-0.1-0.4-0.3-0.9-0.4-1.3
		c0.2-0.1,0.4-0.2,0.5-0.4c-0.2-0.2-0.5-0.4-0.7-0.5c0-0.7,0.5-0.4,0.8-0.4c8.5,0,17,0,25.6,0.1c0.8,0,1.5-0.1,2.3-0.1
		c0.1,0.1,0.2,0.3,0.2,0.4c0.1-0.1,0.2-0.3,0.4-0.4c2.1-0.1,4.3-0.2,6.4-0.3c0.9,0,1.3-0.4,1.4-1.4c0.2-0.2,0.5-0.3,0.7-0.5
		c-0.2-0.1-0.4-0.3-0.5-0.4c0-0.3,0-0.5,0.1-0.8c0.2-0.1,0.3-0.1,0.5-0.2c-0.1-0.2-0.3-0.3-0.4-0.5c0-0.6,0-1.1,0.1-1.7
		c0.2-0.2,0.4-0.3,0.6-0.5c-0.2-0.1-0.4-0.2-0.5-0.4c0-1.5,0-2.9,0-4.4l0.1,0l0.1,0c0.5-0.5,0.4-0.6-0.3-0.9c0-0.2,0-0.5,0-0.7
		c0.1,0,0.1,0,0.2,0c0.1-0.1,0.3-0.3,0.4-0.4c-0.2-0.2-0.5-0.3-0.7-0.5c0-0.1,0-0.1,0-0.2c-0.1-0.1-0.1-0.3-0.2-0.4
		c0-0.1,0-0.3,0-0.4c0.2-0.1,0.5-0.3,0.5-0.4c-0.1-0.5,0.1-1.2-0.7-1.3c-0.1-0.1-0.3-0.1-0.4-0.2c0-0.1,0-0.1,0-0.2
		c0.1-0.1,0.2-0.2,0.3-0.3c-0.1-0.1-0.3-0.1-0.4-0.2c0,0,0-0.1,0-0.1c0.1,0,0.2,0,0.3,0c0.1-0.1,0.3-0.3,0.4-0.4
		c-0.2-0.2-0.4-0.3-0.6-0.5c-0.1,0-0.3,0-0.4,0c-0.1-0.5-0.1-0.9-0.2-1.4c0-0.1,0-0.3,0-0.4c0.3-0.4,0.1-1.4-0.4-1.6
		c-0.1,0-0.3,0.1-0.4,0.2c-0.1,0-0.1-0.1-0.2-0.1c0-0.1-0.1-0.1-0.1-0.2c-0.2-0.4-0.3-0.8-0.5-1.2
		C187.9,106.9,187.7,106.5,187.5,106.1L187.5,106.1C187.5,106.2,187.5,106.1,187.5,106.1z"/>
	<path class="st0" d="M179.2,32.2c-0.2,0.1-0.4,0.2-0.6,0.3c-0.5,0.6-0.7,0.2-0.9-0.3C178.2,32.2,178.8,32.2,179.2,32.2z"/>
	<path class="st0" d="M62.2,32.2c-0.2,0.5-0.4,0.9-0.9,0.3c-0.1-0.1-0.4-0.2-0.6-0.3C61.2,32.2,61.8,32.2,62.2,32.2z"/>
	<path class="st0" d="M210,64.5c-0.2-0.1-0.4-0.3-0.5-0.4c0.2-0.2,0.4-0.4,0.5-0.7C210,63.8,210,64.2,210,64.5z"/>
	<path class="st0" d="M30,175.5c0.1,0.2,0.4,0.4,0.4,0.6c0,0.3-0.2,0.6-0.4,0.9C30,176.5,30,176,30,175.5z"/>
	<path class="st0" d="M61.2,207.8c0.5-0.6,0.7-0.6,0.9,0C61.8,207.8,61.5,207.8,61.2,207.8z"/>
	<path class="st0" d="M30,63.5c0.2,0.3,0.9,0.6,0,0.9C30,64.1,30,63.8,30,63.5z"/>
	<path class="st1" d="M210,176.6c0-0.2,0-0.3,0-0.4C210,176.2,210,176.4,210,176.6z"/>
	<path class="st2" d="M102.9,95.1c0-0.1,0-0.2,0.1-0.3c0.1-0.4,0.2-0.8,0.3-1.2c0-0.1,0.1-0.2,0.1-0.3c0.1-0.3,0.2-0.6,0.3-0.9
		c0.1-0.2,0.1-0.5,0.2-0.7c0.1-0.3,0.1-0.5,0.2-0.8c0-0.1,0.1-0.2,0.1-0.3c0.1-0.2,0.1-0.5,0.2-0.7c0.1-0.3,0.2-0.6,0.2-0.9
		c0.1-0.3,0.2-0.6,0.3-0.9c0.1-0.2,0.1-0.5,0.2-0.7c0.1-0.3,0.1-0.5,0.2-0.8c0-0.1,0.1-0.2,0.1-0.3c0.1-0.2,0.2-0.5,0.2-0.7
		c0-0.1,0-0.2,0.1-0.3c0.1-0.2,0.2-0.5,0.2-0.7c0-0.1,0-0.2,0.1-0.3c0.1-0.4,0.2-0.9,0.3-1.3c0-0.1,0.1-0.2,0.1-0.3
		c0.1-0.4,0.3-0.9,0.4-1.3c0.2-0.9,0.4-1.7,0.7-2.6c0.5-1.3,0.5-1.3,1.7-1.4c5.1,0,10.2,0,15.3,0c1.4,0,2.9,0,4.3,0
		c1.3,0.1,1.4,0.2,1.5,1.4c0,1.1,0.1,2.2,0.1,3.3c0,0.3,0,0.6,0,0.9c0,1,0.1,2.1,0.1,3.1c0,0.4,0,0.7,0,1.1c0,1,0,2.1-0.1,3.1
		c0.1,0.3,0.1,0.6,0.2,0.9c0.1,1.1,0.1,2.2,0.2,3.3c0,0.3,0,0.6,0,0.9c0,1.1,0.1,2.2,0.1,3.3c0,0.3,0,0.6,0,0.9
		c0,1.1,0.1,2.2,0.1,3.3c0,0.3,0,0.6,0,0.9c0,1,0.1,2.1,0.1,3.1c0,0.4,0,0.7,0,1.1c0,1.1,0,2.1,0,3.2c-0.3,0.3-0.1,0.6,0.1,0.9
		c0,0.8,0,1.7,0,2.5c0,0.3,0.1,0.5,0.2,0.8c0,0.3,0,0.6,0,0.9c0,1.1,0.1,2.2,0.1,3.3c0,0.3,0,0.6,0,0.9c0,1.1,0.1,2.2,0.1,3.3
		c0,0.3,0,0.6,0,0.9c0,1,0.1,2.1,0.1,3.1c0,0.3,0,0.6,0,0.9c0,0.9,0,1.8,0,2.7c0,0.2,0.1,0.4,0.2,0.6c0,0.3,0,0.6,0,0.9
		c0,1.1,0.1,2.2,0.1,3.3c0,0.3,0,0.6,0,0.9c0,1.1,0.1,2.2,0.1,3.3c0,0.3,0,0.6,0,0.9c0,1.1,0.1,2.2,0.1,3.3c0,0.3,0,0.6,0,0.9
		c0,1.1,0.1,2.2,0.1,3.3c0,0.3,0,0.5,0,0.8c0,1.1,0.1,2.2,0.1,3.3c0,0.3,0,0.6,0,0.9c0,0.6,0,1.3,0,1.9c-0.1,0.2-0.2,0.3-0.3,0.5
		c-0.1,0-0.2,0-0.3,0c-4.1,0.6-8.3,0.1-12.5,0.2c-1.1,0-2.3-0.2-3.4-0.3c0-0.2-0.1-0.3-0.1-0.5c0-4.2,0-8.4-0.1-12.6
		c0-0.4,0-0.8,0-1.2c0-4.1-0.1-8.2-0.1-12.3c0-0.4,0-0.8,0-1.2c0-3.1,0-6.2,0-9.3c0-0.8,0-1.5,0-2.3c0-0.4,0-0.8,0-1.2
		c0-3.2,0.1-6.4,0.1-9.6c0-0.7,0-1.3,0-2c0-3.7,0-7.5,0-11.2c0-0.1,0-0.2,0-0.3c0-0.4,0.1-0.7,0.1-1.1c0-0.4,0-0.7,0-1.1
		c-0.1,0-0.2,0-0.3-0.1c-0.1,0.2-0.2,0.5-0.3,0.7c-0.1,0.1-0.1,0.2-0.2,0.3c0,0.3-0.1,0.6-0.1,0.9c0,0.3-0.1,0.6-0.1,0.9
		c-0.1,0.4-0.1,0.7-0.2,1.1c-0.1,0.3-0.2,0.6-0.3,0.9c0,0.2-0.1,0.4-0.1,0.6c0,0.2-0.1,0.3-0.1,0.5c-0.1,0.1-0.2,0.3-0.3,0.4
		c0,0.3,0,0.7-0.1,1c-0.1,0.6-0.3,1.2-0.4,1.8c-0.2,0.7-0.3,1.3-0.5,2c-0.4,1.7-0.8,3.3-1.3,5c-0.3,1.1-0.6,2.3-0.9,3.4
		c-0.1,0.5-0.2,0.9-0.3,1.4c-0.1,0.5-0.3,1-0.4,1.5c-0.1,0.5-0.2,1-0.4,1.5c-0.2,0.7-0.4,1.3-0.6,2c-0.1,0.4-0.2,0.9-0.3,1.3
		c-0.1,0.5-0.3,1-0.4,1.5c-0.1,0.5-0.2,1-0.4,1.5c-0.1,0.5-0.3,0.9-0.4,1.4c-0.1,0.2-0.1,0.5-0.2,0.7c-0.1,0.3-0.2,0.7-0.3,1
		c-0.1,0.2-0.1,0.5-0.2,0.7c-0.1,0.3-0.2,0.6-0.3,0.9c-0.1,0.2-0.1,0.5-0.2,0.7c-0.1,0.5-0.3,0.9-0.4,1.4c-0.1,0.3-0.1,0.6-0.2,0.9
		c-0.1,0.5-0.3,0.9-0.4,1.4c-0.1,0.4-0.2,0.9-0.3,1.3c-0.1,0.5-0.3,1-0.4,1.5c-0.1,0.3-0.1,0.6-0.2,0.9c-0.1,0.5-0.3,1-0.4,1.5
		c-0.1,0.4-0.2,0.8-0.3,1.2c-0.1,0.5-0.3,1-0.4,1.5c-0.1,0.3-0.1,0.6-0.2,0.9c-0.1,0.5-0.3,0.9-0.4,1.4c-0.1,0.3-0.1,0.6-0.2,0.9
		c-0.1,0.2-0.1,0.4-0.2,0.7c-0.1,0.3-0.2,0.7-0.3,1c-0.1,0.3-0.2,0.6-0.3,0.9c0,0.1,0,0.2-0.1,0.3c-0.1,0.2-0.1,0.4-0.2,0.6
		c-0.1,0.4-0.2,0.7-0.3,1.1c-0.2,0.6-0.3,1.2-0.5,1.8c-0.1,0.2-0.1,0.5-0.2,0.7c-0.1,0.3-0.2,0.5-0.3,0.8c-0.1,0.3-0.1,0.6-0.2,0.9
		c-0.1,0.5-0.3,0.9-0.4,1.4c-0.3,1.2-0.6,2.3-1,3.5c-0.1,0.3-0.2,0.7-0.3,1c-0.2,0.3-0.3,0.6-0.5,0.9c-0.5,0.1-1.1,0.2-1.6,0.2
		c-4.1,0-8.3,0-12.4,0c-0.7,0-1.1-0.4-1.3-1.1c-0.1-0.6-0.3-1.1-0.4-1.7c-0.2-0.8-0.4-1.7-0.6-2.5c-0.1-0.6-0.3-1.2-0.4-1.8
		c-0.1-0.4-0.2-0.9-0.3-1.3c-0.1-0.4-0.1-0.7-0.2-1.1c-0.1-0.3-0.2-0.6-0.2-0.9c-0.1-0.4-0.2-0.8-0.3-1.2c-0.2-0.6-0.3-1.3-0.5-1.9
		c-0.1-0.5-0.2-1-0.3-1.5c-0.1-0.5-0.3-1-0.4-1.5c0-0.2,0-0.4-0.1-0.6c-0.1-0.3-0.2-0.6-0.3-0.9c0-0.2-0.1-0.4-0.1-0.6
		c-0.1-0.3-0.1-0.5-0.2-0.8c-0.1-0.4-0.1-0.7-0.2-1.1c-0.1-0.3-0.2-0.6-0.2-0.9c0-0.2-0.1-0.3-0.1-0.5c-0.1-0.4-0.3-0.9-0.4-1.3
		c0-0.2-0.1-0.4-0.1-0.6c-0.1-0.3-0.1-0.6-0.2-0.9c-0.1-0.4-0.1-0.7-0.2-1.1c-0.1-0.3-0.2-0.6-0.2-0.9c-0.1-0.3-0.1-0.6-0.2-0.9
		c-0.1-0.4-0.2-0.7-0.3-1.1c-0.2-1-0.4-1.9-0.7-2.9c-0.2-0.9-0.5-1.8-0.7-2.7c-0.2-1-0.5-2-0.7-3c-0.2-1-0.5-2-0.7-3
		c-0.1-0.6-0.3-1.2-0.4-1.8c-0.1-0.3-0.2-0.6-0.3-0.9c-0.1-0.4-0.2-0.8-0.3-1.2c-0.1-0.4-0.2-0.8-0.3-1.2c-0.1-0.4-0.2-0.8-0.3-1.2
		c-0.1-0.3-0.2-0.6-0.2-0.9c-0.1-0.4-0.1-0.7-0.2-1.1c-0.1-0.2-0.2-0.5-0.2-0.7c0-0.2-0.1-0.5-0.1-0.7c-0.1-0.2-0.1-0.4-0.2-0.6
		c0-0.2-0.1-0.4-0.1-0.6c-0.1-0.3-0.1-0.6-0.2-0.9c-0.1-0.6-0.2-1.2-0.3-1.8c0-0.3,0.3-0.7-0.2-0.9c-0.1-0.2-0.1-0.3-0.2-0.5
		c-0.1-0.3-0.1-0.6-0.2-0.9c-0.1-0.2-0.1-0.5-0.2-0.7c-0.1-0.1-0.2-0.2-0.3-0.3c0-0.3,0-0.6-0.1-0.9c0-0.2-0.1-0.5-0.1-0.7
		c-0.2-0.9-0.4-1.7-0.6-2.6c-0.1-0.3-0.1-0.6-0.2-0.9c-0.1-0.6-0.2-1.2-0.3-1.8c-0.1-0.3-0.2-0.6-0.2-0.9c0-0.2-0.1-0.3-0.1-0.5
		c0.1-0.2,0.2-0.4,0.3-0.6c-0.1-0.1-0.3-0.3-0.4-0.4c-0.1-0.2-0.1-0.5-0.2-0.7c0,0-0.1,0-0.1,0c0,0.6,0,1.2,0,1.7c0,0.2,0,0.4,0,0.6
		c0,0.1,0,0.3,0,0.4c0,2.2,0,4.4-0.1,6.6c0,2.3,0,4.6,0,6.9c0,0.4,0,0.7,0,1.1c0,2.1-0.1,4.3-0.1,6.4c0,0.3,0,0.6,0,0.9
		c0,1.5-0.1,3.1-0.1,4.6c0,0.3,0,0.6,0,0.9c0,1.6-0.1,3.2-0.1,4.8c0,0.4,0,0.7,0,1.1c0,1.6-0.1,3.3-0.1,4.9c0,0.3,0,0.6,0,0.9
		c0,1.7-0.1,3.4-0.1,5.1c0,0.4,0,0.7,0,1.1c0,1.4-0.1,2.9-0.1,4.3c0,0.4,0,0.7,0,1.1c0,1.1-0.1,2.2-0.1,3.3c0,0.3,0,0.6,0,0.9
		c0,0.9-0.1,1.8-0.1,2.7c0,0.3,0,0.6,0,0.9c-0.1,0.9-0.1,1.7-0.2,2.6c-0.4,0.3-0.5,0.6-0.1,1c0,0.5,0,0.9,0,1.4
		c-0.1,0.1-0.2,0.2-0.4,0.3c-0.1,0.1-0.1,0.1-0.2,0.2c0,0-0.1,0.1-0.1,0.1c-0.1,0.1-0.1,0.2-0.2,0.3l0,0.1c-3.6,0-7.2,0-10.8,0
		c-0.9,0-1.9,0-2.8,0c-0.2-0.1-0.4-0.1-0.6-0.2c0-0.1,0-0.3,0-0.4c0.6-0.3,0.3-0.6,0.1-0.9c0-0.6,0.1-1.3,0.1-1.9
		c0.1-0.2,0.2-0.3,0.3-0.5c-0.1-0.1-0.1-0.2-0.2-0.3c0-0.7,0-1.5,0-2.2c0-0.2,0-0.3,0-0.5c0-0.1,0-0.2,0-0.3c0-0.6,0-1.2,0-1.8
		c0.1-0.3,0.2-0.5,0.3-0.8c0-0.1-0.1-0.2-0.1-0.3c0-0.7,0.1-1.4,0.1-2.1c0.1-0.2,0.1-0.4,0.2-0.6c0-0.7,0-1.5,0-2.2
		c0.1-0.2,0.1-0.4,0.2-0.6c-0.1-0.7-0.1-1.4-0.2-2.1c0-0.3,0.1-0.5,0.1-0.8c0-0.7,0.1-1.5,0.1-2.2c0-0.2,0-0.4,0-0.6
		c0-0.8,0.1-1.5,0.1-2.3c0-0.2,0-0.4,0-0.6c0-0.8,0.1-1.5,0.1-2.3c0-0.1,0-0.3,0-0.4c0.1-1.8,0.2-3.6,0.3-5.4c0-0.1,0-0.3,0-0.4
		c0-0.8,0.1-1.6,0.1-2.4c0-0.1,0-0.3,0-0.4c0-0.8,0.1-1.6,0.1-2.4c0-0.1,0-0.3,0-0.4c0-0.9,0.1-1.7,0.1-2.6c0-0.1,0-0.2,0-0.3
		c0.1-1.4,0.1-2.7,0.2-4.1c0-0.4,0.1-0.8,0.1-1.2c0-0.2,0-0.4,0-0.6c0.1-0.7,0.1-1.4,0.2-2.1c0-0.2,0.1-0.5,0.1-0.7
		c0-0.7,0-1.5,0-2.2c0-0.2,0-0.4,0-0.6c0-0.7,0.1-1.4,0.1-2.1c0-0.3,0-0.5,0-0.8c0-0.7,0.1-1.5,0.1-2.2c0-0.2,0-0.4,0-0.6
		c0-0.7,0.1-1.5,0.1-2.2c0-0.2,0-0.4,0-0.6c0-0.8,0.1-1.5,0.1-2.3c0-0.1,0-0.3,0-0.4c0.1-1.4,0.1-2.8,0.2-4.2c0-0.4,0.1-0.8,0.1-1.2
		c0-0.1,0-0.3,0-0.4c0-0.8,0.1-1.6,0.1-2.4c0-0.1,0-0.3,0-0.4c0-0.8,0.1-1.6,0.1-2.4c0-0.1,0-0.3,0-0.4c0.1-0.8,0.1-1.5,0.2-2.3
		c0.1-0.4,0.3-0.7,0.4-1.1c0.4,0,0.7-0.1,1.1-0.1c6.5,0,13.1,0,19.6,0c0.4,0,0.8,0,1.2,0c0.3,0.2,0.6,0.5,0.8,0.7
		c0,0.1,0.1,0.3,0.1,0.4c0.2,0.8,0.4,1.5,0.7,2.3c0.2,1,0.5,2,0.7,3c0.2,0.8,0.4,1.5,0.6,2.3c0.4,1.9,0.9,3.7,1.3,5.6
		c0,0.1,0.1,0.3,0.2,0.4c0.4,1.6,0.8,3.1,1.2,4.7c0.4,1.6,0.8,3.3,1.2,4.9c0.2,1.1,0.5,2.2,0.7,3.3c0.6,2.5,1.3,5,1.9,7.5
		c0.6,2.4,1.2,4.8,1.8,7.2c0.1,0.5,0.3,0.9,0.4,1.4c0.1,0.6,0.2,1.1,0.3,1.7c0.4,0.6,0.4,1.4,0.4,2.1c0.1,0.5,0.3,1,0.4,1.5
		c0.1,0.4,0.1,0.9,0.2,1.3c0.2,0.8,0.4,1.5,0.6,2.3c0.1,0.7,0.2,1.4,0.3,2.1c0.1,0.5,0.2,0.9,0.3,1.4c-0.1,0.1-0.1,0.2-0.2,0.3
		c0,0.1,0,0.2,0,0.3c0.3,0.3,0.4,0.3,0.5,0c0.1-0.6,0.2-1.3,0.3-1.9c0.1-0.2,0.1-0.4,0.2-0.6c0.1-0.5,0.3-1,0.4-1.5
		c0.1-0.3,0.1-0.5,0.2-0.8c0.1-0.5,0.3-1,0.4-1.5c0.1-0.3,0.2-0.6,0.3-1c0-0.2,0-0.5,0.1-0.7c0.2-0.9,0.5-1.7,0.7-2.6
		c0.1-0.3,0.2-0.6,0.3-0.9c0,0,0-0.1,0-0.1c0.1-0.2,0.1-0.4,0.2-0.7c0.1-0.1,0.1-0.3,0.2-0.4c-0.1-0.1-0.1-0.2-0.2-0.3
		c0.2-0.4,0.4-0.9,0.6-1.3c0.1-0.2,0.2-0.5,0.2-0.7c0-0.1,0.1-0.3,0.1-0.4c0-0.2,0.1-0.4,0.1-0.7c0-0.1,0.1-0.2,0.1-0.3
		c0.2-0.6,0.4-1.3,0.6-1.9c0-0.1,0-0.1,0-0.2c0.1-0.2,0.2-0.5,0.2-0.7c0.2-0.7,0.4-1.3,0.5-2c0.1-0.2,0.2-0.5,0.2-0.7
		c0.4-1.4,0.8-2.7,1.1-4.1c0.1-0.2,0.1-0.4,0.2-0.6c0.1-0.3,0.2-0.6,0.2-0.9c0.1-0.2,0.1-0.5,0.2-0.7c0-0.1,0.1-0.2,0.1-0.3
		c0.2-0.6,0.3-1.2,0.5-1.8c0.1-0.3,0.2-0.6,0.2-0.9c0.2-0.7,0.4-1.3,0.6-2c0.1-0.2,0.1-0.5,0.2-0.7c0.1-0.2,0.1-0.5,0.2-0.7
		c0-0.1,0.1-0.2,0.1-0.3c0.1-0.3,0.2-0.6,0.3-0.9c0-0.1,0-0.2,0.1-0.3c0.1-0.4,0.2-0.8,0.4-1.2c0-0.1,0-0.2,0.1-0.3
		C102.7,95.7,102.8,95.4,102.9,95.1z M116.4,89.3c0,0-0.1,0-0.1-0.1c0,0.1,0,0.3,0,0.4c0,0,0.1,0,0.1,0
		C116.3,89.6,116.4,89.5,116.4,89.3z M116.1,90.1C116.1,90.1,116.1,90,116.1,90.1C116,90,116,90,116.1,90.1
		C116,90.1,116,90.1,116.1,90.1C116.1,90.1,116.1,90.1,116.1,90.1z"/>
	<path class="st2" d="M136.8,125.7c0-0.8,0.1-1.6,0.1-2.4c0.4-0.1,0.5-0.3,0.1-0.6c0-0.3,0-0.6,0.1-0.9c0.2-0.1,0.3-0.2,0.5-0.4
		c-0.1-0.1-0.3-0.2-0.4-0.4c0-0.1,0-0.2,0-0.3c0.5-0.1,0.6-0.3,0.2-0.6c0-0.1,0-0.1,0-0.1c0.2-0.2,0.3-0.4,0.5-0.5
		c-0.1-0.1-0.3-0.3-0.4-0.4c0.1-0.2,0.2-0.5,0.2-0.7c0.3-0.3,0.4-0.6,0.1-0.9c0.1-0.3,0.2-0.6,0.3-0.9c0.2-0.1,0.3-0.1,0.5-0.2
		c-0.1-0.1-0.2-0.3-0.3-0.4c0-0.1,0.1-0.3,0.1-0.4c0.2-0.2,0.4-0.3,0.7-0.5c-0.1-0.1-0.2-0.3-0.4-0.4c0.1-0.2,0.1-0.4,0.2-0.6
		c0.2-0.1,0.5-0.2,0.6-0.4c0.1-0.2-0.1-0.4-0.2-0.6c0.1-0.3,0.2-0.7,0.3-1c0.2-0.3,0.3-0.5,0.5-0.8c0.2-0.1,0.5-0.1,0.6-0.3
		c0.3-0.4,0.5-0.8,0.7-1.3c0.1-0.3,0.4-0.7-0.1-0.9c0.1-0.2,0.2-0.3,0.3-0.5c0.7,0.2,0.6-0.6,1-0.8c0.1-0.1,0-0.4,0.1-0.6
		c0,0-0.1,0-0.1,0c0.1-0.1,0.1-0.3,0.2-0.4c0.1-0.1,0.2-0.1,0.3-0.2c0.1,0.1,0.2,0.1,0.3,0.2c0-0.2-0.1-0.3-0.1-0.5
		c0-0.1,0.1-0.2,0.1-0.3c0.1-0.2,0.3-0.4,0.4-0.5c0.2-0.2,0.4-0.5,0.6-0.7c0.1,0.1,0.3,0.2,0.4,0.2c-0.1-0.2-0.1-0.3-0.2-0.5
		c0.2-0.3,0.4-0.5,0.6-0.8c0,0,0.1,0,0.1,0c0.1,0.1,0.3,0.2,0.4,0.2c0-0.2,0-0.4,0-0.7c0-0.1,0.1-0.1,0.1-0.2
		c0.3-0.3,0.6-0.6,0.9-0.9c0,0,0.1,0,0.1,0c0.3,0,0.5,0,0.8,0c-0.1-0.2-0.1-0.3-0.2-0.5c0.2-0.2,0.4-0.4,0.6-0.6
		c0.2,0,0.3,0.1,0.5,0.1c-0.1-0.1-0.2-0.2-0.2-0.3c0.4-0.3,0.8-0.5,1.2-0.8c0.1-0.1,0.2-0.3,0.3-0.4c0.8-0.5,1.5-0.9,2.3-1.4
		c0,0,0.1-0.1,0.1-0.1c1-0.5,2-0.9,3-1.4c0.1-0.1,0.2-0.2,0.3-0.3c0.3-0.1,0.6-0.1,0.9-0.2c0.1,0,0.2,0,0.3,0
		c0.4-0.1,0.8-0.3,1.2-0.4c0.2-0.1,0.3-0.2,0.5-0.3c0.2,0,0.5,0,0.7,0c0.1,0,0.2-0.1,0.3-0.1c0.8-0.1,1.7-0.3,2.5-0.4
		c0.2,0,0.4-0.2,0.6-0.2c0.2-0.1,0.3-0.1,0.5-0.1c0.8,0,1.6,0.1,2.4,0.1c1,0,1.9,0.1,2.9,0.1c0.3,0,0.6-0.1,0.9-0.2
		c0.1,0,0.2-0.1,0.3-0.1c0.7,0.2,1.4,0.4,2.1,0.6c0.9,0.2,1.9,0.4,2.8,0.7c0.2,0.7,0.7,0.9,1.2,0.4c0.4,0.1,0.8,0.3,1.2,0.4
		c0,0,0.1,0.1,0.1,0.1c0.3,0.1,0.6,0.2,0.9,0.3c0,0,0.1,0.1,0.1,0.1c0.2,0.1,0.5,0.2,0.7,0.3c0.1,0,0.1,0.1,0.2,0.1
		c0.1,0,0.1,0,0.2,0.1c0,0,0.1,0.1,0.1,0.1c0.2,0.1,0.4,0.3,0.5,0.4l0,0c0.1,0.1,0.1,0.2,0.2,0.2c0.2,0.1,0.3,0.2,0.5,0.3
		c0.6,0.4,1.2,0.7,1.8,1.1c0.2,0.2,0.3,0.5,0.5,0.7c0.3,0.1,0.5,0.2,0.8,0.4c0.4,0.3,0.7,0.7,1,1c0.1,0.2,0.2,0.4,0.3,0.6
		c0.2,0.2,0.5,0.4,0.7,0.6c0.1,0.1,0.1,0.3,0.2,0.4c0.2,0.6,0.4,1.2,0.8,1.8c0.2,0.3,0.6,0.5,0.9,0.7c0.2,0.2,0.3,0.4,0.5,0.5l0,0
		c0,0,0,0,0,0c0.2,0.4,0.4,0.7,0.5,1.1c0.2,0.4,0.3,0.8,0.5,1.2c0,0.1,0.1,0.1,0.1,0.2c0.1,0,0.1,0.1,0.2,0.1
		c0.1,0.2,0.1,0.4,0.2,0.6c0,0.1,0.1,0.2,0.1,0.3c0,0.1,0.1,0.3,0.1,0.4c-0.3,0.4,0.1,0.4,0.3,0.4c0.1,0.5,0.1,0.9,0.2,1.4
		c0.1,0.1,0.1,0.2,0.2,0.3c0.1,0.1,0.1,0.2,0.2,0.3c0,0.1,0,0.2,0,0.3c0,0,0,0.1,0,0.1c0,0.1,0.1,0.3,0.1,0.4c0,0.1,0,0.1,0,0.2
		c0.1,0.1,0.2,0.2,0.3,0.3c0.1,0.5,0.2,1,0.3,1.5c0,0.1,0,0.3,0,0.4c0.1,0.1,0.1,0.3,0.2,0.4c0,0.1,0,0.1,0,0.2
		c0,0.2-0.1,0.4-0.1,0.6c0.1,0.1,0.2,0.2,0.3,0.3c0,0.2,0,0.5,0,0.7c0,0.2,0,0.4,0,0.6c0.1,0.1,0.1,0.2,0.2,0.3c0,1.5,0,2.9,0,4.4
		c0,0.3,0,0.6-0.1,0.9c0,0.6,0,1.1-0.1,1.7c0,0.2-0.1,0.5-0.1,0.7c0,0.3,0,0.5-0.1,0.8c-0.1,0.3-0.1,0.6-0.2,0.9
		c-0.1,0.9-0.4,1.3-1.4,1.4c-2.1,0.1-4.3,0.2-6.4,0.3c-0.2,0-0.4,0-0.6,0c-0.8,0-1.5,0.1-2.3,0.1c-8.5,0-17,0-25.6-0.1
		c-0.3,0-0.8-0.3-0.8,0.4c0.1,0.3,0.1,0.6,0.2,0.9c0.1,0.4,0.3,0.9,0.4,1.3c0.2,0.6,0.5,1.2,0.7,1.8c0.1,0.3,0.3,0.6,0.4,0.9
		c0.5,0.7,1,1.5,1.5,2.2c0,0.1,0.1,0.1,0.1,0.2c0.4,0.4,0.7,0.7,1.1,1.1c0.2,0.2,0.4,0.3,0.6,0.5c0.5,0.3,0.9,0.6,1.4,0.9
		c0.6,0.3,1.3,0.6,1.9,0.9c0.8,0.3,1.6,0.5,2.4,0.8c0.2,0.1,0.4,0.1,0.6,0.2c0.2,0,0.4,0.1,0.6,0.1c0.4,0.1,0.8,0.1,1.2,0.2
		c0.1,0,0.2,0.1,0.3,0.1c0.4,0,0.9,0,1.3,0c0.2,0,0.4,0,0.6,0c1.9,0,3.7,0,5.6,0c0.1,0,0.3-0.1,0.4-0.2l0,0.1
		c0.1,0.1,0.3,0.3,0.4,0.4c0.1-0.1,0.2-0.3,0.4-0.4l0-0.1c0.5-0.1,1.1-0.1,1.6-0.2c0.2,0.1,0.3,0.3,0.5,0.3c0.1,0,0.2-0.3,0.3-0.4
		l0-0.1c0.5-0.1,1-0.2,1.5-0.3c0.1,0,0.1,0,0.2,0.1c0.2,0.1,0.3,0.2,0.5,0.2c0.1-0.2,0.1-0.4,0.2-0.5c0,0,0-0.1,0-0.1
		c0.2,0,0.3,0,0.5,0c0.2,0,0.4-0.1,0.6-0.1c0.2,0.1,0.3,0.2,0.5,0.3c0.1-0.2,0.2-0.3,0.2-0.5c0.2-0.1,0.4-0.1,0.6-0.2
		c0.1,0.1,0.3,0.3,0.3,0.3c0.3-0.1,0.9,0,0.9-0.7c0.1,0,0.1-0.1,0.2-0.1c0.2-0.1,0.5-0.1,0.7-0.2c0.1,0.1,0.1,0.1,0.2,0.2
		c0-0.1,0.1-0.2,0.1-0.3c0.2-0.1,0.3-0.2,0.5-0.3c0,0,0.1,0,0.1,0c0.1,0.3-0.3,0.9,0.4,0.9c0,3.9,0,7.8,0,11.7
		c-0.1,0.3-0.3,0.5-0.4,0.8c-0.1,0-0.1,0.1-0.2,0.1c-0.4,0.2-0.8,0.4-1.2,0.6c0,0,0,0,0,0c-0.6,0.2-1.2,0.5-1.8,0.7
		c-0.4,0.1-0.8,0.3-1.2,0.4c-0.4,0.1-0.7,0.3-1.1,0.4c0,0,0,0-0.1,0c-0.9,0.2-1.8,0.5-2.7,0.7c-0.3,0-0.5,0.1-0.8,0.1
		c-0.3,0.1-0.6,0.1-0.9,0.2c-0.4,0.1-0.8,0.1-1.2,0.2c-0.4,0-0.7,0.1-1.1,0.1c-0.1,0-0.2,0-0.3,0c-0.4,0-0.7,0.1-1.1,0.1
		c-0.3,0-0.6-0.1-0.9-0.1c-0.3-0.2-0.7-0.3-0.9,0.1c-2.5,0-4.9,0-7.4,0c-0.8,0-1.5-0.4-2.3-0.4c-2,0.1-3.8-0.7-5.7-1.2
		c-1.3-0.3-2.5-1-3.8-1.5c0,0-0.1-0.1-0.1-0.1c-2.4-1.2-4.5-2.9-6.5-4.6c-0.3-0.3-0.5-0.6-0.7-0.9c0-1-0.1-1.1-0.8-0.9c0,0,0,0,0,0
		c-0.1-0.3-0.1-0.5-0.2-0.7c-0.1-0.1-0.3-0.3-0.3-0.4c-0.1-0.6-0.4-0.8-0.9-0.7c-0.2-0.3-0.4-0.6-0.6-0.9c0.1-0.2,0.2-0.4,0.2-0.5
		c-0.2-0.4-0.3-0.9-0.9-0.7c-0.1-0.2-0.2-0.3-0.3-0.5c0.4-0.7,0-1.4-0.8-1.5c-0.1-0.2-0.2-0.4-0.2-0.6c0.1-0.1,0.2-0.3,0.3-0.4
		c-0.2-0.1-0.3-0.1-0.5-0.2c-0.1-0.2-0.2-0.5-0.3-0.7c0.1-0.1,0.3-0.2,0.3-0.3c-0.1-0.7-0.2-1.5-1-1.9c0-0.1,0-0.1,0-0.2
		c0.1-0.2,0.2-0.3,0.3-0.5c-0.2-0.1-0.3-0.2-0.5-0.2c-0.1-0.2-0.1-0.4-0.2-0.6c0.1-0.2,0.3-0.4,0.3-0.5c-0.1-0.9-0.3-1.7-0.5-2.6
		c0-0.2-0.3-0.3-0.5-0.4c-0.1-0.6-0.1-1.2-0.2-1.8c0.1-0.2,0.3-0.3,0.4-0.5c-0.1-0.1-0.3-0.2-0.4-0.3c0-0.8-0.1-1.6-0.1-2.4
		c0.4,0,0.6-0.2,0.6-0.6C137.4,125.9,137.3,125.7,136.8,125.7z M171.6,109.5c-0.6-0.4-0.9-0.9-1.7-1.1c-0.8-0.2-1.5-0.7-2.3-1
		c-0.1,0-0.3-0.1-0.4,0c-0.6,0.5-1.2,0.1-1.8,0.1c-0.2-0.1-0.4-0.4-0.5-0.4c-0.4,0-0.9-0.3-1.1,0.4c-0.4,0-0.8-0.2-1,0
		c-0.9,0.6-2.1,0.3-2.9,1.1c-0.2,0.2-0.6,0.1-0.8,0.3c-0.7,0.7-1.4,1.4-2.1,2.1c-0.4,0.4-0.8,0.6-1,1.1c-0.4,1.2-1,2.3-1.6,3.3
		c-0.5,0.9-0.3,1.8-0.5,2.7c0.4,0,0.7,0,1,0c6.3,0,12.7,0,19,0c0.6,0,1.2-0.1,1.8-0.2c-0.3-1.2,0.2-2.3-0.5-3.4
		c-0.2-0.2,0-0.7,0-0.9c-0.5-0.8-1.1-1.6-1.7-2.4c0-0.3,0-0.6-0.1-0.8c-0.1,0.1-0.3,0.2-0.4,0.3c-0.2-0.2-0.3-0.3-0.5-0.5
		c0.6-0.3,0.2-0.5,0-0.7C172.2,109.5,171.9,109.6,171.6,109.5z"/>
	<path class="st0" d="M111.3,109.7c0.3-1.1,0.6-2.3,0.9-3.4c0.4-1.7,0.8-3.3,1.3-5c0.7,0.2,0.4,0.7,0.3,1c-0.5,2.1-1,4.3-1.6,6.4
		C112.1,109.1,112.1,109.7,111.3,109.7z"/>
	<path class="st0" d="M185.4,103.2c-0.1-0.1-0.1-0.3-0.2-0.4c-0.2-0.2-0.5-0.4-0.7-0.6c-0.1-0.2-0.2-0.4-0.3-0.6
		c0.3,0,0.7-0.1,0.8,0.1c0.7,0.9,1.4,1.9,2.1,2.8c0.2,0.3,0.2,0.5-0.2,0.7C186.5,104.5,185.9,103.8,185.4,103.2z"/>
	<path class="st0" d="M83.4,96.5c-0.4-1.6-0.8-3.1-1.2-4.7c0.2,0.4,0.5,0.8,0.7,1.3c0.3,0.8,0.5,1.7,0.7,2.6
		C83.6,95.9,83.4,96.2,83.4,96.5z"/>
	<path class="st0" d="M203.9,45.4c0.7,1.1,1.4,2.1,2.1,3.2c-0.9,0.1-1-0.8-1.3-1.3C204.3,46.7,203.5,46.3,203.9,45.4z"/>
	<path class="st2" d="M137.2,131.9c0.2,0.1,0.4,0.3,0.5,0.4c0.2,0.9,0.4,1.7,0.5,2.6c0,0.2-0.2,0.4-0.3,0.5
		C137.7,134.3,137.4,133.1,137.2,131.9z"/>
	<path class="st0" d="M74.2,116.1c0.2,1,0.5,2,0.7,3c-0.2-0.3-0.6-0.5-0.7-0.8c-0.2-0.5-0.3-1.1-0.3-1.7
		C73.8,116.4,74.1,116.3,74.2,116.1z"/>
	<path class="st0" d="M109.1,77.2c-1.2,0.1-1.2,0.1-1.7,1.4c-0.1-0.4-0.3-0.9-0.2-1.1c0.2-0.4,0.7-0.7,1.1-0.8
		C108.5,76.6,108.8,77,109.1,77.2z"/>
	<path class="st0" d="M85.3,104.7c-0.2-1.1-0.5-2.2-0.7-3.3c0.2,0.1,0.4,0.2,0.4,0.4c0.2,0.9,0.4,1.8,0.5,2.7
		C85.6,104.5,85.4,104.6,85.3,104.7z"/>
	<path class="st0" d="M130.2,78.6c-0.1-1.2-0.2-1.3-1.5-1.4c0.2-0.6,0.6-0.7,1.1-0.4c0.4,0.3,0.7,0.7,1,1.2
		C130.9,78.4,130.6,78.6,130.2,78.6z"/>
	<path class="st2" d="M185.4,103.2c0.5,0.7,1.1,1.3,1.6,2c0,0.1,0,0.1,0.1,0.2c0,0.1,0,0.2-0.1,0.3c-0.3-0.2-0.7-0.4-0.9-0.7
		C185.9,104.4,185.7,103.7,185.4,103.2z"/>
	<path class="st0" d="M91.8,133.6c0-0.1,0-0.2,0-0.3c0.1-0.1,0.1-0.2,0.2-0.3c-0.1-0.5-0.2-0.9-0.3-1.4c0.3,0,0.7,0,1,0
		c-0.1,0.6-0.2,1.3-0.3,1.9C92.2,133.6,92,133.6,91.8,133.6z"/>
	<path class="st0" d="M75.6,122.1c0.2,0.9,0.5,1.8,0.7,2.7c-0.2-0.1-0.5-0.1-0.6-0.3c-0.2-0.7-0.3-1.4-0.4-2.1
		C75.3,122.3,75.5,122.2,75.6,122.1z"/>
	<path class="st2" d="M141.2,108.8c0.5,0.2,0.3,0.6,0.1,0.9c-0.2,0.4-0.4,0.9-0.7,1.3c-0.1,0.2-0.4,0.2-0.6,0.3c0-0.1,0-0.2,0-0.3
		c0.3-0.6,0.6-1.2,0.9-1.8C141,109,141.1,108.9,141.2,108.8z"/>
	<path class="st0" d="M82.4,150.9c0.2,0.8,0.4,1.7,0.6,2.5c-0.1,0-0.2,0-0.2,0C82.2,153.1,81.9,151.4,82.4,150.9z"/>
	<path class="st0" d="M178,156c0.9-0.2,1.8-0.5,2.7-0.7c0,0.1,0,0.2,0,0.3C180.4,156.1,178.5,156.4,178,156z"/>
	<path class="st0" d="M91.3,129.6c-0.2-0.8-0.4-1.5-0.6-2.3c1,0.2,0.8,1,0.9,1.7C91.7,129.2,91.5,129.4,91.3,129.6z"/>
	<path class="st0" d="M164.6,141.8c-0.8-0.3-1.6-0.5-2.4-0.8C163,140.6,164.4,141.1,164.6,141.8z"/>
	<path class="st0" d="M191.4,35.2c0.7,0.4,1.4,0.8,2.1,1.1C192.4,36.6,191.5,36.1,191.4,35.2z"/>
	<path class="st0" d="M206.2,49c0.3,0.7,0.6,1.3,1,2c-0.7-0.2-1.4-1.1-1.3-1.7C205.9,49.2,206.1,49.1,206.2,49z"/>
	<path class="st0" d="M141.2,108.8c-0.1,0.1-0.2,0.2-0.3,0.3c-0.3-0.9,0.4-2.2,1.4-2.3c-0.3,0.5-0.5,1-0.8,1.5
		C141.3,108.4,141.3,108.6,141.2,108.8z"/>
	<path class="st0" d="M193.6,36.3c0.7,0.4,1.4,0.9,2.1,1.3c-0.1,0.1-0.2,0.2-0.4,0.2C194.8,37.8,193.8,37,193.6,36.3z"/>
	<path class="st0" d="M116.2,103.9c0,0.7,0,1.3,0,2c-0.8,0-0.6-0.6-0.6-1C115.6,104.5,115.5,103.9,116.2,103.9z"/>
	<path class="st2" d="M138.3,137c0.8,0.4,0.9,1.2,1,1.9c0,0.1-0.2,0.2-0.3,0.3C138.8,138.5,138.6,137.7,138.3,137z"/>
	<path class="st0" d="M190.8,115.3c-0.1-0.5-0.2-1-0.3-1.5c0.1-0.1,0.1-0.1,0.2-0.2c0.8,0.1,0.6,0.8,0.7,1.3
		C191.4,115.1,191,115.2,190.8,115.3z"/>
	<path class="st0" d="M109.7,116c0.2-0.7,0.4-1.3,0.6-2c0.6,0.3,0.3,0.8,0.2,1.2C110.4,115.5,110.3,116.1,109.7,116z"/>
	<path class="st0" d="M157,137.6c-0.5-0.7-1-1.5-1.5-2.2c0.6-0.1,0.6,0.4,0.8,0.7C156.6,136.5,156.8,137,157,137.6z"/>
	<path class="st0" d="M144.1,104.4c-0.2,0.2-0.4,0.5-0.6,0.7c-0.1-0.2-0.2-0.3-0.2-0.5c0.1-0.4,1.2-1.2,1.6-1.2
		c-0.2,0.3-0.4,0.5-0.6,0.8C144.3,104.2,144.2,104.3,144.1,104.4z"/>
	<path class="st0" d="M189.3,110.1c0-0.1-0.1-0.3-0.1-0.4c0-0.1-0.1-0.2-0.1-0.3c-0.1-0.2-0.1-0.4-0.2-0.6c0.1-0.1,0.3-0.2,0.4-0.2
		c0.4,0.1,0.6,1.2,0.4,1.6C189.5,110.1,189.4,110.1,189.3,110.1z"/>
	<path class="st0" d="M80.7,85.8c-0.2-0.8-0.4-1.5-0.6-2.3c0.3,0.7,0.6,1.3,0.9,2C81,85.6,80.8,85.7,80.7,85.8z"/>
	<path class="st0" d="M95.4,121.4c-0.1,0.2-0.1,0.4-0.2,0.7c0,0-0.1,0-0.1,0c0,0,0,0.1,0,0.1c-0.1,0.3-0.2,0.6-0.3,0.9
		c-0.1-0.2-0.4-0.4-0.4-0.5C95.1,121.3,95.1,121.3,95.4,121.4z"/>
	<path class="st0" d="M80.4,142.6c0.2,0.6,0.3,1.3,0.5,1.9C80.1,144.2,79.8,143.3,80.4,142.6z"/>
	<path class="st0" d="M101.4,100.5c-0.2,0.7-0.4,1.3-0.6,2c-0.1-0.1-0.3-0.1-0.4-0.2C100.3,101.9,101,100.6,101.4,100.5z"/>
	<path class="st0" d="M114,99.3c0.1-0.6,0.3-1.2,0.4-1.8c0.1,0.2,0.4,0.4,0.4,0.6C114.7,98.6,114.6,99.2,114,99.3z"/>
	<path class="st0" d="M97.2,115.4c-0.2,0.6-0.4,1.3-0.6,1.9c-0.1,0-0.3-0.1-0.3-0.1C96,116.8,96.7,115.5,97.2,115.4z"/>
	<path class="st0" d="M183,154.5c0.6-0.2,1.2-0.5,1.8-0.7C184.7,154.7,183.7,155.1,183,154.5z"/>
	<path class="st0" d="M98.7,156c0.2-0.3,0.3-0.6,0.5-0.9c0.5,0,0.5,0.4,0.4,0.7c-0.1,0.3-0.4,0.4-0.6,0.7
		C98.9,156.3,98.8,156.1,98.7,156z"/>
	<path class="st0" d="M202.5,43.6c0.4,0.6,0.9,1.1,1.3,1.7C203,45.3,202.3,44.5,202.5,43.6z"/>
	<path class="st0" d="M101.4,146.9c0.2-0.6,0.3-1.2,0.5-1.8c0.1,0,0.2,0,0.2,0.1c0.1,0.1,0.1,0.4,0.1,0.4
		C101.6,145.7,102.6,146.9,101.4,146.9z"/>
	<path class="st2" d="M142.2,145.2c0.5,0,0.9,0.1,0.9,0.7c0,0.1,0.2,0.3,0.3,0.4c0.1,0.2,0.1,0.5,0.2,0.7
		C143.1,146.4,142.7,145.8,142.2,145.2z"/>
	<path class="st0" d="M100.6,103.4c-0.2,0.6-0.3,1.2-0.5,1.8c-0.1,0-0.3-0.1-0.3-0.2c-0.1-0.1-0.1-0.4,0-0.4
		C100.3,104.4,99.7,103.3,100.6,103.4z"/>
	<path class="st0" d="M155.1,134.4c-0.2-0.6-0.5-1.2-0.7-1.8C155.1,132.8,155.4,133.6,155.1,134.4z"/>
	<path class="st0" d="M197,38.5c0.5,0.4,1,0.8,1.6,1.2c-0.5-0.2-1.1-0.4-1.6-0.6C197,39.1,197,38.7,197,38.5z"/>
	<path class="st0" d="M110.6,112.5c0.1-0.5,0.3-1,0.4-1.5c0.1,0.2,0.4,0.5,0.3,0.7C111.3,112,111.2,112.6,110.6,112.5z"/>
	<path class="st2" d="M139.9,141.2c0.8,0.1,1.2,0.8,0.8,1.5C140.4,142.2,140.1,141.7,139.9,141.2z"/>
	<path class="st0" d="M132.6,156c0.1-0.2,0.2-0.3,0.3-0.5c0.2,0.1,0.4,0.2,0.5,0.4c-0.2,0.3-0.5,0.5-0.7,0.8c0,0-0.3-0.3-0.5-0.4
		C132.4,156.2,132.5,156.1,132.6,156z"/>
	<path class="st0" d="M33.8,190.8c-0.3-0.5-0.5-1-0.8-1.5C33.9,189.5,34.2,190.2,33.8,190.8z"/>
	<path class="st0" d="M79.3,80.6c-0.2-0.8-0.4-1.5-0.7-2.3C79.3,78.7,79.6,79.9,79.3,80.6z"/>
	<path class="st2" d="M141.4,108.3c0.3-0.5,0.5-1,0.8-1.5c0,0,0.1,0,0.1,0c0,0,0.1,0,0.1,0c0,0.2,0.1,0.5-0.1,0.6
		C142.1,107.7,142.1,108.4,141.4,108.3z"/>
	<path class="st0" d="M105.3,132.3c0.1-0.5,0.3-1,0.4-1.5c0.1,0.2,0.4,0.5,0.3,0.7C106,131.9,105.9,132.4,105.3,132.3z"/>
	<path class="st0" d="M104,137.4c0.1-0.5,0.3-1,0.4-1.5c0.1,0.2,0.4,0.5,0.4,0.6C104.6,136.9,104.7,137.5,104,137.4z"/>
	<path class="st0" d="M109,118.8c0.1-0.5,0.3-1,0.4-1.5c0.1,0.2,0.4,0.5,0.3,0.7C109.6,118.3,109.6,118.9,109,118.8z"/>
	<path class="st0" d="M66.3,154c-0.4-0.4-0.3-0.7,0.1-1c0.2,0.1,0.4,0.3,0.6,0.4C66.8,153.6,66.6,153.8,66.3,154z"/>
	<path class="st0" d="M93.2,129.6c-0.1,0.5-0.3,1-0.4,1.5c-0.1-0.2-0.4-0.4-0.4-0.5C92.5,130.1,92.6,129.6,93.2,129.6z"/>
	<path class="st0" d="M104.7,134.7c0.1-0.5,0.3-1,0.4-1.5c0.1,0.3,0.3,0.7,0.2,1C105.4,134.4,105,134.5,104.7,134.7z"/>
	<path class="st0" d="M79.7,139.6c0.1,0.5,0.3,1,0.4,1.5C79.2,140.7,79.1,140.2,79.7,139.6z"/>
	<path class="st0" d="M106.7,127.2c0.1-0.5,0.3-0.9,0.4-1.4c0.1,0.2,0.4,0.4,0.4,0.5C107.3,126.7,107.4,127.3,106.7,127.2z"/>
	<path class="st0" d="M93.8,127.3c-0.1,0.5-0.3,1-0.4,1.5c-0.1-0.2-0.4-0.5-0.3-0.7C93.2,127.8,93.2,127.3,93.8,127.3z"/>
	<path class="st0" d="M53.4,33.4c0.5-0.1,1-0.3,1.5-0.4c-0.2,0.2-0.4,0.6-0.6,0.7C54,33.8,53.7,33.5,53.4,33.4z"/>
	<path class="st0" d="M100.4,150.6c0.1-0.5,0.3-0.9,0.4-1.4c0.1,0.2,0.4,0.4,0.4,0.5C101,150.1,101.1,150.7,100.4,150.6z"/>
	<path class="st0" d="M103.4,139.7c0.1-0.5,0.3-0.9,0.4-1.4c0.1,0.2,0.4,0.4,0.4,0.5C104,139.1,104.1,139.7,103.4,139.7z"/>
	<path class="st0" d="M186,139.8c-0.2,0.1-0.3,0.2-0.5,0.3c-0.1,0-0.2,0.1-0.3,0.1c-0.2,0.1-0.5,0.1-0.7,0.2
		C184.6,139.6,185.5,139.3,186,139.8z"/>
	<path class="st0" d="M158.2,138.8c-0.4-0.4-0.7-0.7-1.1-1.1C158.2,137.7,158.5,138,158.2,138.8z"/>
	<path class="st0" d="M208.8,55.7c0.1,0.5,0.3,1,0.4,1.5c-0.5,0-0.7-0.3-0.7-0.7C208.5,56.1,208.7,55.9,208.8,55.7z"/>
	<path class="st0" d="M106.1,129.5c0.1-0.5,0.3-0.9,0.4-1.4c0.1,0.2,0.4,0.4,0.4,0.5C106.7,128.9,106.8,129.5,106.1,129.5z"/>
	<path class="st0" d="M81.6,147.7c0.1,0.4,0.2,0.9,0.3,1.3c-0.7,0.1-0.6-0.5-0.7-0.9C81.2,148.1,81.5,147.9,81.6,147.7z"/>
	<path class="st0" d="M54.8,207c-0.5-0.1-0.9-0.3-1.4-0.4c0.3-0.1,0.6-0.3,0.8-0.2C54.4,206.4,54.6,206.8,54.8,207z"/>
	<path class="st0" d="M47,36c0.5-0.3,1-0.5,1.5-0.8c0,0.1,0,0.2,0,0.3C48,36,47.6,36.4,47,36z"/>
	<path class="st0" d="M48.4,204.8c-0.4-0.2-0.8-0.4-1.2-0.6c0.3-0.1,0.6-0.2,0.7-0.1C48.2,204.2,48.3,204.5,48.4,204.8z"/>
	<path class="st0" d="M160.2,140.1c-0.5-0.3-0.9-0.6-1.4-0.9C160,139.2,160.1,139.3,160.2,140.1z"/>
	<path class="st0" d="M89.7,122.4c-0.1-0.6-0.2-1.1-0.3-1.7C90.2,121.3,90.3,122,89.7,122.4z"/>
	<path class="st0" d="M90.6,126c-0.1-0.5-0.3-1-0.4-1.5c0.2,0.1,0.5,0.2,0.5,0.4C90.8,125.2,91.2,125.7,90.6,126z"/>
	<path class="st0" d="M66,155.7c0.1-0.1,0.2-0.2,0.4-0.3c0.1,0.2,0.4,0.4,0.4,0.4c-0.2,0.3-0.4,0.5-0.6,0.7
		c-0.1,0.1-0.4-0.2-0.6-0.3c0,0,0-0.1,0-0.1c0.1-0.1,0.1-0.2,0.2-0.3c0,0,0.1-0.1,0.1-0.1c0.1,0,0.3,0.1,0.4,0.1
		C66.1,155.9,66.1,155.8,66,155.7z"/>
	<path class="st0" d="M31.1,184.4c-0.1-0.5-0.2-0.9-0.3-1.4c0.6-0.1,0.6,0.4,0.6,0.7C31.4,183.9,31.2,184.1,31.1,184.4z"/>
	<path class="st0" d="M130.6,91.1c-0.1-0.3-0.1-0.6-0.2-0.9c0.2,0.2,0.5,0.3,0.7,0.5C131,90.8,130.8,90.9,130.6,91.1z"/>
	<path class="st0" d="M78.5,77.9c-0.3-0.2-0.6-0.5-0.8-0.7c0.1-0.5,0.4-0.4,0.6-0.2C78.6,77.2,79,77.4,78.5,77.9z"/>
	<path class="st2" d="M136.8,125.7c0.4,0,0.6,0.2,0.6,0.6c0,0.4-0.2,0.6-0.6,0.6C136.8,126.5,136.8,126.1,136.8,125.7z"/>
	<path class="st0" d="M171,156.8c0.2-0.5,0.6-0.4,0.9-0.1c-0.2,0.2-0.3,0.5-0.5,0.7C171.3,157.1,171.1,156.9,171,156.8z"/>
	<path class="st0" d="M116.2,141.7c0,0.4,0,0.8,0,1.2c-0.2-0.3-0.4-0.5-0.6-0.8C115.8,142,116,141.9,116.2,141.7z"/>
	<path class="st0" d="M78.2,133c0.1,0.4,0.3,0.9,0.4,1.3c-0.2-0.2-0.6-0.3-0.6-0.5C77.8,133.6,78.1,133.3,78.2,133z"/>
	<path class="st0" d="M116.1,128.2c0,0.4,0,0.8,0,1.2c-0.2-0.3-0.4-0.5-0.6-0.8C115.7,128.5,115.9,128.4,116.1,128.2z"/>
	<path class="st0" d="M131.4,111.9c-0.3-0.3-0.4-0.6-0.1-0.9c0.2,0.2,0.5,0.3,0.7,0.5C131.8,111.6,131.6,111.8,131.4,111.9z"/>
	<path class="st0" d="M108.2,121.7c0.1-0.5,0.3-0.9,0.4-1.4c0.1,0.3,0.3,0.6,0.2,0.8C108.8,121.4,108.4,121.5,108.2,121.7z"/>
	<path class="st0" d="M51.3,154.6c0.2,0.3,0.5,0.6-0.1,0.9c-0.2-0.1-0.4-0.2-0.5-0.4C50.9,155,51.1,154.8,51.3,154.6z"/>
	<path class="st0" d="M116.1,115.5c0,0.4,0,0.8,0,1.2c-0.2-0.2-0.6-0.4-0.5-0.4C115.7,116,115.9,115.7,116.1,115.5z"/>
	<path class="st0" d="M106.7,81.2c-0.1,0.4-0.3,0.9-0.4,1.3c-0.1-0.3-0.3-0.6-0.2-0.9C106.2,81.5,106.5,81.3,106.7,81.2z"/>
	<path class="st0" d="M184.8,153.9c0.4-0.2,0.8-0.4,1.2-0.6c0,0.2-0.1,0.6-0.1,0.6C185.5,153.9,185.1,153.9,184.8,153.9z"/>
	<path class="st0" d="M67.8,106.5c0-0.4,0-0.7,0-1.1c0.3,0,0.7,0.1,0.5,0.5C68.3,106.1,68,106.3,67.8,106.5z"/>
	<path class="st2" d="M140.9,143.1c0.6-0.2,0.7,0.3,0.9,0.7c0.1,0.1-0.1,0.3-0.2,0.5C141.4,143.9,141.1,143.5,140.9,143.1z"/>
	<path class="st0" d="M137.8,117.4c0.2,0.3,0.2,0.6-0.1,0.9c-0.2-0.1-0.4-0.2-0.6-0.4C137.3,117.8,137.6,117.6,137.8,117.4z"/>
	<path class="st0" d="M70.9,101.6c0.5,0.2,0.2,0.6,0.2,0.9c-0.2-0.2-0.5-0.4-0.7-0.5C70.6,101.8,70.7,101.7,70.9,101.6z"/>
	<path class="st0" d="M106.2,82.8c-0.1,0.4-0.2,0.9-0.3,1.3C105.4,83.6,105.5,83,106.2,82.8z"/>
	<path class="st0" d="M33.1,50.4c0.2-0.4,0.4-0.8,0.6-1.2c0.4,0.6-0.1,0.9-0.3,1.3c-0.1,0-0.2,0-0.3,0
		C33.2,50.5,33.2,50.4,33.1,50.4z"/>
	<path class="st0" d="M102.5,96.3c-0.1,0.4-0.2,0.8-0.4,1.2c-0.1-0.2-0.2-0.4-0.2-0.7C102,96.5,102.1,96.2,102.5,96.3z"/>
	<path class="st0" d="M140,110.9c0,0.1,0,0.2,0,0.3c-0.2,0.3-0.3,0.5-0.5,0.8C139,111.2,139.2,111,140,110.9z"/>
	<path class="st0" d="M55.8,77.2c-0.1,0.4-0.3,0.7-0.4,1.1c-0.1-0.2-0.2-0.5-0.2-0.6C55.3,77.5,55.6,77.4,55.8,77.2z"/>
	<path class="st2" d="M184.3,140.5c0.1,0.7-0.5,0.5-0.9,0.7c-0.1,0-0.2-0.2-0.3-0.3C183.5,140.8,183.9,140.6,184.3,140.5z"/>
	<path class="st0" d="M146.4,101.8c-0.3,0.3-0.6,0.6-0.9,0.9c0.1-0.3,0.1-0.6,0.2-0.9C145.8,101.7,146.2,101.8,146.4,101.8z"/>
	<path class="st0" d="M67.4,125.2c0-0.4,0-0.7,0-1.1c0.2,0.1,0.4,0.3,0.5,0.4C67.7,124.8,67.6,125,67.4,125.2z"/>
	<path class="st0" d="M73,111c0.1,0.4,0.2,0.8,0.3,1.2c-0.5,0.1-0.6-0.3-0.6-0.6C72.6,111.4,72.9,111.2,73,111z"/>
	<path class="st0" d="M67.1,137.2c0-0.4,0-0.7,0-1.1c0.2,0.1,0.4,0.3,0.5,0.4C67.4,136.8,67.3,137,67.1,137.2z"/>
	<path class="st0" d="M103.2,93.6c-0.1,0.4-0.2,0.8-0.3,1.2c-0.1-0.2-0.3-0.4-0.3-0.5C102.8,94,103,93.8,103.2,93.6z"/>
	<path class="st0" d="M68.5,91.4c0.1,0.3,0.2,0.6,0.2,0.9c-0.3-0.1-0.6-0.2-0.9-0.3c0-0.1,0-0.3,0-0.4
		C68.1,91.5,68.3,91.4,68.5,91.4z"/>
	<path class="st0" d="M107.7,123.5c0.1-0.3,0.2-0.7,0.3-1c0.1,0.2,0.3,0.4,0.4,0.6C108.2,123.2,108,123.3,107.7,123.5z"/>
	<path class="st0" d="M190.8,117c0-0.2,0.1-0.4,0.1-0.6c0.2,0.2,0.5,0.3,0.7,0.5c-0.1,0.1-0.3,0.3-0.4,0.4
		C191.1,117.2,191,117.1,190.8,117z"/>
	<path class="st0" d="M115.4,93c0-0.3,0.1-0.6,0.1-0.9c0.2,0.1,0.5,0.2,0.7,0.3c0,0.1,0,0.2,0,0.3C116,92.8,115.7,92.9,115.4,93z"/>
	<path class="st0" d="M131.3,107.9c0-0.4,0-0.7,0-1.1c0.2,0.2,0.4,0.3,0.6,0.5C131.6,107.5,131.5,107.7,131.3,107.9z"/>
	<path class="st0" d="M103.6,92.4c-0.1,0.3-0.2,0.6-0.3,0.9c-0.1-0.1-0.3-0.3-0.4-0.4C103.2,92.7,103.4,92.6,103.6,92.4z"/>
	<path class="st2" d="M138.6,114.6c0.1,0.1,0.2,0.3,0.4,0.4c-0.2,0.2-0.4,0.3-0.7,0.5c0-0.2,0.1-0.3,0.1-0.5
		C138.5,114.9,138.6,114.8,138.6,114.6z"/>
	<path class="st0" d="M132.5,141.2c0-0.3,0-0.6,0-0.9c0.2,0.1,0.4,0.3,0.6,0.4C132.9,140.8,132.7,141,132.5,141.2z"/>
	<path class="st0" d="M131,99.5c0-0.3,0-0.6,0-0.9c0.2,0.1,0.4,0.3,0.6,0.4C131.4,99.1,131.2,99.3,131,99.5z"/>
	<path class="st0" d="M153.9,131.3c-0.1-0.3-0.1-0.6-0.2-0.9c0.2,0.2,0.5,0.4,0.7,0.5C154.3,131,154.1,131.1,153.9,131.3z"/>
	<path class="st0" d="M67.5,119.4c0-0.3,0-0.6,0-0.9c0.2,0.2,0.4,0.3,0.6,0.5C67.9,119.1,67.7,119.3,67.5,119.4z"/>
	<path class="st0" d="M66.9,142.6c0-0.4,0-0.7,0-1.1c0.2,0.2,0.4,0.4,0.5,0.5C67.3,142.3,67.1,142.5,66.9,142.6z"/>
	<path class="st0" d="M67.7,113.9c0-0.3,0-0.6,0-0.9c0.2,0.2,0.4,0.3,0.6,0.5C68,113.6,67.9,113.7,67.7,113.9z"/>
	<path class="st0" d="M130.5,87c0-0.4,0-0.7,0-1.1c0.2,0.2,0.4,0.3,0.6,0.5C130.9,86.6,130.7,86.8,130.5,87z"/>
	<path class="st0" d="M131.7,120.3c0-0.3,0-0.6,0-0.9c0.2,0.1,0.4,0.3,0.6,0.4C132.1,120,131.9,120.1,131.7,120.3z"/>
	<path class="st2" d="M175.3,95.9c-0.5,0.5-0.9,0.3-1.2-0.4C174.6,95.6,175,95.7,175.3,95.9z"/>
	<path class="st0" d="M180.7,155.3c0.4-0.1,0.7-0.3,1.1-0.4C181.6,155.8,181.4,155.9,180.7,155.3z"/>
	<path class="st0" d="M67.2,131.1c0-0.3,0-0.6,0-0.9c0.2,0.2,0.4,0.3,0.6,0.5C67.6,130.8,67.4,131,67.2,131.1z"/>
	<path class="st0" d="M102.5,143.1c0.1-0.3,0.2-0.6,0.3-0.9c0.1,0.1,0.3,0.3,0.4,0.4C102.9,142.8,102.7,142.9,102.5,143.1z"/>
	<path class="st0" d="M132.6,145.4c0-0.3,0-0.6,0-0.9c0.2,0.1,0.4,0.3,0.6,0.4C133,145,132.8,145.2,132.6,145.4z"/>
	<path class="st0" d="M107.3,125.1c0.1-0.3,0.2-0.6,0.3-0.9c0.1,0.1,0.3,0.3,0.4,0.4C107.7,124.8,107.5,124.9,107.3,125.1z"/>
	<path class="st0" d="M131.9,124.5c0-0.3,0-0.6,0-0.9c0.2,0.1,0.4,0.3,0.6,0.4C132.3,124.2,132.1,124.3,131.9,124.5z"/>
	<path class="st0" d="M138.4,115c0,0.2-0.1,0.3-0.1,0.5c0,0.1-0.1,0.3-0.1,0.4c0,0-0.1,0-0.1,0c-0.1-0.1-0.3-0.3-0.4-0.4
		C138,115.4,138.2,115.2,138.4,115z"/>
	<path class="st0" d="M114.9,95c0.1-0.3,0.2-0.6,0.3-0.9c0.1,0.1,0.3,0.3,0.4,0.4C115.4,94.6,115.2,94.8,114.9,95z"/>
	<path class="st0" d="M174.1,156.6c0.4,0,0.7-0.1,1.1-0.1C174.8,157.2,174.7,157.2,174.1,156.6z"/>
	<path class="st0" d="M172.8,156.7c0.4,0,0.7-0.1,1.1-0.1C173.5,157.3,173.4,157.4,172.8,156.7z"/>
	<path class="st0" d="M72.5,108.9c0.1,0.3,0.2,0.6,0.2,0.9c-0.2-0.1-0.4-0.3-0.7-0.4C72.2,109.2,72.3,109.1,72.5,108.9z"/>
	<path class="st2" d="M147.1,101.2c0.1,0.2,0.1,0.3,0.2,0.5c-0.3,0-0.5,0-0.8,0C146.7,101.6,146.9,101.4,147.1,101.2z"/>
	<path class="st0" d="M190.8,128.3c0.1-0.3,0.1-0.6,0.2-0.9c0.2,0.1,0.4,0.3,0.5,0.4C191.3,127.9,191.1,128.1,190.8,128.3z"/>
	<path class="st0" d="M55.3,33c0.3-0.1,0.6-0.2,0.9-0.2c-0.1,0.2-0.3,0.5-0.4,0.7C55.7,33.3,55.5,33.1,55.3,33z"/>
	<path class="st0" d="M102.9,95.1c-0.1,0.3-0.2,0.6-0.3,0.9c-0.1-0.1-0.3-0.3-0.4-0.4C102.4,95.4,102.6,95.3,102.9,95.1z"/>
	<path class="st0" d="M190.1,112.5c-0.1-0.1-0.1-0.2-0.2-0.3c0.1-0.1,0.2-0.2,0.3-0.3c0.2,0.2,0.4,0.3,0.6,0.5
		c-0.1,0.1-0.3,0.3-0.4,0.4C190.3,112.7,190.2,112.6,190.1,112.5z"/>
	<path class="st2" d="M139.2,113c0.1,0.2,0.3,0.5,0.2,0.6c-0.1,0.2-0.4,0.3-0.6,0.4C139,113.6,139.1,113.3,139.2,113z"/>
	<path class="st0" d="M191.1,118.7c0-0.2,0-0.4,0-0.6c0.7,0.3,0.7,0.4,0.3,0.9C191.3,118.8,191.2,118.8,191.1,118.7z"/>
	<path class="st0" d="M186.2,153.2c0.1-0.3,0.3-0.5,0.4-0.8c0.1,0.2,0.3,0.3,0.4,0.5C186.7,153,186.4,153.1,186.2,153.2z"/>
	<path class="st2" d="M143.6,147.1c0.8-0.2,0.8-0.1,0.8,0.9C144.2,147.7,143.9,147.4,143.6,147.1z"/>
	<path class="st0" d="M73.5,113.4c0.1,0.3,0.2,0.6,0.3,0.9c-0.2-0.1-0.4-0.3-0.7-0.4C73.2,113.7,73.4,113.5,73.5,113.4z"/>
	<path class="st0" d="M176.4,156.3c0.3-0.1,0.6-0.1,0.9-0.2c-0.2,0.2-0.3,0.4-0.5,0.6C176.6,156.6,176.5,156.4,176.4,156.3z"/>
	<path class="st0" d="M132.3,137c0-0.3,0-0.6,0-0.9c0.2,0.2,0.4,0.3,0.6,0.5C132.7,136.7,132.5,136.8,132.3,137z"/>
	<path class="st0" d="M132,128.6c0-0.3,0-0.6,0-0.9c0.2,0.2,0.4,0.3,0.6,0.5C132.4,128.3,132.2,128.4,132,128.6z"/>
	<path class="st0" d="M104.8,88c-0.1,0.3-0.2,0.6-0.3,0.9c-0.1-0.1-0.3-0.3-0.4-0.4C104.4,88.4,104.6,88.2,104.8,88z"/>
	<path class="st0" d="M143.1,105.6c0,0.1-0.1,0.2-0.1,0.3c-0.1,0.1-0.1,0.2-0.2,0.3c-0.1,0.1-0.2,0.1-0.3,0.2c0-0.3,0-0.5,0-0.8
		C142.7,105.6,142.9,105.6,143.1,105.6z"/>
	<path class="st0" d="M130.8,95.3c0-0.3,0-0.6,0-0.9c0.2,0.2,0.4,0.3,0.6,0.5C131.2,95,131,95.1,130.8,95.3z"/>
	<path class="st0" d="M45.1,203c-0.3-0.2-0.6-0.4-0.9-0.6C44.9,202.1,45,202.2,45.1,203z"/>
	<path class="st0" d="M77.4,129.6c0.1,0.3,0.2,0.6,0.2,0.9c-0.2-0.1-0.4-0.3-0.7-0.4C77.1,129.9,77.3,129.7,77.4,129.6z"/>
	<path class="st0" d="M191.2,124.2c0-0.3,0-0.6,0.1-0.9c0.2,0.1,0.4,0.2,0.5,0.4C191.6,123.8,191.4,124,191.2,124.2z"/>
	<path class="st0" d="M132.2,132.8c0-0.3,0-0.6,0-0.9c0.2,0.2,0.4,0.3,0.6,0.5C132.5,132.5,132.4,132.6,132.2,132.8z"/>
	<path class="st0" d="M78.6,134.8c0.1,0.3,0.2,0.6,0.2,0.9c-0.2-0.1-0.4-0.3-0.7-0.4C78.3,135.1,78.5,135,78.6,134.8z"/>
	<path class="st0" d="M209.3,57.6c0,0.3,0.1,0.6,0.1,0.9c-0.2-0.2-0.4-0.3-0.6-0.5C209,57.9,209.1,57.7,209.3,57.6z"/>
	<path class="st2" d="M186.6,140.7c-0.7-0.1-0.3-0.6-0.4-0.9C186.9,139.8,186.5,140.4,186.6,140.7z"/>
	<path class="st0" d="M103,141.2c0.1-0.2,0.1-0.4,0.2-0.7c0.1,0.2,0.3,0.4,0.4,0.5C103.4,141.1,103.2,141.2,103,141.2z"/>
	<path class="st0" d="M177.6,142.1c0.1-0.2,0.2-0.4,0.3-0.6c0.1,0.2,0.3,0.4,0.4,0.5c0,0,0,0.1,0,0.1
		C178.1,142.1,177.9,142.1,177.6,142.1z"/>
	<path class="st0" d="M81.2,145.8c0.1,0.3,0.2,0.6,0.2,0.9c-0.2-0.1-0.4-0.3-0.7-0.4C80.9,146.1,81,145.9,81.2,145.8z"/>
	<path class="st0" d="M66.8,146.8c0-0.3,0-0.6,0-0.9c0.2,0.1,0.4,0.3,0.5,0.4C67.1,146.5,67,146.7,66.8,146.8z"/>
	<path class="st0" d="M131.6,116.1c0-0.3,0-0.6,0-0.9c0.2,0.2,0.4,0.3,0.6,0.5C131.9,115.8,131.8,116,131.6,116.1z"/>
	<path class="st0" d="M183.7,32.9c0.3,0,0.6,0.1,0.9,0.1c-0.1,0.2-0.3,0.3-0.4,0.5C184.1,33.2,183.9,33.1,183.7,32.9z"/>
	<path class="st0" d="M102.1,97.8c-0.1,0.3-0.2,0.6-0.3,0.9c-0.1-0.1-0.3-0.3-0.4-0.4C101.7,98.1,101.9,98,102.1,97.8z"/>
	<path class="st0" d="M66.6,150.4c0-0.3,0-0.6,0-0.9c0.2,0.1,0.4,0.3,0.5,0.4C67,150.1,66.8,150.3,66.6,150.4z"/>
	<path class="st0" d="M198.6,39.7c0.3,0.2,0.5,0.4,0.8,0.7c-0.2,0.1-0.4,0.1-0.6,0.2C198.8,40.3,198.7,40,198.6,39.7z"/>
	<path class="st0" d="M132.9,153.6c0-0.3,0-0.6,0-0.9c0.2,0.2,0.4,0.3,0.6,0.5C133.3,153.3,133.1,153.5,132.9,153.6z"/>
	<path class="st0" d="M77,127.6c0.1,0.4,0.2,0.7,0.3,1.1C76.5,128.3,76.5,128.2,77,127.6z"/>
	<path class="st0" d="M70.5,100.2c0.1,0.3,0.1,0.6,0.2,0.9c-0.2-0.1-0.4-0.3-0.7-0.4C70.2,100.5,70.4,100.3,70.5,100.2z"/>
	<path class="st0" d="M69.1,94.1c0.1,0.3,0.1,0.6,0.2,0.9c-0.2-0.2-0.4-0.3-0.6-0.5C68.9,94.3,69,94.2,69.1,94.1z"/>
	<path class="st0" d="M77.8,131.6c0.1,0.3,0.1,0.6,0.2,0.9c-0.2-0.2-0.4-0.3-0.6-0.5C77.6,131.8,77.7,131.7,77.8,131.6z"/>
	<path class="st0" d="M130.4,82.8c0-0.3,0-0.6,0-0.9c0.2,0.1,0.4,0.3,0.5,0.4C130.7,82.5,130.6,82.6,130.4,82.8z"/>
	<path class="st0" d="M131.1,103.7c0-0.3,0-0.6,0-0.9c0.2,0.1,0.4,0.3,0.5,0.4C131.5,103.3,131.3,103.5,131.1,103.7z"/>
	<path class="st0" d="M71.4,104.3c0.1,0.3,0.1,0.6,0.2,0.9c-0.2-0.2-0.4-0.3-0.6-0.5C71.1,104.5,71.2,104.4,71.4,104.3z"/>
	<path class="st0" d="M54,106.2c0,0.2-0.1,0.5-0.1,0.7c-0.1-0.2-0.3-0.3-0.4-0.5C53.6,106.4,53.8,106.3,54,106.2z"/>
	<path class="st0" d="M79.3,138.2c0.1,0.3,0.2,0.6,0.3,0.9c-0.2-0.1-0.4-0.3-0.7-0.4C79.1,138.4,79.2,138.3,79.3,138.2z"/>
	<path class="st0" d="M35.4,193.5c-0.2-0.3-0.4-0.6-0.6-0.9C35.3,192.7,35.8,192.8,35.4,193.5z"/>
	<path class="st0" d="M180.7,141.4C180.7,141.4,180.7,141.5,180.7,141.4c-0.3,0.2-0.5,0.3-0.7,0.3c-0.1,0-0.1,0-0.2-0.1
		C180.1,141,180.3,141,180.7,141.4z"/>
	<path class="st0" d="M57,32.7c0.3-0.1,0.7-0.1,1-0.2C57.8,33.1,57.6,33.2,57,32.7z"/>
	<path class="st0" d="M52.2,140.5c-0.1,0.2-0.1,0.4-0.2,0.6c-0.1-0.1-0.3-0.2-0.4-0.3C51.8,140.8,52,140.7,52.2,140.5z"/>
	<path class="st0" d="M116.3,155.5c0,0.2,0.1,0.3,0.1,0.5c-0.1,0.1-0.2,0.2-0.3,0.3c-0.1-0.1-0.2-0.3-0.2-0.3
		C116,155.8,116.1,155.7,116.3,155.5z"/>
	<path class="st0" d="M195.9,37.7c0.3,0.2,0.6,0.5,1,0.7C196.3,38.4,195.8,38.5,195.9,37.7z"/>
	<path class="st0" d="M182,32.6c0.3,0,0.6,0.1,0.9,0.1C182.5,33.3,182.2,33.1,182,32.6z"/>
	<path class="st0" d="M44.1,202.3c-0.3-0.2-0.6-0.5-1-0.7C43.7,201.6,44.2,201.5,44.1,202.3z"/>
	<path class="st0" d="M42.3,201c-0.3-0.2-0.6-0.5-0.9-0.7C41.9,200.2,42.4,200.3,42.3,201z"/>
	<path class="st0" d="M185.1,33c0.3,0.1,0.6,0.2,0.9,0.3C185.5,33.8,185.3,33.7,185.1,33z"/>
	<path class="st0" d="M37.5,196.4c-0.2-0.3-0.5-0.6-0.7-0.9C37.5,195.4,37.5,195.8,37.5,196.4z"/>
	<path class="st0" d="M52.1,143.4c-0.1,0.2-0.1,0.4-0.2,0.6c-0.1-0.1-0.3-0.2-0.4-0.3C51.7,143.6,51.9,143.5,52.1,143.4z"/>
	<path class="st0" d="M36.1,194.6c-0.2-0.3-0.5-0.6-0.7-1C36.2,193.6,36.2,194.1,36.1,194.6z"/>
	<path class="st0" d="M181.8,141.3c-0.2,0-0.4,0.1-0.6,0.1c0.1-0.2,0.2-0.4,0.3-0.5c0.2,0.1,0.3,0.2,0.5,0.3
		C181.9,141.2,181.9,141.3,181.8,141.3z"/>
	<path class="st0" d="M41.4,200.3c-0.3-0.3-0.6-0.5-0.9-0.8C41.1,199.5,41.5,199.6,41.4,200.3z"/>
	<path class="st0" d="M34.7,47.6c0.2-0.3,0.4-0.6,0.6-0.9c0,0.1,0.1,0.2,0.1,0.3c-0.2,0.2-0.3,0.4-0.5,0.6
		C34.9,47.6,34.8,47.6,34.7,47.6z"/>
	<path class="st0" d="M56.1,207.3c-0.3-0.1-0.5-0.2-0.8-0.2c0.2-0.1,0.3-0.2,0.5-0.3C55.9,206.9,56,207.1,56.1,207.3z"/>
	<path class="st0" d="M44.4,37.6c0.3-0.2,0.6-0.4,0.9-0.6c0,0.1,0,0.2,0,0.3c-0.2,0.1-0.4,0.3-0.6,0.5
		C44.6,37.6,44.5,37.6,44.4,37.6z"/>
	<path class="st2" d="M137.4,119.1c0.1,0.1,0.3,0.3,0.4,0.4c-0.2,0.2-0.3,0.4-0.5,0.5C137.4,119.7,137.4,119.4,137.4,119.1z"/>
	<path class="st0" d="M52.3,33.7c0.3-0.1,0.6-0.2,0.9-0.2C53,33.9,52.8,34.4,52.3,33.7z"/>
	<path class="st0" d="M101,148.4c0.1-0.3,0.2-0.5,0.3-0.8c0.1,0.2,0.2,0.3,0.3,0.5C101.4,148.2,101.2,148.3,101,148.4z"/>
	<path class="st2" d="M145.4,102.9c0,0.2,0,0.4,0,0.7c-0.1-0.1-0.3-0.2-0.4-0.2C145.2,103.2,145.3,103,145.4,102.9z"/>
	<path class="st0" d="M201.9,43c0.2,0.2,0.4,0.4,0.6,0.6c-0.2,0-0.4,0-0.6-0.1C201.7,43.5,201.4,43.2,201.9,43z"/>
	<path class="st0" d="M114.7,96c0-0.2,0.1-0.3,0.1-0.5c0.1,0.1,0.3,0.2,0.4,0.3c-0.1,0.1-0.3,0.3-0.4,0.4
		C114.7,96.2,114.7,96.1,114.7,96z"/>
	<path class="st0" d="M132.8,149.4c0-0.3,0-0.5,0-0.8c0.1,0.1,0.3,0.2,0.4,0.4C133.1,149.1,132.9,149.3,132.8,149.4z"/>
	<path class="st2" d="M138.1,136.1c0.2,0.1,0.3,0.2,0.5,0.2c-0.1,0.2-0.2,0.3-0.3,0.5C138.2,136.6,138.1,136.3,138.1,136.1z"/>
	<path class="st0" d="M79.1,136.8c0.1,0.3,0.1,0.5,0.2,0.8c-0.2-0.1-0.3-0.2-0.5-0.3C78.9,137.1,79,137,79.1,136.8z"/>
	<path class="st0" d="M30.7,182.4c-0.1-0.2-0.2-0.5-0.2-0.7c0.2,0.1,0.4,0.1,0.5,0.2C30.9,182.1,30.8,182.2,30.7,182.4z"/>
	<path class="st0" d="M51.6,152c0,0.1,0.1,0.2,0.2,0.3c-0.1,0.1-0.3,0.3-0.4,0.4c-0.1-0.2-0.2-0.3-0.3-0.5
		C51.2,152.1,51.4,152,51.6,152z"/>
	<path class="st0" d="M97.4,114.5c-0.1,0.2-0.2,0.5-0.2,0.7c-0.1-0.2-0.2-0.3-0.3-0.5C97.1,114.6,97.3,114.6,97.4,114.5z"/>
	<path class="st0" d="M105.2,86.6c-0.1,0.3-0.1,0.5-0.2,0.8c-0.1-0.2-0.2-0.3-0.3-0.5C104.9,86.7,105,86.6,105.2,86.6z"/>
	<path class="st0" d="M30.3,180.6c0-0.2,0-0.5-0.1-0.7c0.2,0.1,0.3,0.2,0.5,0.4C30.6,180.4,30.5,180.5,30.3,180.6z"/>
	<path class="st0" d="M99.9,105.5c-0.1,0.2-0.1,0.5-0.2,0.7c-0.1-0.2-0.2-0.3-0.3-0.5C99.6,105.6,99.8,105.5,99.9,105.5z"/>
	<path class="st0" d="M34.6,192.3c-0.1-0.3-0.3-0.5-0.4-0.8C34.7,191.6,35,191.8,34.6,192.3z"/>
	<path class="st2" d="M177.6,142.1c0.2,0,0.5,0,0.7,0c-0.1,0.1-0.2,0.4-0.3,0.4C177.9,142.4,177.7,142.3,177.6,142.1
		C177.6,142.1,177.6,142.1,177.6,142.1z"/>
	<path class="st0" d="M104,90.9c-0.1,0.3-0.1,0.5-0.2,0.8c-0.1-0.2-0.2-0.3-0.3-0.5C103.7,91.1,103.8,91,104,90.9z"/>
	<path class="st3" d="M188.1,107.3c-0.2-0.4-0.4-0.7-0.5-1.1C187.7,106.5,187.9,106.9,188.1,107.3z"/>
	<path class="st0" d="M51.9,146.4c-0.1,0.3-0.2,0.5-0.3,0.8c-0.1-0.1-0.1-0.2-0.2-0.3c0-0.2,0-0.3,0-0.5
		C51.6,146.4,51.8,146.4,51.9,146.4z"/>
	<path class="st0" d="M191.1,126.6c0-0.2,0.1-0.5,0.1-0.7c0.1,0.2,0.3,0.3,0.4,0.5C191.4,126.4,191.2,126.5,191.1,126.6z"/>
	<path class="st0" d="M209.5,59.4c0.1,0.2,0.1,0.5,0.2,0.7C209.1,60,209.1,59.8,209.5,59.4z"/>
	<path class="st0" d="M104.3,89.9c-0.1,0.2-0.1,0.5-0.2,0.7c-0.1-0.2-0.2-0.3-0.3-0.5C104,90,104.2,90,104.3,89.9z"/>
	<path class="st0" d="M72,107.1c0.1,0.2,0.2,0.5,0.2,0.7c-0.2-0.1-0.3-0.2-0.5-0.3C71.8,107.4,71.9,107.2,72,107.1z"/>
	<path class="st0" d="M31.2,55.4c0.1-0.2,0.1-0.4,0.2-0.6c0.1,0.1,0.3,0.2,0.4,0.4C31.6,55.2,31.4,55.3,31.2,55.4z"/>
	<path class="st0" d="M96.2,118.7c-0.1,0.2-0.2,0.5-0.2,0.7c-0.1-0.2-0.2-0.3-0.3-0.5C95.9,118.8,96.1,118.7,96.2,118.7z"/>
	<path class="st2" d="M181.8,141.3c0.1,0,0.1-0.1,0.2-0.1c0.2,0,0.4-0.1,0.6-0.1c-0.1,0.2-0.2,0.3-0.2,0.5
		C182.1,141.5,182,141.4,181.8,141.3z"/>
	<path class="st0" d="M98.2,111.8c-0.1,0.2-0.2,0.5-0.2,0.7c-0.1-0.2-0.2-0.3-0.3-0.5C97.8,111.9,98,111.9,98.2,111.8z"/>
	<path class="st2" d="M137,129.3c0.1,0.1,0.3,0.2,0.4,0.3c-0.1,0.2-0.3,0.3-0.4,0.5C137,129.8,137,129.6,137,129.3z"/>
	<path class="st0" d="M175.2,142.3c0.1-0.1,0.2-0.3,0.3-0.4c0.1,0.1,0.3,0.3,0.4,0.4l0,0.1C175.7,142.4,175.4,142.4,175.2,142.3
		L175.2,142.3z"/>
	<path class="st0" d="M69.9,97.5c0,0.2,0.1,0.5,0.1,0.7C69.4,98.1,69.5,97.8,69.9,97.5z"/>
	<path class="st0" d="M101.7,99c-0.1,0.2-0.1,0.5-0.2,0.7c-0.1-0.2-0.2-0.3-0.3-0.5C101.4,99.2,101.6,99.1,101.7,99z"/>
	<path class="st0" d="M105.5,85.5c-0.1,0.2-0.2,0.5-0.2,0.7c-0.1-0.2-0.2-0.3-0.3-0.5C105.2,85.7,105.4,85.6,105.5,85.5z"/>
	<path class="st0" d="M105.8,84.5c-0.1,0.2-0.2,0.5-0.2,0.7c-0.1-0.2-0.2-0.3-0.3-0.5C105.5,84.6,105.7,84.5,105.8,84.5z"/>
	<path class="st0" d="M31,56.1c0-0.1,0-0.2,0.1-0.3c0.5,0.3,0.5,0.5,0.1,0.9C31.1,56.5,31.1,56.3,31,56.1z"/>
	<path class="st4" d="M182.4,100.2c-0.2-0.2-0.3-0.5-0.5-0.7C182.1,99.7,182.2,99.9,182.4,100.2z"/>
	<path class="st0" d="M54.1,100.5c0,0.3,0,0.5,0,0.8c-0.1-0.1-0.3-0.2-0.4-0.4C53.9,100.8,54,100.6,54.1,100.5z"/>
	<path class="st0" d="M38.3,197.2c-0.2-0.2-0.3-0.4-0.5-0.6c0.2-0.3,0.4-0.3,0.5,0C38.3,196.8,38.2,197,38.3,197.2z"/>
	<path class="st2" d="M137.1,121c0.1,0.1,0.3,0.2,0.4,0.4c-0.2,0.1-0.3,0.2-0.5,0.4C137.1,121.5,137.1,121.3,137.1,121z"/>
	<path class="st2" d="M138.1,115.9C138.2,115.9,138.2,115.9,138.1,115.9c0.2,0.1,0.3,0.2,0.4,0.4c-0.2,0.1-0.3,0.1-0.5,0.2
		C138.1,116.3,138.1,116.1,138.1,115.9z"/>
	<path class="st0" d="M51.3,156c0.2,0.1,0.4,0.1,0.6,0.2c-0.1,0.1-0.2,0.2-0.3,0.4C51.5,156.4,51.4,156.2,51.3,156z"/>
	<path class="st0" d="M186.9,33.6c0.2,0.1,0.4,0.1,0.6,0.2c-0.1,0.1-0.2,0.2-0.3,0.3C187.1,33.9,187,33.7,186.9,33.6z"/>
	<path class="st0" d="M165.8,142.2c-0.2,0-0.4-0.1-0.6-0.1c0.1-0.1,0.2-0.3,0.2-0.4C165.5,141.8,165.6,142,165.8,142.2z"/>
	<path class="st0" d="M96.5,117.6c0,0.2-0.1,0.4-0.1,0.7c-0.1-0.2-0.2-0.3-0.3-0.5C96.2,117.7,96.3,117.7,96.5,117.6z"/>
	<path class="st2" d="M139.4,139.9c0.2,0.1,0.3,0.1,0.5,0.2c-0.1,0.1-0.2,0.3-0.3,0.4C139.5,140.4,139.4,140.2,139.4,139.9z"/>
	<path class="st5" d="M94.2,125.7c0,0.2,0,0.5-0.1,0.7c-0.1-0.1-0.2-0.2-0.3-0.2c0-0.1,0-0.2,0.1-0.3
		C94,125.8,94.1,125.8,94.2,125.7z"/>
	<path class="st0" d="M71.7,105.7c0.1,0.2,0.1,0.4,0.2,0.6c-0.2-0.1-0.3-0.2-0.5-0.2C71.5,106,71.6,105.9,71.7,105.7z"/>
	<path class="st0" d="M208.5,54.7c0.1,0.2,0.1,0.4,0.2,0.6c-0.1-0.1-0.3-0.1-0.4-0.2C208.3,55,208.4,54.9,208.5,54.7z"/>
	<path class="st0" d="M52.2,137.7c0,0.3-0.1,0.5-0.1,0.8C51.7,138.1,51.6,137.9,52.2,137.7z"/>
	<path class="st0" d="M102.2,144c0.1-0.2,0.1-0.4,0.2-0.6c0.1,0.1,0.2,0.2,0.3,0.3C102.5,143.8,102.4,143.9,102.2,144z"/>
	<path class="st0" d="M182.4,129.9c0.2,0,0.4,0,0.6,0c-0.1,0.1-0.2,0.3-0.4,0.4C182.6,130.2,182.5,130.1,182.4,129.9z"/>
	<path class="st0" d="M37.6,43.5c0.2-0.2,0.3-0.4,0.5-0.6c-0.1,0.2-0.1,0.4-0.2,0.6C37.8,43.5,37.7,43.5,37.6,43.5z"/>
	<path class="st0" d="M54.3,97.7c0,0.2,0,0.4,0,0.6c-0.1-0.1-0.3-0.2-0.4-0.2C54,97.9,54.1,97.8,54.3,97.7z"/>
	<path class="st0" d="M54.4,94.8c0,0.2,0,0.4,0,0.6c-0.1-0.1-0.3-0.2-0.4-0.2C54.2,95,54.3,94.9,54.4,94.8z"/>
	<path class="st2" d="M148,100.5c0.1,0.1,0.2,0.2,0.2,0.3c-0.2,0-0.3-0.1-0.5-0.1C147.8,100.6,147.9,100.5,148,100.5z"/>
	<path class="st0" d="M57.9,207.5c-0.2,0-0.4-0.1-0.6-0.1c0.1-0.1,0.2-0.2,0.2-0.4C57.7,207.2,57.8,207.3,57.9,207.5z"/>
	<path class="st0" d="M52.3,134.9c0,0.2,0,0.4,0,0.6c-0.1-0.1-0.3-0.2-0.4-0.2C52.1,135.1,52.2,135,52.3,134.9z"/>
	<path class="st0" d="M31.5,185.4c-0.1-0.3-0.2-0.6-0.3-0.9C31.6,184.7,31.8,185,31.5,185.4z"/>
	<path class="st0" d="M169.2,142.5c-0.2,0-0.4,0-0.6,0c0.1-0.1,0.2-0.3,0.2-0.4C169,142.2,169.1,142.3,169.2,142.5z"/>
	<path class="st0" d="M34.2,48.3c0.1-0.2,0.3-0.4,0.4-0.7c0.1,0.1,0.1,0.1,0.2,0.2C34.8,48.3,34.6,48.3,34.2,48.3z"/>
	<path class="st0" d="M54,103.4c0,0.2,0,0.4,0,0.6c-0.1-0.1-0.3-0.2-0.4-0.2C53.7,103.6,53.8,103.5,54,103.4z"/>
	<path class="st0" d="M99.5,107.1c-0.1,0.2-0.1,0.4-0.2,0.6c-0.1-0.1-0.2-0.2-0.3-0.3C99.2,107.3,99.4,107.2,99.5,107.1z"/>
	<path class="st3" d="M187,105.6c0-0.1,0-0.2,0.1-0.3c0.1,0.3,0.3,0.6,0.4,0.8C187.4,106,187.2,105.8,187,105.6z"/>
	<path class="st0" d="M31,56.1c0.1,0.2,0.1,0.4,0.2,0.6c0,0,0,0.1,0,0.1c-0.1,0-0.2,0-0.3,0C30.9,56.6,31,56.3,31,56.1z"/>
	<path class="st0" d="M53.2,206.5c-0.2-0.1-0.5-0.1-0.7-0.2C52.9,205.8,53,206.4,53.2,206.5z"/>
	<path class="st3" d="M190.2,113.4c0-0.1-0.1-0.3-0.1-0.4c0.1,0.1,0.3,0.1,0.4,0.2C190.4,113.2,190.3,113.3,190.2,113.4z"/>
	<path class="st0" d="M40.8,40.3c0.2-0.1,0.3-0.3,0.5-0.4C41.2,40.5,41.2,40.5,40.8,40.3z"/>
	<path class="st3" d="M189.3,110.1c0.1,0,0.2,0,0.3,0c0,0.1,0,0.3,0,0.4C189.4,110.5,189,110.5,189.3,110.1z"/>
	<path class="st0" d="M43.3,38.2c0.2-0.1,0.4-0.3,0.6-0.4c0,0.1,0,0.3,0,0.4c-0.1,0-0.2,0-0.3,0C43.6,38.3,43.5,38.3,43.3,38.2
		L43.3,38.2z"/>
	<path class="st0" d="M53.7,109.1c0,0.2,0,0.4,0,0.6C53.3,109.4,53.3,109.2,53.7,109.1z"/>
	<path class="st3" d="M114.7,96c0,0.1,0,0.2,0,0.3c-0.1,0.1-0.2,0.1-0.3,0.2C114.5,96.3,114.6,96.2,114.7,96z"/>
	<path class="st0" d="M36.9,44.4c0.2-0.2,0.3-0.4,0.5-0.6c0,0.1,0,0.2,0,0.3c0,0.1,0,0.2,0,0.3C37.2,44.4,37.1,44.4,36.9,44.4
		L36.9,44.4z"/>
	<path class="st0" d="M51.3,152.7c0.1-0.1,0.3-0.3,0.4-0.4c-0.1,0.2-0.2,0.3-0.3,0.5C51.4,152.7,51.4,152.7,51.3,152.7z"/>
	<path class="st0" d="M52.5,132c0,0.2,0,0.4,0,0.6C52.1,132.4,52.1,132.2,52.5,132z"/>
	<path class="st2" d="M137.3,120.1c0.4,0.3,0.4,0.5-0.2,0.6C137.2,120.5,137.2,120.3,137.3,120.1z"/>
	<path class="st0" d="M41.6,39.6c0.2-0.2,0.4-0.3,0.6-0.5c0,0,0,0,0,0c0,0.1,0,0.2,0,0.3c-0.1,0-0.1,0.1-0.2,0.1c-0.1,0-0.2,0-0.3,0
		C41.7,39.6,41.6,39.6,41.6,39.6z"/>
	<path class="st0" d="M35.6,46.2c0.1-0.2,0.3-0.4,0.4-0.6c0,0,0,0,0,0c0,0.1,0,0.2,0,0.3c0,0.1,0,0.2,0,0.3
		C35.9,46.2,35.7,46.2,35.6,46.2z"/>
	<path class="st2" d="M137,122.7c0.4,0.2,0.4,0.4-0.1,0.6C136.9,123.1,137,122.9,137,122.7z"/>
	<path class="st0" d="M51.2,205.9c-0.2-0.1-0.3-0.2-0.5-0.2C51.1,205.4,51.1,205.6,51.2,205.9z"/>
	<path class="st0" d="M45.4,36.9c0.2-0.1,0.4-0.3,0.7-0.4c-0.2,0.1-0.3,0.3-0.5,0.4C45.5,36.9,45.5,36.9,45.4,36.9z"/>
	<path class="st0" d="M51.5,146.4c0,0.2,0,0.3,0,0.5c-0.1-0.1-0.2-0.2-0.3-0.3C51.3,146.5,51.4,146.5,51.5,146.4z"/>
	<path class="st0" d="M35.6,46.2c0.1,0,0.3,0,0.4,0c-0.2,0.1-0.4,0.1-0.6,0.2C35.5,46.3,35.5,46.3,35.6,46.2z"/>
	<path class="st0" d="M30.9,57.8c0.1,0.1,0.2,0.2,0.3,0.3c-0.1,0.1-0.2,0.1-0.3,0.2C30.9,58,30.9,57.9,30.9,57.8z"/>
	<path class="st0" d="M36.9,44.4c0.1,0,0.3,0,0.4,0c-0.1,0.1-0.2,0.2-0.2,0.3C37,44.6,37,44.5,36.9,44.4z"/>
	<path class="st0" d="M55.2,80.6c0,0.1,0,0.3,0,0.4C54.8,80.8,54.8,80.7,55.2,80.6z"/>
	<path class="st0" d="M30.9,57.8c0,0.2,0,0.3,0,0.5c-0.1,0-0.2,0-0.3,0c0-0.2,0.1-0.3,0.1-0.5C30.7,57.7,30.8,57.7,30.9,57.8z"/>
	<path class="st0" d="M52.6,129.3c0,0.1,0,0.3,0,0.4C52.2,129.6,52.3,129.4,52.6,129.3z"/>
	<path class="st0" d="M55,83.4c0,0.1,0,0.3,0,0.4C54.6,83.7,54.7,83.5,55,83.4z"/>
	<path class="st0" d="M51.9,146.4c-0.2,0-0.3,0-0.5,0c0.1-0.1,0.2-0.2,0.3-0.3C51.8,146.2,51.9,146.3,51.9,146.4z"/>
	<path class="st0" d="M30.3,60c0-0.1,0-0.3,0.1-0.4c0.1,0.1,0.1,0.1,0.2,0.2C30.5,59.8,30.4,59.9,30.3,60z"/>
	<path class="st0" d="M53.2,117.8c0,0.1,0,0.3,0,0.4C52.8,118,52.9,117.9,53.2,117.8z"/>
	<path class="st0" d="M54.9,86.3c0,0.1,0,0.3,0,0.4C54.5,86.5,54.5,86.4,54.9,86.3z"/>
	<path class="st4" d="M180.2,98.4c-0.2-0.1-0.3-0.2-0.5-0.3C179.9,98.2,180,98.3,180.2,98.4z"/>
	<path class="st0" d="M53.1,120.6c0,0.1,0,0.3,0,0.4C52.7,120.9,52.7,120.7,53.1,120.6z"/>
	<path class="st0" d="M52.9,123.5c0,0.1,0,0.3,0,0.4C52.5,123.7,52.6,123.6,52.9,123.5z"/>
	<path class="st0" d="M48.5,35.5c0-0.1,0-0.2,0-0.3c0.1,0,0.2-0.1,0.3-0.1C48.7,35.3,48.6,35.4,48.5,35.5z"/>
	<path class="st0" d="M51.3,149.7c-0.1-0.1-0.2-0.2-0.3-0.3c0.1-0.1,0.2-0.1,0.3-0.2C51.3,149.4,51.3,149.6,51.3,149.7z"/>
	<path class="st0" d="M51.3,149.7c0-0.1,0-0.3,0-0.4c0.1,0,0.2,0,0.3,0c0,0.2,0,0.3,0,0.5C51.5,149.7,51.4,149.7,51.3,149.7z"/>
	<path class="st0" d="M30.9,56.8c0.1,0,0.2,0,0.3,0c-0.1,0.1-0.3,0.2-0.4,0.3C30.8,57,30.8,56.9,30.9,56.8z"/>
	<path class="st0" d="M44,38.2c0-0.1,0-0.3,0-0.4c0.1,0,0.1-0.1,0.2-0.1C44.1,37.9,44,38.1,44,38.2z"/>
	<path class="st0" d="M54.6,92.1c0,0.1,0,0.3,0,0.4C54.2,92.4,54.2,92.2,54.6,92.1z"/>
	<path class="st0" d="M36.3,45.2c0.1-0.1,0.2-0.2,0.2-0.3c0,0.1,0.1,0.2,0.1,0.2C36.5,45.1,36.4,45.1,36.3,45.2z"/>
	<path class="st6" d="M191,116.2c-0.1-0.1-0.1-0.3-0.2-0.4C190.9,115.9,190.9,116.1,191,116.2z"/>
	<path class="st3" d="M190.2,111.9c-0.1,0.1-0.2,0.2-0.3,0.3c-0.1-0.1-0.1-0.2-0.2-0.3C189.9,111.9,190.1,111.9,190.2,111.9z"/>
	<path class="st7" d="M149.5,99.3c-0.1,0.1-0.2,0.3-0.3,0.4C149.3,99.6,149.4,99.4,149.5,99.3z"/>
	<path class="st6" d="M190.7,113.7c-0.1,0.1-0.1,0.1-0.2,0.2c-0.1-0.1-0.2-0.2-0.3-0.3C190.4,113.6,190.5,113.6,190.7,113.7z"/>
	<path class="st6" d="M190.8,117c0.1,0.1,0.3,0.2,0.4,0.3c-0.1,0-0.1,0-0.2,0C191,117.2,190.9,117.1,190.8,117z"/>
	<path class="st0" d="M45.9,203.4c-0.2-0.1-0.3-0.2-0.5-0.3C45.6,203.2,45.7,203.3,45.9,203.4z"/>
	<path class="st0" d="M42.6,38.8c0.1-0.1,0.2-0.2,0.3-0.2c0,0.1-0.1,0.2-0.1,0.3C42.7,38.9,42.7,38.8,42.6,38.8z"/>
	<path class="st7" d="M158.1,95.3c-0.2,0.1-0.3,0.2-0.5,0.3C157.8,95.4,158,95.3,158.1,95.3z"/>
	<path class="st8" d="M70.1,99.1c0.1,0.1,0.2,0.2,0.3,0.3C70.2,99.4,70.2,99.3,70.1,99.1z"/>
	<path class="st7" d="M156.5,96c-0.1,0-0.2,0-0.3,0c0-0.1,0.1-0.1,0.1-0.2C156.3,95.8,156.4,95.9,156.5,96z"/>
	<path class="st0" d="M35.4,47c0-0.1-0.1-0.2-0.1-0.3c0,0,0,0,0,0c0.1,0.1,0.2,0.1,0.3,0.2C35.5,46.8,35.5,46.9,35.4,47z"/>
	<path class="st0" d="M44.4,37.6c0.1,0,0.2,0.1,0.3,0.1c-0.1,0.1-0.1,0.1-0.2,0.2C44.5,37.8,44.4,37.7,44.4,37.6
		C44.4,37.6,44.4,37.6,44.4,37.6z"/>
	<path class="st5" d="M95.4,120.7c0.1,0.1,0.1,0.2,0.2,0.3C95.6,120.9,95.5,120.8,95.4,120.7z"/>
	<path class="st0" d="M42.1,39.5c0-0.1,0-0.2,0-0.3c0.1,0,0.1,0.1,0.2,0.1C42.3,39.4,42.2,39.4,42.1,39.5z"/>
	<path class="st9" d="M132.6,156c-0.1,0.1-0.2,0.2-0.3,0.3c0-0.1,0-0.2,0-0.3C132.4,156,132.5,156,132.6,156z"/>
	<path class="st0" d="M41.7,39.6c0.1,0,0.2,0,0.3,0c0,0.1-0.1,0.1-0.1,0.2C41.8,39.8,41.8,39.7,41.7,39.6z"/>
	<path class="st0" d="M45.4,36.9c0.1,0,0.1,0,0.2,0c-0.1,0.1-0.2,0.2-0.3,0.3C45.3,37.1,45.3,37,45.4,36.9
		C45.3,36.9,45.3,36.9,45.4,36.9z"/>
	<path class="st10" d="M191.1,118.7c0.1,0.1,0.2,0.2,0.3,0.3c0,0-0.1,0-0.1,0l-0.1,0C191.2,118.9,191.1,118.8,191.1,118.7z"/>
	<path class="st0" d="M53.4,114.9c0,0.1,0,0.2,0,0.3c-0.1-0.1-0.1-0.1-0.2-0.2C53.2,115,53.3,114.9,53.4,114.9z"/>
	<path class="st0" d="M51.6,149.2c-0.1,0-0.2,0-0.3,0c0.1-0.1,0.2-0.2,0.3-0.3C51.6,149.1,51.6,149.2,51.6,149.2z"/>
	<path class="st3" d="M190.1,112.5c0.1,0.1,0.2,0.2,0.3,0.3c-0.1,0-0.2,0-0.3,0C190.1,112.7,190.1,112.6,190.1,112.5z"/>
	<path class="st0" d="M33.2,50.6c0.1,0,0.2,0,0.3,0c0,0.1-0.1,0.1-0.1,0.2C33.3,50.7,33.2,50.6,33.2,50.6z"/>
	<path class="st0" d="M37.6,43.5c0.1,0,0.2,0,0.3,0C37.8,43.5,37.7,43.5,37.6,43.5C37.6,43.5,37.6,43.5,37.6,43.5z"/>
	<path class="st7" d="M155.2,96.1c-0.1,0.1-0.2,0.2-0.3,0.3C155,96.3,155.1,96.2,155.2,96.1z"/>
	<path class="st0" d="M37.3,44.1c0-0.1,0-0.2,0-0.3l0,0c0,0,0,0,0,0C37.4,43.9,37.4,44,37.3,44.1z"/>
	<path class="st0" d="M93.9,125.9c0,0.1,0,0.2-0.1,0.3c-0.1,0-0.1-0.1-0.2-0.1C93.8,126,93.9,125.9,93.9,125.9z"/>
	<path class="st0" d="M167.2,142.5c-0.1,0-0.2-0.1-0.3-0.1C167.1,142.4,167.2,142.4,167.2,142.5z"/>
	<path class="st0" d="M43.4,38.3c0.1,0,0.2,0,0.3,0c0,0.1-0.1,0.1-0.1,0.2C43.5,38.4,43.4,38.3,43.4,38.3z"/>
	<path class="st0" d="M36,45.9c0-0.1,0-0.2,0-0.3c0.1,0,0.1,0.1,0.2,0.1C36.1,45.8,36.1,45.9,36,45.9z"/>
	<path class="st0" d="M34.8,47.8c-0.1-0.1-0.1-0.1-0.2-0.2c0,0,0-0.1,0.1-0.1c0.1,0,0.2,0,0.3,0C34.9,47.7,34.9,47.8,34.8,47.8z"/>
	<path class="st9" d="M159.1,95.1c-0.1,0-0.2,0.1-0.3,0.1C158.9,95.2,159,95.1,159.1,95.1z"/>
	<path class="st0" d="M188.7,108.6c0-0.1-0.1-0.1-0.1-0.2C188.6,108.5,188.7,108.6,188.7,108.6z"/>
	<path class="st7" d="M177.7,96.9c0,0-0.1-0.1-0.1-0.1C177.7,96.8,177.7,96.8,177.7,96.9z"/>
	<path class="st7" d="M176.7,96.4c0,0-0.1-0.1-0.1-0.1C176.6,96.3,176.7,96.4,176.7,96.4z"/>
	<path class="st4" d="M178.6,97.3c-0.1,0-0.1-0.1-0.2-0.1C178.5,97.2,178.6,97.3,178.6,97.3z"/>
	<path class="st0" d="M48.6,204.9c-0.1,0-0.1-0.1-0.2-0.1C48.5,204.8,48.5,204.8,48.6,204.9z"/>
	<path class="st4" d="M179.5,97.9C179.5,97.8,179.5,97.8,179.5,97.9C179.6,97.8,179.5,97.8,179.5,97.9
		C179.5,97.9,179.5,97.9,179.5,97.9z"/>
	<path class="st7" d="M151.9,97.8c0,0-0.1,0.1-0.1,0.1C151.8,97.9,151.9,97.8,151.9,97.8z"/>
	<path class="st5" d="M151.7,153.6c0,0,0.1,0.1,0.1,0.1C151.7,153.7,151.7,153.6,151.7,153.6z"/>
	<path class="st4" d="M178.9,97.5c0,0-0.1-0.1-0.1-0.1C178.9,97.4,178.9,97.4,178.9,97.5z"/>
	<path class="st0" d="M116.3,92.4c-0.2-0.1-0.5-0.2-0.7-0.3c0-0.3,0.1-0.6,0.1-0.9c0.1,0,0.2,0,0.3,0c0.1,0.1,0.3,0.1,0.4,0.2
		C116.3,91.7,116.3,92.1,116.3,92.4z"/>
	<path class="st0" d="M67.9,90.9c0-0.6,0-1.2,0-1.7c0,0,0.1,0,0.1,0c0.1,0.2,0.1,0.5,0.2,0.7c0.1,0.1,0.3,0.3,0.4,0.4
		c-0.1,0.2-0.2,0.4-0.3,0.6C68.3,90.9,68.1,90.9,67.9,90.9z"/>
	<path class="st0" d="M116.4,91.4c-0.1-0.1-0.3-0.1-0.4-0.2c-0.1-0.1-0.1-0.2-0.2-0.3c0.1-0.2,0.2-0.5,0.3-0.7c0.1,0,0.2,0,0.3,0.1
		C116.4,90.6,116.4,91,116.4,91.4z"/>
	<path class="st0" d="M67.9,90.9c0.2,0,0.3,0,0.5,0c0,0.2,0.1,0.3,0.1,0.5c-0.2,0-0.4,0.1-0.6,0.1C67.9,91.3,67.9,91.1,67.9,90.9z"
		/>
	<path class="st3" d="M91.8,133.6c0.2,0,0.4,0,0.5,0C92.2,134,92.1,134,91.8,133.6z"/>
	<path class="st11" d="M66,155.7c0.1,0.1,0.1,0.2,0.2,0.2c-0.1,0-0.3-0.1-0.4-0.1C65.9,155.8,65.9,155.8,66,155.7z"/>
	<path class="st7" d="M68.7,90.3c-0.1-0.1-0.3-0.3-0.4-0.4C68.4,90,68.5,90.2,68.7,90.3z"/>
	<path class="st9" d="M115.8,90.9c0.1,0.1,0.1,0.2,0.2,0.3c-0.1,0-0.2,0-0.3,0C115.7,91.1,115.7,91,115.8,90.9z"/>
	<path class="st11" d="M65.7,156c-0.1,0.1-0.1,0.2-0.2,0.3C65.6,156.1,65.6,156,65.7,156z"/>
	<path class="st3" d="M92,133.1c-0.1,0.1-0.1,0.2-0.2,0.3C91.9,133.3,91.9,133.2,92,133.1z"/>
	<path class="st0" d="M116.4,89.3c0,0.1,0,0.2-0.1,0.4c0,0-0.1,0-0.1,0c0-0.1,0-0.3,0-0.4C116.3,89.3,116.3,89.3,116.4,89.3z"/>
	<path class="st0" d="M95.2,122.2c0,0,0-0.1,0-0.1c0,0,0,0,0.1,0C95.2,122.1,95.2,122.2,95.2,122.2z"/>
	<path class="st0" d="M116.1,90.1C116.1,90.1,116.1,90.1,116.1,90.1C116,90.1,116,90.1,116.1,90.1C116,90,116,90,116.1,90.1
		C116.1,90,116.1,90.1,116.1,90.1z"/>
	<path class="st1" d="M173.4,111.3c0.6,0.8,1.1,1.6,1.7,2.4c0,0.3-0.1,0.7,0,0.9c0.7,1,0.2,2.2,0.5,3.4c-0.7,0.1-1.3,0.2-1.8,0.2
		c-6.3,0-12.7,0-19,0c-0.3,0-0.5,0-1,0c0.2-0.9,0-1.8,0.5-2.7c0.6-1.1,1.2-2.2,1.6-3.3c0.2-0.6,0.7-0.8,1-1.1
		c0.7-0.7,1.4-1.4,2.1-2.1c0.2-0.2,0.6-0.1,0.8-0.3c0.8-0.8,2-0.5,2.9-1.1c0.2-0.2,0.7,0,1,0c0.6,0,1.1,0,1.7,0
		c0.6-0.1,1.2,0.3,1.8-0.1c0.1-0.1,0.3,0,0.4,0c0.8,0.3,1.5,0.9,2.3,1c0.8,0.1,1.2,0.7,1.7,1.1c0.3,0.2,0.6,0.5,0.8,0.7
		c0.2,0.2,0.3,0.3,0.5,0.5C173.1,110.9,173.2,111.1,173.4,111.3z"/>
	<path class="st2" d="M165.5,107.5c-0.6,0-1.1,0-1.7,0c0.2-0.7,0.7-0.4,1.1-0.4C165.1,107.1,165.3,107.4,165.5,107.5z"/>
	<path class="st2" d="M172.5,110.3c-0.3-0.2-0.6-0.5-0.8-0.7c0.3,0,0.6-0.1,0.8,0C172.6,109.7,173,110,172.5,110.3z"/>
	<path class="st2" d="M173.4,111.3c-0.2-0.2-0.3-0.4-0.5-0.6c0.1-0.1,0.3-0.2,0.4-0.3C173.4,110.7,173.4,111,173.4,111.3z"/>
	<path class="st2" d="M175.2,142.4c0.3,0,0.5,0,0.8,0c-0.1,0.1-0.2,0.3-0.4,0.4C175.5,142.7,175.3,142.5,175.2,142.4z"/>
	<path class="st2" d="M180,141.8c0.2-0.1,0.5-0.2,0.7-0.3c-0.1,0.2-0.1,0.4-0.2,0.5C180.3,141.9,180.2,141.9,180,141.8z"/>
	<path class="st3" d="M184.5,102.1c0.2,0.2,0.5,0.4,0.7,0.6C185,102.6,184.8,102.4,184.5,102.1z"/>
	<path class="st2" d="M144.1,104.4c0.1-0.1,0.1-0.2,0.2-0.3c0.1,0.2,0.1,0.3,0.2,0.5C144.4,104.5,144.3,104.4,144.1,104.4z"/>
	<path class="st2" d="M142.8,106.2c0.1-0.1,0.1-0.2,0.2-0.3c0,0.2,0.1,0.3,0.1,0.5C143,106.3,142.9,106.2,142.8,106.2z"/>
	<path class="st2" d="M185.2,140.1c0.1,0,0.2-0.1,0.3-0.1c0,0.1-0.1,0.2-0.1,0.3C185.3,140.3,185.3,140.2,185.2,140.1z"/>
	<path class="st3" d="M189.1,109.3c0,0.1,0.1,0.2,0.1,0.3C189.1,109.6,189.1,109.4,189.1,109.3z"/>
</g>
</svg>
