<?xml version="1.0" encoding="utf-8"?>
<!-- Generator: Adobe Illustrator 27.6.1, SVG Export Plug-In . SVG Version: 6.00 Build 0)  -->
<svg version="1.1" id="Layer_1" xmlns="http://www.w3.org/2000/svg" xmlns:xlink="http://www.w3.org/1999/xlink" x="0px" y="0px"
	 viewBox="0 0 240 240" style="enable-background:new 0 0 240 240;" xml:space="preserve">
<style type="text/css">
	.st0{fill:#001834;}
	.st1{fill:#031B37;}
	.st2{fill:#011935;}
	.st3{fill:#00A9FF;}
	.st4{fill:#007BBE;}
	.st5{fill:#00609A;}
	.st6{fill:#001A37;}
	.st7{fill:#001B38;}
	.st8{fill:#00A6FB;}
	.st9{fill:#001C39;}
	.st10{fill:#001A36;}
</style>
<g>
	<path class="st0" d="M30.3,61.8c0-0.5,0-0.9,0-1.4c0.5-0.2,0.9-0.4,1.4-0.7c-0.3-0.4-0.6-0.7-0.9-1.1c0.2-0.8,0.5-1.6,0.7-2.5
		c1.4,0.1,1.7-1,1.9-2.1c0-0.3-0.6-0.7-0.9-1.1c0.6-1.3,1.2-2.6,1.8-3.9c2-0.5,4.2-3.7,4.2-6c2-1.7,4-3.5,5.9-5.2
		c0.1-0.1,0.2-0.2,0.4-0.3c0.2-0.1,0.4-0.3,0.7-0.4c0.1-0.1,0.3-0.2,0.4-0.3c0.1,0,0.2-0.1,0.3-0.1c0.3,0.2,0.5,0.4,0.8,0.6
		c0.2-0.4,0.4-0.9,0.6-1.3c0.4-0.2,0.7-0.4,1.1-0.6c0.4,0.2,0.8,0.7,1,0.6c1.5-0.5,3-1,4.5-1.6c0.2-0.1,0.3-0.7,0.4-1.1
		c1-0.2,2.1-0.3,3.1-0.5c0.3,0.3,0.6,0.7,0.9,1c0.4-0.4,0.8-0.9,1.2-1.3c3.3-0.1,6.5-0.3,9.8-0.3c33.7,0,67.3,0,101,0
		c3.3,0,6.5,0.2,9.8,0.3c0.4,0.4,0.8,0.9,1.1,1.3c0.3-0.3,0.6-0.6,1-0.9c1.1,0.1,2.1,0.2,3.2,0.4c0.3,0.6,0.5,1.3,1,1.6
		c1,0.5,2.1,0.9,3.1,1.2c0.6,0.1,1.3-0.2,1.9-0.4c0.2,0.1,0.4,0.2,0.6,0.3c0.1,1.6,2.4,2.9,4.2,2.5c0.2,0.1,0.4,0.3,0.7,0.4
		c0.1,2.1,0.2,2.2,1.8,1.6c0.9,0.9,1.9,1.9,2.8,2.8c0,0.6-0.2,1.2,0.1,1.6c0.5,0.9,1.7,1.6,1.9,2.5c0.3,1.5,1,1.6,2.2,1.5
		c0.5,1.2,1,2.3,1.5,3.5c-1.3,1.5-0.8,3,1.3,3.5c0.1,0.9,0.2,1.9,0.4,2.8c-1.3,0.8-0.4,1.1,0.4,1.4c0,0.8,0,1.6,0,2.5
		c-0.3,0.5-0.9,1-0.9,1.5c0,0.3,0.8,0.6,1.2,1c0,0.4,0.1,0.8,0.1,1.2c0,35.6,0,71.2,0,106.8c0,0.4,0,0.8-0.1,1.2
		c-0.3,0.4-0.8,0.8-0.9,1.2c-0.1,0.2,0.6,0.6,0.9,0.9c-0.1,1.1-0.1,2.1-0.2,3.2c-0.2,0.2-0.5,0.4-0.7,0.5c0.2,0.2,0.4,0.3,0.6,0.5
		c-0.3,1.1-0.6,2.1-1,3.2c-1.5,0.5-1.8,1.2-1.1,3.2c-0.6,1.3-1.2,2.5-1.8,3.8c-0.6,0.2-1.4,0.2-1.6,0.6c-0.7,1.4-1.3,2.9-1.9,4.3
		c-1,1-2.1,2.1-3.1,3.1c-1.3-0.2-1.9,0.3-1.8,1.7c-0.9,0.6-1.9,1.2-2.8,1.9c-1.3-0.8-1.8-0.4-1.7,1.1c-0.2,0.1-0.5,0.2-0.7,0.3
		c-1.8-0.9-3.3,0.2-4.9,0.8c-0.5,0.2-0.8,1-1.1,1.6c-1.2,0.2-2.3,0.5-3.5,0.7c-0.3-0.3-0.7-1-0.9-0.9c-0.5,0.1-0.8,0.6-1.2,0.9
		c-1.3,0.1-2.6,0.3-3.9,0.3c-37.6,0-75.2,0-112.8,0c-1.3,0-2.6,0-3.8,0.1c-0.4-0.5-0.8-1.1-1.1-1.6c-0.3,0.4-0.6,0.9-1,1.3
		c-3.6-0.2-7-1.4-10.1-3.1c-9.1-5-14.9-12.4-16.8-22.7c0.3-0.4,0.6-0.7,0.9-1.1c-0.5-0.2-0.9-0.4-1.4-0.7c0-0.7,0-1.4,0-2.1
		c0-0.5,0-0.9,0-1.4c0-36.9,0-73.8,0-110.7c0.4-0.4,0.9-0.8,1.3-1.1c-0.3-0.3-0.7-0.6-1-1C30.6,62.8,30.5,62.3,30.3,61.8z
		 M138.4,104.1c-0.2,0-0.4,0-0.6-0.1c0,0.2,0.1,0.4,0.1,0.5c-0.5,0.9-1,1.9-1.4,2.8c-0.3,0.1-0.6,0.1-0.9,0.2
		c0.2,0.4,0.3,0.8,0.5,1.2c-0.2,0.9-0.4,1.9-0.7,2.8c-1.5,0.3-1.3,0.9-0.4,1.8c0.1,0.8,0.3,1.6,0.4,2.4c0.1,0.4,0.3,0.7,0.4,1.1
		c0,0.6,0,1.1,0,1.7c-1.1,1.3-1,1.7,0.7,2.5c0.2,0.4,0.4,0.7,0.6,1.1c-1.5,0.9,0.2,1.3,0.2,2c0.3-0.1,0.6-0.2,0.9-0.4
		c0.2,0.4,0.5,0.7,0.7,1.1c0.1,0.7,0.1,1.6,0.5,2c0.4,0.4,1.3,0.3,2,0.5c0.4,0.2,0.7,0.5,1.1,0.7c-0.2,0.2-0.3,0.5-0.5,0.7
		c0.4-0.1,0.7-0.2,1.1-0.3c0.5,0.3,0.9,0.6,1.4,0.9c0.2,0.5,0.5,0.9,0.7,1.4c0.2-0.2,0.5-0.4,0.7-0.6c1.4,0.7,2.8,1.4,4.2,2
		c0.1,0.1,0.2,0.2,0.3,0.3c0.4,0.1,0.7,0.3,1.1,0.4c0.1,0.4,0.1,1,0.3,1.1c1,0.5,2.1,0.9,3.2,1.2c0.4,0.1,0.9-0.3,1.4-0.5
		c1.5,0.9,3.1,1.8,4.6,2.7c-0.2,0.2-0.4,0.4-0.6,0.6c0.4,0,0.8,0.1,1.1,0.1l0.1,0.1c-0.3,1-1,2,0.4,2.7c-0.6,0.7-1.2,1.3-1.8,2
		c-0.4-0.3-0.9-0.9-1.2-0.8c-1.1,0.2-2.2,0.5-2.3,1.9c-2.1,0-4.2,0-6.3,0c-0.2-0.4-0.6-1.3-0.7-1.3c-1,0.3-2.3-1.4-3.2,0.3
		c-1.2-0.2-2.3-0.5-3.5-0.7c-0.4-0.6-0.8-1.3-1.3-1.7c-0.8-0.5-2-0.6-2.7-1.2c-1.3-1.2-2.4-0.8-3.6,0c-0.1,0.5-0.2,1-0.2,1.6
		c0,3.8-0.1,7.6,0,11.3c0,0.6,0.4,1.3,0.6,1.9c0.3,0.6,0.5,1.6,0.8,1.6c1.2,0.2,2.4,1.8,3.7,0.2c0.2,0.1,0.5,0.2,0.7,0.3
		c0.3,0.3,0.5,0.7,0.8,1c0.2-0.2,0.4-0.4,0.6-0.7c0.7,0.1,1.4,0.3,2.1,0.4c0.4,0.4,0.8,0.8,1.2,1.3c0.2-0.3,0.4-0.7,0.6-1
		c0.5,0,0.9,0.1,1.4,0.1c0.3,1.5,1,1.3,1.8,0.4c3.6-0.1,7.2-0.3,10.9-0.4c0.5,0.3,1,0.9,1.4,0.8c1.4-0.2,2.7-0.6,4-0.9
		c0.9-0.3,1.8-0.7,1.6-1.9c0.1-0.1,0.2-0.1,0.3-0.1c1.3,1.1,2.1-0.5,3.2-0.7c1.3-0.3,2.1-0.9,1.8-2.4c0.7-0.7,1.4-1.4,2.1-2.1
		c0.7-0.4,1.6-0.6,2.2-1.2c0.2-0.2-0.2-1.1-0.4-1.7c0.1-0.1,0.2-0.2,0.2-0.3c0.8-1.1,1.8-2.1,2.5-3.2c0.7-1,0.3-1.6-1-1.7
		c0.1-1.5,0.2-3,0.3-4.6c1.1-0.1,1.7-0.5,1-1.6c-0.2-0.3-0.1-0.6-0.1-1c0-1-0.5-1.6-1.6-1.6c-0.4-0.9-0.8-1.8-1.2-2.8
		c1.1-1.9-0.5-2.8-1.5-3.7c-2.2-1.9-4.5-3.5-6.9-5.1c-1.2-0.8-2.5-2.1-4.2-0.7c-0.6-0.2-1.1-0.4-1.7-0.7c-0.5-1.7-0.9-1.9-2.1-0.8
		c-0.6-0.2-1.2-0.5-1.8-0.7c-0.8-2.1-1.7-2.5-3.2-1.3c-1.2-0.8-2.5-1.5-3.6-2.5c-1.7-1.6-1.1-4.2,1.1-5.3c1.2,1.5,1.6,0.5,2.1-0.6
		c1.9,0,3.7-0.1,5.6-0.1c0.5,0.4,1,0.9,1.5,1.3c0.2-0.4,0.4-0.8,0.6-1.2c1.4,0.4,2.8,0.7,4.2,1.1c0.3,1.5,1,1.3,1.8,0.3
		c1.1,0.4,2.1,0.7,3.2,1.1c0.4,0.6,0.8,1.1,1.3,1.7c0.4-0.3,0.8-0.6,1.2-1c0.1-0.1,0.3-0.2,0.4-0.4c0.9,0,1.1-0.4,0.8-1.2
		c0-3.8,0.1-7.6,0.1-11.3c0.2-0.5,0.4-1,0.6-1.5c-0.6,0.1-1.3,0.2-1.9,0.3c-0.2-0.1-0.5-0.2-0.7-0.3c-0.2-0.6-0.5-1.1-0.7-1.7
		c-0.2,0.3-0.5,0.6-0.7,0.9c-0.4-0.1-0.7-0.2-1.1-0.3c-0.3-2.1-2.1-1-3.1-1.6c-0.1,0-0.5,0.5-0.7,0.8c-0.6-0.1-1.2-0.1-1.8-0.2
		c-0.2-0.4-0.5-0.7-0.7-1.1c-0.3,0.3-0.7,0.6-1,1c-3,0-6.1,0-9.1,0c-0.2-0.3-0.3-0.6-0.5-0.9c-0.3,0.3-0.6,0.7-0.9,1
		c-0.4,0.1-0.7,0.2-1.1,0.2c-0.2-0.3-0.4-0.6-0.5-0.9c-0.3,0.4-0.6,0.7-0.8,1.1c-0.4,0.1-0.7,0.2-1.1,0.3c-1.3-1.1-2-0.9-2.8,0.7
		c0,0.3,0,0.6,0,1c-0.5,0-0.9,0-1.4,0c-0.2-0.3-0.4-0.5-0.5-0.8c-0.2,0.4-0.3,0.8-0.5,1.2c-0.5,0.2-0.9,0.5-1.4,0.7
		c-0.2-0.1-0.3-0.1-0.5-0.2c0.1,0.2,0.2,0.3,0.2,0.5c-0.2,0.1-0.4,0.3-0.6,0.4c-0.3,0.2-1.4-0.6-0.8,0.7c-0.7,0.7-1.4,1.4-2.2,2.2
		c-0.2-0.2-0.4-0.4-0.6-0.6c-0.1,0.6-0.2,1.1-0.2,1.7L138.4,104.1z M80.4,77.2c-3.2,0.2-6.4,0.4-9.8,0.6c0,0.8,0,1.5,0,2.3
		c0,24.8,0,49.6-0.1,74.4c0,1.4,0.6,1.7,1.8,1.7c4.1,0,8.3-0.1,12.4,0c1.6,0,2.1-0.6,2.1-2.2c-0.1-6.9,0-13.9,0-20.8
		c0-0.6,0-1.2,0-1.9c1,0,1.8,0,2.7,0c0.3,0.3,0.5,0.6,0.8,0.9c0.2-0.2,0.4-0.4,0.6-0.7c1.7-0.1,3.5-0.2,5.2-0.2
		c0.2,0.3,0.4,0.6,0.5,0.9c0.3-0.3,0.6-0.6,0.9-0.9c2.9-0.5,5.8-1,8.8-1.4c0,1.2,0.5,1.6,1.7,1.1c1.8-0.7,3.6-1.4,5.5-2
		c1.1-0.3,1.3-1,1.2-2c0.6-0.4,1.2-0.9,1.8-1.3c1.2,0.8,1.9,0.3,2.1-1.5c1.2-1.2,2.3-2.4,3.5-3.6c0.2,0.2,0.3,0.4,0.5,0.6
		c0.2-0.2,0.6-0.5,0.5-0.6c-0.1-0.3-0.4-0.4-0.6-0.7c0.8-1.4,1.6-2.8,2.5-4.2c0.6-0.2,1.6-0.4,1.6-0.6c0-1.6,1.7-3.1,0.1-4.7
		c0.2-1.3,0.6-2.6,0.7-4c0.1-1.9,0-3.8,0-5.8c-0.1-0.1-0.2-0.2-0.3-0.4c0-0.8,0.3-1.6,0.1-2.3c-0.6-2-1.5-3.8-2.2-5.8
		c0.2-0.4,0.6-1.1,0.6-1.1c-0.5-0.4-1.1-0.7-1.7-1c-0.3-0.5-0.7-0.9-1-1.4c0.1-0.4,0.5-0.9,0.4-1c-0.5-0.6-1.1-1-1.7-1.4
		c-0.1,0.2-0.1,0.3-0.2,0.5c-0.6-0.5-1.1-1-1.7-1.5c-0.1-0.1-0.2-0.2-0.3-0.3c-0.2-0.2-0.3-0.4-0.5-0.7c0.2-0.3,0.3-0.5,0.5-0.8
		c-0.5,0-1,0-1.5,0c-2-1.2-4-2.4-5.9-3.6c-0.3-0.4-0.5-0.9-0.8-1.3c-0.3,0.2-0.6,0.5-0.9,0.7c-1.4-0.4-2.8-0.8-4.2-1.1
		c-0.3-0.4-0.6-0.9-0.8-1.3c-0.2,0.3-0.4,0.6-0.6,0.9c-0.8-0.1-1.8,0.1-2.3-0.3c-1.6-1.3-3.1-0.5-4.9-0.4
		c-5.2,0.3-10.4,0.1-15.6,0.1c-0.2-0.3-0.4-0.6-0.6-0.9C81,76.6,80.7,76.9,80.4,77.2z"/>
	<path class="st0" d="M30.7,63.2c0.3,0.3,0.7,0.6,1,1c-0.4,0.4-0.9,0.8-1.3,1.1c0-0.5,0-0.9,0-1.4C30.5,63.7,30.6,63.5,30.7,63.2z"
		/>
	<path class="st0" d="M30.8,181.3c-0.1-0.4-0.3-0.7-0.4-1.1c0-0.2,0-0.5,0-0.7c0.5,0.2,0.9,0.4,1.4,0.7
		C31.4,180.5,31.1,180.9,30.8,181.3z"/>
	<path class="st0" d="M30.3,60.1c0.1-0.5,0.3-0.9,0.4-1.4c0.3,0.4,0.6,0.7,0.9,1.1c-0.5,0.2-0.9,0.4-1.4,0.7
		C30.3,60.3,30.3,60.2,30.3,60.1z"/>
	<path class="st1" d="M30.7,63.2c-0.1,0.2-0.2,0.5-0.4,0.7c0-0.7,0-1.4,0-2.1C30.5,62.3,30.6,62.8,30.7,63.2z"/>
	<path class="st2" d="M30.3,176c0,0.5,0,0.9,0,1.4C30.3,176.9,30.3,176.5,30.3,176z"/>
	<path class="st3" d="M122.1,120.6c-1.2,1.2-2.3,2.4-3.5,3.6c-0.7,0.5-1.4,1-2.1,1.5c-0.6,0.4-1.2,0.9-1.8,1.3
		c-2.5,0.9-4.7,2.8-7.7,2.2c-0.2,0-0.5,0.4-0.7,0.7c-2.9,0.5-5.8,1-8.8,1.4c-0.5,0-0.9,0-1.4,0c-1.7,0.1-3.5,0.2-5.2,0.2
		c-0.5-0.1-0.9-0.2-1.4-0.3c-0.8,0-1.6,0-2.7,0c0,0.7,0,1.3,0,1.9c0,6.9,0,13.9,0,20.8c0,1.6-0.5,2.2-2.1,2.2
		c-4.1-0.1-8.3-0.1-12.4,0c-1.2,0-1.8-0.3-1.8-1.7c0-24.8,0-49.6,0.1-74.4c0-0.7,0-1.5,0-2.3c3.3-0.2,6.6-0.4,9.8-0.6
		c0.5,0,0.9,0,1.4,0c5.2,0,10.4,0.3,15.6-0.1c1.7-0.1,3.2-0.9,4.9,0.4c0.5,0.4,1.5,0.2,2.3,0.3c0.5,0.1,0.9,0.3,1.4,0.4
		c1.4,0.4,2.8,0.8,4.2,1.1c0.6,0.2,1.2,0.4,1.8,0.6c2,1.2,4,2.4,5.9,3.6c0.3,0.2,0.6,0.5,1,0.7c0.2,0.2,0.3,0.4,0.5,0.7
		c0.1,0.1,0.2,0.2,0.3,0.3c0.6,0.5,1.1,1,1.7,1.5c0.5,0.7,1,1.3,1.4,2c0.3,0.5,0.7,0.9,1,1.4c0.4,0.7,0.7,1.4,1.1,2.1
		c0.8,1.9,1.6,3.8,2.2,5.8c0.2,0.7-0.1,1.5-0.1,2.3c0.1,0.1,0.2,0.2,0.3,0.4c0,1.9,0.1,3.8,0,5.8c-0.1,1.3-0.4,2.6-0.7,4
		c-0.6,1.8-1.1,3.6-1.7,5.3c-0.8,1.4-1.6,2.8-2.5,4.2C122.3,120.2,122.2,120.4,122.1,120.6z M100,92.4c-0.7-0.1-1.4-0.2-2.1-0.4
		c-3.6,0-7.2,0-10.8,0c0,8.5,0,16.8,0,25.5c4.5-0.3,9-0.3,13.3-1.1c4.6-0.9,8.7-3.3,9.9-8.4c0.5-2.1,0.4-4.3,0.2-6.5
		C110,96.4,105.1,92.7,100,92.4z"/>
	<path class="st3" d="M158.5,118.9c0.6,0.2,1.2,0.5,1.8,0.7c0.7,0.3,1.4,0.5,2.1,0.8c0.6,0.2,1.1,0.4,1.7,0.7
		c4.7,2.5,9.6,4.7,12.6,9.5c0.4,0.9,0.8,1.8,1.2,2.8c0.2,1.4,0.5,2.8,0.7,4.2c-0.1,1.5-0.2,3-0.3,4.6c-0.5,1.6-1,3.3-1.5,4.9
		c-0.1,0.1-0.2,0.2-0.2,0.3c-0.6,1-1.2,1.9-1.8,2.9c-0.7,0.7-1.4,1.4-2.1,2.1c-1.7,1-3.3,2.1-5,3.1c-0.1,0-0.2,0-0.3,0.1
		c-2.3,0.7-4.7,1.3-7,2c-3.6,0.1-7.2,0.3-10.9,0.4c-0.6-0.1-1.2-0.2-1.8-0.4c-0.5,0-0.9-0.1-1.4-0.1c-0.6-0.1-1.2-0.2-1.8-0.3
		c-0.7-0.1-1.4-0.3-2.1-0.4c-0.5-0.1-0.9-0.2-1.4-0.3c-0.2-0.1-0.5-0.2-0.7-0.3c-1.5-0.6-3-1.2-4.6-1.8c-0.2-0.6-0.6-1.3-0.6-1.9
		c0-3.8,0-7.6,0-11.3c0.2-0.3,0.4-0.7,0.6-1c1.1,0.3,2.3,0.6,3.4,1c1.3,0.4,2.6,1,3.9,1.4c1.2,0.2,2.3,0.5,3.5,0.7
		c0.7,0.2,1.4,0.4,2.2,0.6c0.2,0.2,0.4,0.5,0.7,0.7c0.3-0.1,0.7-0.2,1-0.3c2.1,0,4.2,0,6.3,0c1.2-0.4,2.3-0.7,3.5-1.1
		c0.6-0.7,1.2-1.3,1.8-2c-0.1-0.9-0.3-1.8-0.4-2.7c0,0-0.1-0.1-0.1-0.1c-0.2-0.2-0.4-0.5-0.6-0.7c-1.5-0.9-3.1-1.8-4.6-2.7
		c-1.6-0.6-3.3-1.2-4.9-1.8c-0.4-0.1-0.7-0.3-1.1-0.4c-0.1-0.1-0.2-0.2-0.3-0.3c-1.4-0.7-2.8-1.4-4.2-2c-0.5-0.3-0.9-0.5-1.4-0.8
		c-0.5-0.3-0.9-0.6-1.4-0.9c-0.2-0.2-0.4-0.3-0.6-0.5c-0.4-0.2-0.7-0.5-1.1-0.7c-0.8-0.8-1.6-1.6-2.4-2.4c-0.2-0.4-0.5-0.7-0.7-1.1
		c-0.4-0.6-0.8-1.1-1.1-1.7c-0.2-0.4-0.4-0.7-0.6-1.1c-0.2-0.8-0.5-1.6-0.7-2.5c0-0.6,0-1.1,0-1.7c0.1-0.2,0.2-0.5,0.2-0.7
		c-0.1-0.1-0.2-0.2-0.3-0.3c-0.1,0-0.2-0.1-0.4-0.1c-0.1-0.8-0.3-1.6-0.4-2.4c0.1-0.6,0.3-1.2,0.4-1.8c0.2-0.9,0.4-1.9,0.7-2.8
		c0.1-0.5,0.3-0.9,0.4-1.4c0.5-0.9,1-1.9,1.4-2.8c0.2-0.2,0.3-0.3,0.5-0.5c0,0,0-0.1,0-0.1c0.3-0.4,0.6-0.7,0.9-1.1
		c0.7-0.7,1.4-1.4,2.2-2.2c0.3-0.2,0.6-0.5,0.8-0.7c0.2-0.1,0.4-0.3,0.6-0.4c0.1-0.1,0.2-0.2,0.3-0.3c0.5-0.2,0.9-0.5,1.4-0.7
		c0.3-0.2,0.7-0.3,1-0.5c0.5,0,0.9,0,1.4,0c0.2-0.2,0.5-0.4,0.7-0.6c0.7-0.3,1.4-0.7,2.1-1c0.4-0.1,0.7-0.2,1.1-0.3
		c0.5,0,0.9-0.1,1.4-0.1c0.4-0.1,0.7-0.2,1.1-0.2c0.5,0,0.9-0.1,1.4-0.1c3,0,6.1,0,9.1,0c0.6,0,1.2,0.1,1.7,0.1
		c0.6,0.1,1.2,0.1,1.8,0.2c1.3,0.2,2.6,0.5,3.9,0.7c0.4,0.1,0.7,0.2,1.1,0.3c0.5,0.3,0.9,0.5,1.4,0.8c0.2,0.1,0.5,0.2,0.7,0.3
		c0.4,0.4,0.9,0.8,1.3,1.2c0,3.8-0.1,7.6-0.1,11.3c-0.3,0.4-0.5,0.8-0.8,1.2c-0.1,0.1-0.3,0.2-0.4,0.4c-0.8-0.2-1.6-0.5-2.5-0.7
		c-1.1-0.4-2.1-0.7-3.2-1.1c-0.6-0.1-1.2-0.2-1.8-0.3c-1.4-0.4-2.8-0.7-4.2-1.1c-0.7-0.8-1.4-1.3-2.1-0.1c-1.9,0-3.7,0.1-5.6,0.1
		c-0.7,0.2-1.4,0.4-2.1,0.6c-2.2,1.1-2.8,3.6-1.1,5.3c1,1,2.4,1.7,3.6,2.5C156.4,118,157.5,118.4,158.5,118.9z"/>
	<path class="st0" d="M176.7,130.5c-3-4.8-7.9-6.9-12.6-9.5c1.6-1.5,3-0.1,4.2,0.7c2.4,1.6,4.8,3.2,6.9,5.1
		C176.1,127.7,177.8,128.7,176.7,130.5z"/>
	<path class="st0" d="M106.3,129.8c0.2-0.2,0.5-0.7,0.7-0.7c3,0.6,5.1-1.4,7.7-2.2c0.1,1-0.1,1.6-1.2,2c-1.9,0.6-3.7,1.3-5.5,2
		C106.8,131.4,106.4,131,106.3,129.8z"/>
	<path class="st0" d="M143.1,142.4c-1.3-0.5-2.6-1-3.9-1.4c-1.1-0.4-2.3-0.7-3.4-1c-0.1-0.2-0.2-0.4-0.3-0.5c1.2-0.7,2.3-1.1,3.6,0
		c0.7,0.6,1.9,0.7,2.7,1.2C142.4,141.1,142.7,141.8,143.1,142.4z"/>
	<path class="st0" d="M160.3,157.4c2.3-0.7,4.7-1.3,7-2c0.2,1.2-0.7,1.6-1.6,1.9c-1.3,0.4-2.7,0.8-4,0.9
		C161.3,158.3,160.8,157.7,160.3,157.4z"/>
	<path class="st0" d="M185.5,33.5c2,0.9,4.4,0.7,6.1,2.4c-0.6,0.1-1.3,0.5-1.9,0.4c-1.1-0.2-2.2-0.6-3.1-1.2
		C186,34.9,185.8,34.1,185.5,33.5z"/>
	<path class="st0" d="M201.7,43.6c1.4,1.9,2.7,3.7,4.1,5.6c-1.1,0.1-1.9-0.1-2.2-1.5c-0.2-0.9-1.3-1.6-1.9-2.5
		C201.5,44.8,201.7,44.2,201.7,43.6z"/>
	<path class="st0" d="M34.2,49.2c1.4-2,2.8-4,4.2-6C38.3,45.5,36.1,48.7,34.2,49.2z"/>
	<path class="st0" d="M191.8,204c-2,0.8-4,1.6-6,2.4c0.4-0.5,0.6-1.4,1.1-1.6C188.5,204.2,190,203.2,191.8,204z"/>
	<path class="st0" d="M124.9,115.8c0.6-1.8,1.1-3.6,1.7-5.3c1.6,1.6-0.1,3.1-0.1,4.7C126.5,115.3,125.5,115.6,124.9,115.8z"/>
	<path class="st0" d="M48.5,35.6c2-0.7,4-1.4,6-2.1c-0.1,0.4-0.2,1-0.4,1.1c-1.5,0.6-3,1.2-4.5,1.6C49.3,36.3,48.9,35.8,48.5,35.6z"
		/>
	<path class="st0" d="M151.5,132.9c1.6,0.6,3.3,1.2,4.9,1.8c-0.5,0.2-1,0.6-1.4,0.5c-1.1-0.3-2.2-0.7-3.2-1.2
		C151.6,134,151.6,133.3,151.5,132.9z"/>
	<path class="st0" d="M205.5,191.1c-1.2,1.6-2.3,3.3-3.5,4.9c0.6-1.5,1.1-3,1.9-4.3C204.1,191.3,204.9,191.3,205.5,191.1z"/>
	<path class="st0" d="M135.8,154.3c1.5,0.6,3,1.2,4.6,1.8c-1.3,1.6-2.5,0-3.7-0.2C136.2,155.9,136,154.9,135.8,154.3z"/>
	<path class="st0" d="M167.6,155.3c1.7-1,3.3-2.1,5-3.1c0.2,1.4-0.5,2.1-1.8,2.4C169.7,154.9,168.9,156.4,167.6,155.3z"/>
	<path class="st0" d="M176.7,146.9c0.5-1.6,1-3.3,1.5-4.9c1.2,0,1.6,0.7,1,1.7C178.5,144.8,177.5,145.9,176.7,146.9z"/>
	<path class="st0" d="M178.6,137.5c-0.2-1.4-0.5-2.8-0.7-4.2c1.1,0,1.5,0.6,1.6,1.6c0,0.3,0,0.7,0.1,1
		C180.2,137,179.7,137.4,178.6,137.5z"/>
	<path class="st0" d="M192.2,36.2c1.4,0.8,2.8,1.7,4.2,2.5C194.5,39.1,192.3,37.8,192.2,36.2z"/>
	<path class="st0" d="M148.8,143.7c-0.7-0.2-1.4-0.4-2.2-0.6c0.9-1.7,2.1,0,3.2-0.3c0.1,0,0.5,0.8,0.7,1.3c-0.3,0.1-0.7,0.2-1,0.3
		C149.2,144.2,149,143.9,148.8,143.7z"/>
	<path class="st0" d="M31.4,56.2c0.3-1.1,0.6-2.1,1-3.2c0.3,0.4,1,0.8,0.9,1.1C33.2,55.2,32.9,56.3,31.4,56.2z"/>
	<path class="st0" d="M160.3,143c-1.2,0.4-2.3,0.7-3.5,1.1c0.1-1.4,1.3-1.7,2.3-1.9C159.4,142.1,159.9,142.7,160.3,143z"/>
	<path class="st0" d="M207.3,52.7c0.4,1.2,0.9,2.4,1.3,3.5C206.5,55.7,205.9,54.2,207.3,52.7z"/>
	<path class="st0" d="M139,124.9c0.8,0.8,1.6,1.6,2.4,2.4c-0.7-0.1-1.6-0.1-2-0.5C139,126.4,139.1,125.5,139,124.9z"/>
	<path class="st0" d="M171.1,96.8c-1.3-0.2-2.6-0.5-3.9-0.7c0.2-0.3,0.7-0.9,0.7-0.8C169,95.8,170.9,94.7,171.1,96.8z"/>
	<path class="st0" d="M158.5,118.9c-1.1-0.4-2.1-0.9-3.2-1.3C156.8,116.4,157.7,116.8,158.5,118.9z"/>
	<path class="st0" d="M174.7,150.1c0.6-1,1.2-1.9,1.8-2.9c0.1,0.6,0.6,1.5,0.4,1.7C176.3,149.5,175.4,149.7,174.7,150.1z"/>
	<path class="st0" d="M160.6,109.1c0.8-1.2,1.4-0.7,2.1,0.1c-0.2,0.4-0.4,0.8-0.6,1.2C161.6,110,161.1,109.5,160.6,109.1z"/>
	<path class="st0" d="M122.8,88.8c-0.5-0.7-1-1.3-1.4-2c0.1-0.2,0.1-0.3,0.2-0.5c0.6,0.5,1.2,0.9,1.7,1.4
		C123.3,87.9,122.9,88.4,122.8,88.8z"/>
	<path class="st0" d="M149.8,96.5c-0.7,0.3-1.4,0.7-2.1,1c-0.2-0.1-0.5-0.2-0.7-0.4C147.8,95.6,148.5,95.4,149.8,96.5z"/>
	<path class="st0" d="M208.3,184.1c-0.4,1.1-0.7,2.1-1.1,3.2C206.5,185.2,206.8,184.5,208.3,184.1z"/>
	<path class="st0" d="M209.3,62.9c0.1,0.8,0.2,1.6,0.4,2.5c-0.4-0.3-1.2-0.7-1.2-1C208.4,63.9,208.9,63.4,209.3,62.9z"/>
	<path class="st0" d="M171.8,111.6c0.8,0.2,1.6,0.5,2.5,0.7c-0.4,0.3-0.8,0.6-1.2,1C172.7,112.7,172.3,112.2,171.8,111.6z"/>
	<path class="st0" d="M59.8,207.5c-0.7-0.1-1.4-0.2-2.1-0.4c0.3-0.4,0.6-0.9,1-1.3C59,206.4,59.4,206.9,59.8,207.5z"/>
	<path class="st0" d="M135.8,118.6c0.2,0.8,0.5,1.6,0.7,2.5C134.8,120.3,134.7,119.8,135.8,118.6z"/>
	<path class="st0" d="M175.6,99.4c-0.4-0.4-0.9-0.8-1.3-1.2c0.6-0.1,1.3-0.2,1.9-0.3C176,98.5,175.8,98.9,175.6,99.4z"/>
	<path class="st0" d="M124.9,92.3c-0.4-0.7-0.7-1.4-1.1-2.1c0.6,0.3,1.2,0.6,1.7,1C125.5,91.2,125.1,91.9,124.9,92.3z"/>
	<path class="st0" d="M161.7,138.3c0.1,0.9,0.3,1.8,0.4,2.7C160.7,140.3,161.4,139.3,161.7,138.3z"/>
	<path class="st0" d="M57.6,33.1c0.7-0.1,1.4-0.2,2.1-0.3c-0.4,0.4-0.8,0.9-1.2,1.3C58.3,33.8,57.9,33.4,57.6,33.1z"/>
	<path class="st0" d="M137.1,122.1c0.4,0.6,0.8,1.1,1.1,1.7c-0.3,0.1-0.6,0.2-0.9,0.4C137.3,123.4,135.6,122.9,137.1,122.1z"/>
	<path class="st0" d="M180.2,32.8c0.7,0.1,1.4,0.2,2.1,0.4c-0.3,0.3-0.6,0.6-1,0.9C181,33.7,180.6,33.2,180.2,32.8z"/>
	<path class="st0" d="M197.1,39.1c0.6,0.5,1.2,1.1,1.8,1.6C197.3,41.3,197.1,41.2,197.1,39.1z"/>
	<path class="st0" d="M116.5,125.6c0.7-0.5,1.4-1,2.1-1.5C118.4,126,117.7,126.5,116.5,125.6z"/>
	<path class="st0" d="M162.4,120.4c-0.7-0.3-1.4-0.5-2.1-0.8C161.4,118.5,161.8,118.7,162.4,120.4z"/>
	<path class="st0" d="M182.3,207.1c-0.7,0-1.4,0-2.1,0c0.4-0.3,0.8-0.8,1.2-0.9C181.7,206.2,182,206.8,182.3,207.1z"/>
	<path class="st0" d="M209.6,174.6c0,0.7,0,1.4,0,2.1c-0.3-0.3-1-0.7-0.9-0.9C208.8,175.4,209.3,175,209.6,174.6z"/>
	<path class="st0" d="M144.5,157.2c0.6,0.1,1.2,0.2,1.8,0.3c-0.2,0.3-0.4,0.7-0.6,1C145.3,158,144.9,157.6,144.5,157.2z"/>
	<path class="st0" d="M152.9,109.8c0.7-0.2,1.4-0.4,2.1-0.6C154.5,110.2,154.1,111.3,152.9,109.8z"/>
	<path class="st0" d="M111.9,80c-0.6-0.2-1.2-0.4-1.8-0.6c0.3-0.2,0.6-0.5,0.9-0.7C111.4,79.1,111.7,79.6,111.9,80z"/>
	<path class="st0" d="M165.5,95.9c-0.6,0-1.2-0.1-1.7-0.1c0.3-0.3,0.7-0.6,1-1C165,95.1,165.3,95.5,165.5,95.9z"/>
	<path class="st0" d="M194.3,202.7c-0.6,0.4-1.2,0.7-1.7,1.1C192.4,202.3,193,201.8,194.3,202.7z"/>
	<path class="st0" d="M198.8,199.1c-0.6,0.6-1.2,1.1-1.8,1.7C196.9,199.5,197.6,199,198.8,199.1z"/>
	<path class="st0" d="M173.6,97.9c-0.5-0.3-0.9-0.5-1.4-0.8c0.2-0.3,0.5-0.6,0.7-0.9C173.1,96.8,173.3,97.4,173.6,97.9z"/>
	<path class="st0" d="M147.7,157.5c0.6,0.1,1.2,0.2,1.8,0.4C148.6,158.8,148,159,147.7,157.5z"/>
	<path class="st0" d="M135.4,111.6c-0.1,0.6-0.3,1.2-0.4,1.8C134.1,112.5,133.9,111.9,135.4,111.6z"/>
	<path class="st0" d="M118.9,84.3c-0.3-0.2-0.6-0.5-1-0.7c0.5,0,1,0,1.5,0C119.2,83.8,119,84,118.9,84.3z"/>
	<path class="st0" d="M166.9,110.2c0.6,0.1,1.2,0.2,1.8,0.3C167.9,111.5,167.3,111.7,166.9,110.2z"/>
	<path class="st0" d="M46.1,36.9c0.5-0.2,0.9-0.5,1.4-0.7c-0.2,0.4-0.4,0.9-0.6,1.3C46.6,37.3,46.4,37.1,46.1,36.9z"/>
	<path class="st0" d="M136.5,107.4c-0.1,0.5-0.3,0.9-0.4,1.4c-0.2-0.4-0.3-0.8-0.5-1.2C135.9,107.5,136.2,107.4,136.5,107.4z"/>
	<path class="st0" d="M106,78.2c-0.5-0.1-0.9-0.3-1.4-0.4c0.2-0.3,0.4-0.6,0.6-0.9C105.4,77.4,105.7,77.8,106,78.2z"/>
	<path class="st0" d="M145.6,98.2c-0.3,0.2-0.7,0.3-1,0.5c0.2-0.4,0.3-0.8,0.5-1.2C145.2,97.6,145.4,97.9,145.6,98.2z"/>
	<path class="st0" d="M144.5,129.4c0.5,0.3,0.9,0.5,1.4,0.8c-0.2,0.2-0.5,0.4-0.7,0.6C145,130.3,144.8,129.9,144.5,129.4z"/>
	<path class="st0" d="M96.2,131.2c0.5,0,0.9,0,1.4,0c-0.3,0.3-0.6,0.6-0.9,0.9C96.5,131.9,96.4,131.6,96.2,131.2z"/>
	<path class="st0" d="M141,156.4c0.5,0.1,0.9,0.2,1.4,0.3c-0.2,0.2-0.4,0.4-0.6,0.7C141.5,157,141.3,156.7,141,156.4z"/>
	<path class="st0" d="M89.5,131.2c0.5,0.1,0.9,0.2,1.4,0.3c-0.2,0.2-0.4,0.4-0.6,0.7C90.1,131.9,89.8,131.5,89.5,131.2z"/>
	<path class="st0" d="M139.3,102.9c-0.3,0.4-0.6,0.7-0.9,1.1c0.1-0.6,0.2-1.1,0.2-1.7C138.9,102.5,139.1,102.7,139.3,102.9z"/>
	<path class="st0" d="M81.8,77.2c-0.5,0-0.9,0-1.4,0c0.3-0.3,0.6-0.6,0.8-0.9C81.5,76.6,81.6,76.9,81.8,77.2z"/>
	<path class="st0" d="M152.2,96.1c-0.5,0-0.9,0.1-1.4,0.1c0.3-0.4,0.6-0.7,0.8-1.1C151.9,95.5,152,95.8,152.2,96.1z"/>
	<path class="st0" d="M122.1,120.6c0.1-0.2,0.3-0.4,0.4-0.6c0.2,0.2,0.5,0.4,0.6,0.7c0,0.1-0.3,0.4-0.5,0.6
		C122.4,121,122.2,120.8,122.1,120.6z"/>
	<path class="st0" d="M154.7,95.7c-0.5,0-0.9,0.1-1.4,0.1c0.3-0.3,0.6-0.7,0.9-1C154.3,95.1,154.5,95.4,154.7,95.7z"/>
	<path class="st0" d="M142.5,128c0.2,0.2,0.4,0.3,0.6,0.5c-0.4,0.1-0.7,0.2-1.1,0.3C142.2,128.5,142.3,128.2,142.5,128z"/>
	<path class="st0" d="M208.9,59c0.1,0.5,0.2,0.9,0.4,1.4C208.5,60.1,207.6,59.9,208.9,59z"/>
	<path class="st4" d="M135.4,139.5c0.1,0.2,0.2,0.4,0.3,0.5c-0.2,0.3-0.4,0.7-0.6,1C135.3,140.5,135.3,140,135.4,139.5z"/>
	<path class="st0" d="M161.1,137.5c0.2,0.2,0.4,0.5,0.6,0.7c-0.4,0-0.8-0.1-1.1-0.1C160.7,137.9,160.9,137.7,161.1,137.5z"/>
	<path class="st0" d="M135.4,115.8c0.1,0,0.2,0.1,0.4,0.1c0.1,0.1,0.2,0.2,0.3,0.3c-0.1,0.2-0.2,0.5-0.2,0.7
		C135.7,116.5,135.5,116.1,135.4,115.8z"/>
	<path class="st5" d="M174.7,112c0.3-0.4,0.5-0.8,0.8-1.2C175.8,111.6,175.6,112,174.7,112z"/>
	<path class="st0" d="M209.4,179.9c0,0.3-0.1,0.7-0.1,1c-0.2-0.2-0.4-0.3-0.6-0.5C208.9,180.2,209.1,180.1,209.4,179.9z"/>
	<path class="st6" d="M147,97.2c0.2,0.1,0.5,0.2,0.7,0.4c-0.2,0.2-0.5,0.4-0.7,0.6C147,97.9,147,97.5,147,97.2z"/>
	<path class="st0" d="M142.3,100.1c-0.3,0.2-0.6,0.5-0.8,0.7C140.9,99.5,142,100.3,142.3,100.1z"/>
	<path class="st0" d="M143.1,99.3c-0.1,0.1-0.2,0.2-0.3,0.3c-0.1-0.2-0.2-0.3-0.2-0.5C142.8,99.2,143,99.3,143.1,99.3z"/>
	<path class="st0" d="M138.4,104.1c-0.2,0.2-0.3,0.3-0.5,0.5c0-0.2-0.1-0.4-0.1-0.5C138,104.1,138.2,104.1,138.4,104.1z"/>
	<path class="st7" d="M119.7,85.3c-0.1-0.1-0.2-0.2-0.3-0.3C119.5,85.1,119.6,85.2,119.7,85.3z"/>
	<path class="st8" d="M150.2,132.2c0.1,0.1,0.2,0.2,0.3,0.3C150.4,132.4,150.3,132.3,150.2,132.2z"/>
	<path class="st8" d="M127.3,100.7c-0.1-0.1-0.2-0.2-0.3-0.4C127.1,100.5,127.2,100.6,127.3,100.7z"/>
	<path class="st0" d="M45.4,37.3c0.1-0.1,0.3-0.2,0.4-0.3C45.6,37.1,45.5,37.2,45.4,37.3z"/>
	<path class="st0" d="M44.3,38c0.1-0.1,0.2-0.2,0.4-0.3C44.6,37.8,44.5,37.9,44.3,38z"/>
	<path class="st0" d="M100,92.4c5,0.3,10,4.1,10.5,9.1c0.2,2.1,0.3,4.4-0.2,6.5c-1.2,5.1-5.3,7.5-9.9,8.4c-4.3,0.9-8.7,0.8-13.3,1.1
		c0-8.7,0-17,0-25.5c3.6,0,7.2,0,10.8,0C98.4,93.3,99.1,93.5,100,92.4z"/>
	<path class="st0" d="M100,92.4c-0.9,1.2-1.6,0.9-2.1-0.4C98.6,92.1,99.3,92.2,100,92.4z"/>
	<path class="st9" d="M148.8,143.7c0.2,0.2,0.4,0.5,0.7,0.7C149.2,144.2,149,143.9,148.8,143.7z"/>
	<path class="st10" d="M136,116.1c-0.1-0.1-0.2-0.2-0.3-0.3C135.9,115.9,136,116,136,116.1z"/>
</g>
</svg>
