<?xml version="1.0" encoding="utf-8"?>
<!-- Generator: Adobe Illustrator 27.6.1, SVG Export Plug-In . SVG Version: 6.00 Build 0)  -->
<svg version="1.1" id="Layer_1" xmlns="http://www.w3.org/2000/svg" xmlns:xlink="http://www.w3.org/1999/xlink" x="0px" y="0px"
	 viewBox="0 0 240 240" style="enable-background:new 0 0 240 240;" xml:space="preserve">
<style type="text/css">
	.st0{fill:#00005B;}
	.st1{fill:#9999FF;}
	.st2{fill:#5757B8;}
	.st3{fill:#8585E9;}
	.st4{fill:#9797FD;}
	.st5{fill:#FDFDFD;}
	.st6{fill:#10106C;}
</style>
<g>
	<path class="st0" d="M30.2,180c0-40,0-80,0-120c0.8-2.7,1.4-5.4,2.5-8c2.8-7.1,7.7-12.2,14.4-15.9c5.4-3,11.3-3.7,17.2-3.7
		c38.2,0,76.3,0.1,114.5,0.2c4,0,7.9,0.7,11.5,2.3c4.5,2,8.6,4.8,11.9,8.7c5.2,6.2,7.6,13.3,7.6,21.1c0.1,36.5,0,73.1,0,109.6
		c0,3.1-0.1,6.3-1,9.4c-1.8,6.1-4.8,11.3-9.5,15.6c-0.1,0.1-0.3,0.2-0.4,0.3c-3.5,3.1-7.5,5.3-11.9,6.6c-3.5,1.1-7.1,1.3-10.8,1.3
		c-36.1,0-72.2,0-108.3,0c-3.4,0-6.7,0-10.1-0.3c-3.9-0.3-7.5-1.6-10.9-3.5c-3.3-1.8-6.3-4.2-8.8-7c-3-3.4-5.3-7.3-6.5-11.7
		C31.1,183.4,30.6,181.7,30.2,180z M152.3,96.2c-4,0-7.9,0-11.9-0.1c-1.4,0-1.5,0.7-1.4,1.8c0.1,1,0.3,1.9,0.3,2.9
		c0.2,2.9,0.3,5.8,0.4,8.7c0,0.2,0,0.5,0,0.7c0,0.2-0.1,0.5-0.1,0.7c0,14.5,0,29,0,43.5c0,0.4-0.1,0.9,0.1,1.2
		c0.3,0.4,0.9,0.9,1.3,0.9c4.4,0,8.7-0.1,13.1-0.2c2.3,0,2.3,0,2.3-2.4c0-11.8,0-23.5,0-35.3c0-1.5,0.6-2.4,1.7-3.1
		c1-0.6,1.9-1.4,3-1.6c3.6-0.9,7.2-1.7,10.9-2.5c0.9-0.2,1.8-0.2,2.7-0.3c1.2,0.1,1.6-0.4,1.2-1.5c0-4.2,0-8.4,0-12.6
		c0-1.2-0.4-1.7-1.6-1.7c-4-0.1-7.8,0.8-11.2,3c-2.5,1.6-4.7,3.6-7.1,5.5c-0.1,0-0.2,0-0.4,0c-0.3-1.5-0.9-3-1-4.6
		c-0.1-1.3-0.6-2-1.9-2.2C152.7,96.6,152.5,96.4,152.3,96.2z M72.9,77.7c0,0.7,0,1.3,0,1.9c0,24.3,0,48.6,0,73c0,0.5,0.2,1.1,0,1.6
		c-0.7,1.8,0.3,2,1.7,2c4.2,0,8.3-0.1,12.5,0c1.8,0,2.2-0.6,2.1-2.2c-0.1-7,0-13.9,0-20.9c0-0.6,0-1.2,0-2c1.9,0.2,3.5,0.5,5.1,0.5
		c5.3,0,10.5-0.4,15.6-1.8c4.9-1.4,9.3-3.8,12.8-7.5c2.8-3,4-6.7,5.5-10.4c1.2-3,1-6.2,1-9.4c0-7.2-2.8-13.2-8.1-18
		c-5.5-4.9-12.2-7-19.3-7.2c-9.4-0.3-18.8,0.2-28.2,0.3C73.4,77.5,73.3,77.6,72.9,77.7z"/>
	<path class="st1" d="M72.9,77.7c0.4-0.1,0.5-0.2,0.6-0.2c9.4-0.1,18.8-0.6,28.2-0.3c7.1,0.2,13.9,2.3,19.3,7.2
		c5.3,4.8,8.1,10.8,8.1,18c0,3.2,0.2,6.4-1,9.4c-1.5,3.6-2.7,7.4-5.5,10.4c-3.6,3.8-7.9,6.2-12.8,7.5c-5.1,1.4-10.3,1.8-15.6,1.8
		c-1.6,0-3.2-0.3-5.1-0.5c0,0.8,0,1.4,0,2c0,7,0,13.9,0,20.9c0,1.6-0.4,2.3-2.1,2.2c-4.1-0.1-8.3,0-12.5,0c-1.4,0-2.4-0.3-1.7-2
		c0.2-0.5,0-1,0-1.6c0-24.3,0-48.6,0-73C72.9,79,72.9,78.4,72.9,77.7z M89.5,117.1c3.8-0.1,7.7,0.1,11.5-0.4
		c3.1-0.4,5.9-1.7,8.4-3.8c2.7-2.3,3.1-5.4,3.5-8.4c0.5-3.6-1.4-8.8-5.7-10.8c-5.7-2.6-11.7-2.3-17.7-1.8c-0.1,0.1-0.2,0.2-0.3,0.3
		c0,8.2,0,16.4,0,24.6C89.3,116.9,89.4,117,89.5,117.1z"/>
	<path class="st1" d="M174.8,110.9c-0.9,0.1-1.8,0.1-2.7,0.3c-3.6,0.8-7.3,1.6-10.9,2.5c-1.1,0.3-2,1-3,1.6
		c-1.1,0.7-1.7,1.6-1.7,3.1c0.1,11.8,0,23.5,0,35.3c0,2.4,0,2.3-2.3,2.4c-4.4,0.1-8.7,0.2-13.1,0.2c-0.4,0-1-0.5-1.3-0.9
		c-0.2-0.3-0.1-0.8-0.1-1.2c0-14.5,0-29,0-43.5c0-0.2,0-0.5,0.1-0.7c0.2-0.1,0.3-0.2,0.5-0.4c-0.2-0.1-0.3-0.2-0.5-0.3
		c-0.1-2.9-0.3-5.8-0.4-8.7c-0.1-1-0.2-1.9-0.3-2.9c-0.1-1.1,0-1.8,1.4-1.8c4,0.1,7.9,0.1,11.9,0.1c0.2,0.2,0.4,0.4,0.7,0.6
		c1.3,0.1,1.8,0.8,1.9,2.2c0.1,1.5,0.6,3,1,4.6c0.1,0.1,0.1,0.3,0.2,0.4c0.1-0.1,0.1-0.3,0.2-0.4c2.4-1.8,4.6-3.9,7.1-5.5
		c3.4-2.2,7.1-3.1,11.2-3c1.2,0,1.6,0.6,1.6,1.7c0,4.2,0,8.4,0,12.6C175.6,109.9,175.2,110.4,174.8,110.9z"/>
	<path class="st2" d="M174.8,110.9c0.4-0.5,0.8-1,1.2-1.5C176.4,110.5,176,111,174.8,110.9z"/>
	<path class="st3" d="M152.9,96.8c-0.2-0.2-0.4-0.4-0.7-0.6C152.5,96.4,152.7,96.6,152.9,96.8z"/>
	<path class="st1" d="M139.7,109.4c0.2,0.1,0.3,0.2,0.5,0.3c-0.2,0.1-0.3,0.2-0.5,0.4C139.7,109.9,139.7,109.7,139.7,109.4z"/>
	<path class="st4" d="M156.1,103.5c-0.1,0.1-0.1,0.3-0.2,0.4c-0.1-0.1-0.1-0.3-0.2-0.4C155.9,103.5,156,103.5,156.1,103.5z"/>
	<path class="st5" d="M199.3,199.3c-0.1,0.1-0.3,0.2-0.4,0.3C199,199.5,199.1,199.4,199.3,199.3z"/>
	<path class="st0" d="M89.2,116.8c0-8.2,0-16.4,0-24.6c0.1-0.1,0.2-0.2,0.3-0.3c6-0.5,12-0.8,17.7,1.8c4.3,2,6.2,7.2,5.7,10.8
		c-0.4,3.1-0.8,6.2-3.5,8.4c-2.5,2.1-5.3,3.4-8.4,3.8c-3.8,0.4-7.6,0.3-11.5,0.4C89.4,117,89.3,116.9,89.2,116.8z"/>
	<path class="st6" d="M89.5,92c-0.1,0.1-0.2,0.2-0.3,0.3C89.3,92.2,89.4,92.1,89.5,92z"/>
	<path class="st6" d="M89.2,116.8c0.1,0.1,0.2,0.2,0.3,0.3C89.4,117,89.3,116.9,89.2,116.8z"/>
</g>
</svg>
